G04 #@! TF.FileFunction,Soldermask,Top*
%FSLAX46Y46*%
G04 Gerber Fmt 4.6, Leading zero omitted, Abs format (unit mm)*
G04 Created by KiCad (PCBNEW 4.0.7) date *
%MOMM*%
%LPD*%
G01*
G04 APERTURE LIST*
%ADD10C,0.150000*%
%ADD11C,7.400000*%
%ADD12C,2.398980*%
%ADD13R,2.398980X2.398980*%
%ADD14R,1.924000X1.924000*%
%ADD15O,2.900000X1.924000*%
%ADD16C,1.924000*%
%ADD17C,3.200000*%
%ADD18C,4.387810*%
%ADD19C,2.101810*%
%ADD20O,2.900000X2.200000*%
%ADD21R,2.000000X2.000000*%
%ADD22C,2.000000*%
G04 APERTURE END LIST*
D10*
D11*
X216500000Y-109500000D03*
X140500000Y-72000000D03*
X216500000Y-71500000D03*
X121500000Y-110000000D03*
D12*
X117160000Y-127997460D03*
D13*
X107000000Y-127997460D03*
D14*
X110300000Y-128000000D03*
X113700000Y-128000000D03*
D12*
X134660000Y-70997460D03*
D13*
X124500000Y-70997460D03*
D14*
X127800000Y-71000000D03*
X131200000Y-71000000D03*
D12*
X136160000Y-89997460D03*
D13*
X126000000Y-89997460D03*
D14*
X129300000Y-90000000D03*
X132700000Y-90000000D03*
D12*
X137660000Y-108997460D03*
D13*
X127500000Y-108997460D03*
D14*
X130800000Y-109000000D03*
X134200000Y-109000000D03*
D12*
X136160000Y-127997460D03*
D13*
X126000000Y-127997460D03*
D14*
X129300000Y-128000000D03*
X132700000Y-128000000D03*
D12*
X156660000Y-70997460D03*
D13*
X146500000Y-70997460D03*
D14*
X149800000Y-71000000D03*
X153200000Y-71000000D03*
D12*
X155160000Y-89997460D03*
D13*
X145000000Y-89997460D03*
D14*
X148300000Y-90000000D03*
X151700000Y-90000000D03*
D12*
X155160000Y-108997460D03*
D13*
X145000000Y-108997460D03*
D14*
X148300000Y-109000000D03*
X151700000Y-109000000D03*
D12*
X154660000Y-127997460D03*
D13*
X144500000Y-127997460D03*
D14*
X147800000Y-128000000D03*
X151200000Y-128000000D03*
D12*
X174160000Y-70997460D03*
D13*
X164000000Y-70997460D03*
D14*
X167300000Y-71000000D03*
X170700000Y-71000000D03*
D12*
X174160000Y-89997460D03*
D13*
X164000000Y-89997460D03*
D14*
X167300000Y-90000000D03*
X170700000Y-90000000D03*
D12*
X174160000Y-108997460D03*
D13*
X164000000Y-108997460D03*
D14*
X167300000Y-109000000D03*
X170700000Y-109000000D03*
D12*
X193160000Y-70997460D03*
D13*
X183000000Y-70997460D03*
D14*
X186300000Y-71000000D03*
X189700000Y-71000000D03*
D12*
X193160000Y-89997460D03*
D13*
X183000000Y-89997460D03*
D14*
X186300000Y-90000000D03*
X189700000Y-90000000D03*
D12*
X193160000Y-108997460D03*
D13*
X183000000Y-108997460D03*
D14*
X186300000Y-109000000D03*
X189700000Y-109000000D03*
D12*
X210660000Y-70997460D03*
D13*
X200500000Y-70997460D03*
D14*
X203800000Y-71000000D03*
X207200000Y-71000000D03*
D12*
X212160000Y-89997460D03*
D13*
X202000000Y-89997460D03*
D14*
X205300000Y-90000000D03*
X208700000Y-90000000D03*
D12*
X210660000Y-108997460D03*
D13*
X200500000Y-108997460D03*
D14*
X203800000Y-109000000D03*
X207200000Y-109000000D03*
D12*
X232660000Y-70997460D03*
D13*
X222500000Y-70997460D03*
D14*
X225800000Y-71000000D03*
X229200000Y-71000000D03*
D12*
X231160000Y-89997460D03*
D13*
X221000000Y-89997460D03*
D14*
X224300000Y-90000000D03*
X227700000Y-90000000D03*
D12*
X232660000Y-108997460D03*
D13*
X222500000Y-108997460D03*
D14*
X225800000Y-109000000D03*
X229200000Y-109000000D03*
D15*
X110200000Y-90250000D03*
X111300000Y-94850000D03*
D16*
X109000000Y-92550000D03*
X102000000Y-92550000D03*
X102000000Y-87950000D03*
X109000000Y-87950000D03*
D15*
X111300000Y-85650000D03*
X103200000Y-90250000D03*
X106200000Y-90250000D03*
X110200000Y-90250000D03*
D17*
X108190000Y-116460000D03*
D18*
X112000000Y-119000000D03*
D19*
X106920000Y-119000000D03*
X117080000Y-119000000D03*
D17*
X115810000Y-116460000D03*
X114500000Y-115000000D03*
X109500000Y-115000000D03*
X109460000Y-113920000D03*
X114540000Y-113920000D03*
X114500000Y-114500000D03*
X109500000Y-114500000D03*
X127190000Y-59460000D03*
D18*
X131000000Y-62000000D03*
D19*
X125920000Y-62000000D03*
X136080000Y-62000000D03*
D17*
X134810000Y-59460000D03*
X133500000Y-58000000D03*
X128500000Y-58000000D03*
X128460000Y-56920000D03*
X133540000Y-56920000D03*
X133500000Y-57500000D03*
X128500000Y-57500000D03*
X127190000Y-78460000D03*
D18*
X131000000Y-81000000D03*
D19*
X125920000Y-81000000D03*
X136080000Y-81000000D03*
D17*
X134810000Y-78460000D03*
X133500000Y-77000000D03*
X128500000Y-77000000D03*
X128460000Y-75920000D03*
X133540000Y-75920000D03*
X133500000Y-76500000D03*
X128500000Y-76500000D03*
X127190000Y-97460000D03*
D18*
X131000000Y-100000000D03*
D19*
X125920000Y-100000000D03*
X136080000Y-100000000D03*
D17*
X134810000Y-97460000D03*
X133500000Y-96000000D03*
X128500000Y-96000000D03*
X128460000Y-94920000D03*
X133540000Y-94920000D03*
X133500000Y-95500000D03*
X128500000Y-95500000D03*
X127190000Y-116460000D03*
D18*
X131000000Y-119000000D03*
D19*
X125920000Y-119000000D03*
X136080000Y-119000000D03*
D17*
X134810000Y-116460000D03*
X133500000Y-115000000D03*
X128500000Y-115000000D03*
X128460000Y-113920000D03*
X133540000Y-113920000D03*
X133500000Y-114500000D03*
X128500000Y-114500000D03*
X146190000Y-59460000D03*
D18*
X150000000Y-62000000D03*
D19*
X144920000Y-62000000D03*
X155080000Y-62000000D03*
D17*
X153810000Y-59460000D03*
X152500000Y-58000000D03*
X147500000Y-58000000D03*
X147460000Y-56920000D03*
X152540000Y-56920000D03*
X152500000Y-57500000D03*
X147500000Y-57500000D03*
X146190000Y-78460000D03*
D18*
X150000000Y-81000000D03*
D19*
X144920000Y-81000000D03*
X155080000Y-81000000D03*
D17*
X153810000Y-78460000D03*
X152500000Y-77000000D03*
X147500000Y-77000000D03*
X147460000Y-75920000D03*
X152540000Y-75920000D03*
X152500000Y-76500000D03*
X147500000Y-76500000D03*
X146190000Y-97460000D03*
D18*
X150000000Y-100000000D03*
D19*
X144920000Y-100000000D03*
X155080000Y-100000000D03*
D17*
X153810000Y-97460000D03*
X152500000Y-96000000D03*
X147500000Y-96000000D03*
X147460000Y-94920000D03*
X152540000Y-94920000D03*
X152500000Y-95500000D03*
X147500000Y-95500000D03*
X146190000Y-116460000D03*
D18*
X150000000Y-119000000D03*
D19*
X144920000Y-119000000D03*
X155080000Y-119000000D03*
D17*
X153810000Y-116460000D03*
X152500000Y-115000000D03*
X147500000Y-115000000D03*
X147460000Y-113920000D03*
X152540000Y-113920000D03*
X152500000Y-114500000D03*
X147500000Y-114500000D03*
X165190000Y-59460000D03*
D18*
X169000000Y-62000000D03*
D19*
X163920000Y-62000000D03*
X174080000Y-62000000D03*
D17*
X172810000Y-59460000D03*
X171500000Y-58000000D03*
X166500000Y-58000000D03*
X166460000Y-56920000D03*
X171540000Y-56920000D03*
X171500000Y-57500000D03*
X166500000Y-57500000D03*
X165190000Y-78460000D03*
D18*
X169000000Y-81000000D03*
D19*
X163920000Y-81000000D03*
X174080000Y-81000000D03*
D17*
X172810000Y-78460000D03*
X171500000Y-77000000D03*
X166500000Y-77000000D03*
X166460000Y-75920000D03*
X171540000Y-75920000D03*
X171500000Y-76500000D03*
X166500000Y-76500000D03*
X165190000Y-97460000D03*
D18*
X169000000Y-100000000D03*
D19*
X163920000Y-100000000D03*
X174080000Y-100000000D03*
D17*
X172810000Y-97460000D03*
X171500000Y-96000000D03*
X166500000Y-96000000D03*
X166460000Y-94920000D03*
X171540000Y-94920000D03*
X171500000Y-95500000D03*
X166500000Y-95500000D03*
X184190000Y-59460000D03*
D18*
X188000000Y-62000000D03*
D19*
X182920000Y-62000000D03*
X193080000Y-62000000D03*
D17*
X191810000Y-59460000D03*
X190500000Y-58000000D03*
X185500000Y-58000000D03*
X185460000Y-56920000D03*
X190540000Y-56920000D03*
X190500000Y-57500000D03*
X185500000Y-57500000D03*
X184190000Y-78460000D03*
D18*
X188000000Y-81000000D03*
D19*
X182920000Y-81000000D03*
X193080000Y-81000000D03*
D17*
X191810000Y-78460000D03*
X190500000Y-77000000D03*
X185500000Y-77000000D03*
X185460000Y-75920000D03*
X190540000Y-75920000D03*
X190500000Y-76500000D03*
X185500000Y-76500000D03*
X184190000Y-97460000D03*
D18*
X188000000Y-100000000D03*
D19*
X182920000Y-100000000D03*
X193080000Y-100000000D03*
D17*
X191810000Y-97460000D03*
X190500000Y-96000000D03*
X185500000Y-96000000D03*
X185460000Y-94920000D03*
X190540000Y-94920000D03*
X190500000Y-95500000D03*
X185500000Y-95500000D03*
X203190000Y-59460000D03*
D18*
X207000000Y-62000000D03*
D19*
X201920000Y-62000000D03*
X212080000Y-62000000D03*
D17*
X210810000Y-59460000D03*
X209500000Y-58000000D03*
X204500000Y-58000000D03*
X204460000Y-56920000D03*
X209540000Y-56920000D03*
X209500000Y-57500000D03*
X204500000Y-57500000D03*
X203190000Y-78460000D03*
D18*
X207000000Y-81000000D03*
D19*
X201920000Y-81000000D03*
X212080000Y-81000000D03*
D17*
X210810000Y-78460000D03*
X209500000Y-77000000D03*
X204500000Y-77000000D03*
X204460000Y-75920000D03*
X209540000Y-75920000D03*
X209500000Y-76500000D03*
X204500000Y-76500000D03*
X203190000Y-97460000D03*
D18*
X207000000Y-100000000D03*
D19*
X201920000Y-100000000D03*
X212080000Y-100000000D03*
D17*
X210810000Y-97460000D03*
X209500000Y-96000000D03*
X204500000Y-96000000D03*
X204460000Y-94920000D03*
X209540000Y-94920000D03*
X209500000Y-95500000D03*
X204500000Y-95500000D03*
X222190000Y-59460000D03*
D18*
X226000000Y-62000000D03*
D19*
X220920000Y-62000000D03*
X231080000Y-62000000D03*
D17*
X229810000Y-59460000D03*
X228500000Y-58000000D03*
X223500000Y-58000000D03*
X223460000Y-56920000D03*
X228540000Y-56920000D03*
X228500000Y-57500000D03*
X223500000Y-57500000D03*
X222190000Y-78460000D03*
D18*
X226000000Y-81000000D03*
D19*
X220920000Y-81000000D03*
X231080000Y-81000000D03*
D17*
X229810000Y-78460000D03*
X228500000Y-77000000D03*
X223500000Y-77000000D03*
X223460000Y-75920000D03*
X228540000Y-75920000D03*
X228500000Y-76500000D03*
X223500000Y-76500000D03*
X222190000Y-97460000D03*
D18*
X226000000Y-100000000D03*
D19*
X220920000Y-100000000D03*
X231080000Y-100000000D03*
D17*
X229810000Y-97460000D03*
X228500000Y-96000000D03*
X223500000Y-96000000D03*
X223460000Y-94920000D03*
X228540000Y-94920000D03*
X228500000Y-95500000D03*
X223500000Y-95500000D03*
D20*
X102250000Y-105600000D03*
X102250000Y-98400000D03*
D21*
X102380000Y-52030000D03*
D22*
X102380000Y-54570000D03*
X102380000Y-57110000D03*
X102380000Y-59650000D03*
X102380000Y-62190000D03*
X102380000Y-64730000D03*
X102380000Y-67270000D03*
X102380000Y-69810000D03*
X102380000Y-72350000D03*
X102380000Y-74890000D03*
X102380000Y-77430000D03*
X102380000Y-79970000D03*
X117620000Y-79970000D03*
X117620000Y-77430000D03*
X117620000Y-74890000D03*
X117620000Y-72350000D03*
X117620000Y-69810000D03*
X117620000Y-67270000D03*
X117620000Y-64730000D03*
X117620000Y-62190000D03*
X117620000Y-59650000D03*
X117620000Y-57110000D03*
X117620000Y-54570000D03*
X117620000Y-52030000D03*
M02*
