M48
;DRILL file {KiCad 4.0.7} date 
;FORMAT={3:3/ absolute / metric / suppress trailing zeros}
FMAT,2
METRIC,LZ
T1C1.000
T2C1.100
T3C1.300
T4C1.500
T5C7.000
%
G90
G05
M71
T1
X107Y-127997
X11716Y-127997
X1245Y-070997
X126Y-089997
X126Y-127997
X1275Y-108997
X13466Y-070997
X13616Y-089997
X13616Y-127997
X13766Y-108997
X1445Y-127997
X145Y-089997
X145Y-108997
X1465Y-070997
X15466Y-127997
X15516Y-089997
X15516Y-108997
X15666Y-070997
X164Y-070997
X164Y-089997
X164Y-108997
X17416Y-070997
X17416Y-089997
X17416Y-108997
X183Y-070997
X183Y-089997
X183Y-108997
X19316Y-070997
X19316Y-089997
X19316Y-108997
X2005Y-070997
X2005Y-108997
X202Y-089997
X21066Y-070997
X21066Y-108997
X21216Y-089997
X221Y-089997
X2225Y-070997
X2225Y-108997
X23116Y-089997
X23266Y-070997
X23266Y-108997
T2
X10238Y-05203
X10238Y-05457
X10238Y-05711
X10238Y-05965
X10238Y-06219
X10238Y-06473
X10238Y-06727
X10238Y-06981
X10238Y-07235
X10238Y-07489
X10238Y-07743
X10238Y-07997
X11762Y-05203
X11762Y-05457
X11762Y-05711
X11762Y-05965
X11762Y-06219
X11762Y-06473
X11762Y-06727
X11762Y-06981
X11762Y-07235
X11762Y-07489
X11762Y-07743
X11762Y-07997
T4
X10819Y-11646
X10946Y-11392
X1095Y-1145
X1095Y-115
X1145Y-1145
X1145Y-115
X11454Y-11392
X11581Y-11646
X12719Y-05946
X12719Y-07846
X12719Y-09746
X12719Y-11646
X12846Y-05692
X12846Y-07592
X12846Y-09492
X12846Y-11392
X1285Y-0575
X1285Y-058
X1285Y-0765
X1285Y-077
X1285Y-0955
X1285Y-096
X1285Y-1145
X1285Y-115
X1335Y-0575
X1335Y-058
X1335Y-0765
X1335Y-077
X1335Y-0955
X1335Y-096
X1335Y-1145
X1335Y-115
X13354Y-05692
X13354Y-07592
X13354Y-09492
X13354Y-11392
X13481Y-05946
X13481Y-07846
X13481Y-09746
X13481Y-11646
X14619Y-05946
X14619Y-07846
X14619Y-09746
X14619Y-11646
X14746Y-05692
X14746Y-07592
X14746Y-09492
X14746Y-11392
X1475Y-0575
X1475Y-058
X1475Y-0765
X1475Y-077
X1475Y-0955
X1475Y-096
X1475Y-1145
X1475Y-115
X1525Y-0575
X1525Y-058
X1525Y-0765
X1525Y-077
X1525Y-0955
X1525Y-096
X1525Y-1145
X1525Y-115
X15254Y-05692
X15254Y-07592
X15254Y-09492
X15254Y-11392
X15381Y-05946
X15381Y-07846
X15381Y-09746
X15381Y-11646
X16519Y-05946
X16519Y-07846
X16519Y-09746
X16646Y-05692
X16646Y-07592
X16646Y-09492
X1665Y-0575
X1665Y-058
X1665Y-0765
X1665Y-077
X1665Y-0955
X1665Y-096
X1715Y-0575
X1715Y-058
X1715Y-0765
X1715Y-077
X1715Y-0955
X1715Y-096
X17154Y-05692
X17154Y-07592
X17154Y-09492
X17281Y-05946
X17281Y-07846
X17281Y-09746
X18419Y-05946
X18419Y-07846
X18419Y-09746
X18546Y-05692
X18546Y-07592
X18546Y-09492
X1855Y-0575
X1855Y-058
X1855Y-0765
X1855Y-077
X1855Y-0955
X1855Y-096
X1905Y-0575
X1905Y-058
X1905Y-0765
X1905Y-077
X1905Y-0955
X1905Y-096
X19054Y-05692
X19054Y-07592
X19054Y-09492
X19181Y-05946
X19181Y-07846
X19181Y-09746
X20319Y-05946
X20319Y-07846
X20319Y-09746
X20446Y-05692
X20446Y-07592
X20446Y-09492
X2045Y-0575
X2045Y-058
X2045Y-0765
X2045Y-077
X2045Y-0955
X2045Y-096
X2095Y-0575
X2095Y-058
X2095Y-0765
X2095Y-077
X2095Y-0955
X2095Y-096
X20954Y-05692
X20954Y-07592
X20954Y-09492
X21081Y-05946
X21081Y-07846
X21081Y-09746
X22219Y-05946
X22219Y-07846
X22219Y-09746
X22346Y-05692
X22346Y-07592
X22346Y-09492
X2235Y-0575
X2235Y-058
X2235Y-0765
X2235Y-077
X2235Y-0955
X2235Y-096
X2285Y-0575
X2285Y-058
X2285Y-0765
X2285Y-077
X2285Y-0955
X2285Y-096
X22854Y-05692
X22854Y-07592
X22854Y-09492
X22981Y-05946
X22981Y-07846
X22981Y-09746
T5
X1215Y-11
X1405Y-072
X2165Y-0715
X2165Y-1095
T1
X1027Y-09025G85X1037Y-09025
G05
X1057Y-09025G85X1067Y-09025
G05
X1097Y-09025G85X1107Y-09025
G05
X1097Y-09025G85X1107Y-09025
G05
X1108Y-08565G85X1118Y-08565
G05
X1108Y-09485G85X1118Y-09485
G05
T3
X1019Y-0984G85X1026Y-0984
G05
X1019Y-1056G85X1026Y-1056
G05
T0
M30
