M48
;DRILL file {KiCad 4.0.7} date 
;FORMAT={3:3/ absolute / metric / suppress trailing zeros}
FMAT,2
METRIC,LZ
T1C1.500
T2C1.702
T3C3.988
%
G90
G05
M71
T1
X102Y-08795
X102Y-09255
X109Y-08795
X109Y-09255
T2
X10692Y-119
X11708Y-119
X12592Y-062
X12592Y-081
X12592Y-1
X12592Y-119
X13608Y-062
X13608Y-081
X13608Y-1
X13608Y-119
X14492Y-062
X14492Y-081
X14492Y-1
X14492Y-119
X15508Y-062
X15508Y-081
X15508Y-1
X15508Y-119
X16392Y-062
X16392Y-081
X16392Y-1
X17408Y-062
X17408Y-081
X17408Y-1
X18292Y-062
X18292Y-081
X18292Y-1
X19308Y-062
X19308Y-081
X19308Y-1
X20192Y-062
X20192Y-081
X20192Y-1
X21208Y-062
X21208Y-081
X21208Y-1
X22092Y-062
X22092Y-081
X22092Y-1
X23108Y-062
X23108Y-081
X23108Y-1
T3
X112Y-119
X131Y-062
X131Y-081
X131Y-1
X131Y-119
X15Y-062
X15Y-081
X15Y-1
X15Y-119
X169Y-062
X169Y-081
X169Y-1
X188Y-062
X188Y-081
X188Y-1
X207Y-062
X207Y-081
X207Y-1
X226Y-062
X226Y-081
X226Y-1
T0
M30
