G04 #@! TF.FileFunction,Legend,Top*
%FSLAX46Y46*%
G04 Gerber Fmt 4.6, Leading zero omitted, Abs format (unit mm)*
G04 Created by KiCad (PCBNEW 4.0.7) date *
%MOMM*%
%LPD*%
G01*
G04 APERTURE LIST*
%ADD10C,0.150000*%
%ADD11C,0.300000*%
%ADD12C,7.400000*%
%ADD13C,2.398980*%
%ADD14R,2.398980X2.398980*%
%ADD15R,1.924000X1.924000*%
%ADD16O,2.900000X1.924000*%
%ADD17C,1.924000*%
%ADD18C,3.200000*%
%ADD19C,4.387810*%
%ADD20C,2.101810*%
%ADD21O,2.900000X2.200000*%
%ADD22R,2.000000X2.000000*%
%ADD23C,2.000000*%
G04 APERTURE END LIST*
D10*
D11*
X199214286Y-127178571D02*
X199214286Y-125678571D01*
X199714286Y-126750000D01*
X200214286Y-125678571D01*
X200214286Y-127178571D01*
X200928572Y-127178571D02*
X200928572Y-126178571D01*
X200928572Y-125678571D02*
X200857143Y-125750000D01*
X200928572Y-125821429D01*
X201000000Y-125750000D01*
X200928572Y-125678571D01*
X200928572Y-125821429D01*
X201642858Y-126178571D02*
X201642858Y-127178571D01*
X201642858Y-126321429D02*
X201714286Y-126250000D01*
X201857144Y-126178571D01*
X202071429Y-126178571D01*
X202214286Y-126250000D01*
X202285715Y-126392857D01*
X202285715Y-127178571D01*
X203000001Y-127178571D02*
X203000001Y-126178571D01*
X203000001Y-125678571D02*
X202928572Y-125750000D01*
X203000001Y-125821429D01*
X203071429Y-125750000D01*
X203000001Y-125678571D01*
X203000001Y-125821429D01*
X203642858Y-127107143D02*
X203857144Y-127178571D01*
X204214287Y-127178571D01*
X204357144Y-127107143D01*
X204428573Y-127035714D01*
X204500001Y-126892857D01*
X204500001Y-126750000D01*
X204428573Y-126607143D01*
X204357144Y-126535714D01*
X204214287Y-126464286D01*
X203928573Y-126392857D01*
X203785715Y-126321429D01*
X203714287Y-126250000D01*
X203642858Y-126107143D01*
X203642858Y-125964286D01*
X203714287Y-125821429D01*
X203785715Y-125750000D01*
X203928573Y-125678571D01*
X204285715Y-125678571D01*
X204500001Y-125750000D01*
X205142858Y-126178571D02*
X205142858Y-127678571D01*
X205142858Y-126250000D02*
X205285715Y-126178571D01*
X205571429Y-126178571D01*
X205714286Y-126250000D01*
X205785715Y-126321429D01*
X205857144Y-126464286D01*
X205857144Y-126892857D01*
X205785715Y-127035714D01*
X205714286Y-127107143D01*
X205571429Y-127178571D01*
X205285715Y-127178571D01*
X205142858Y-127107143D01*
X206714287Y-127178571D02*
X206571429Y-127107143D01*
X206500001Y-126964286D01*
X206500001Y-125678571D01*
X207285715Y-127178571D02*
X207285715Y-126178571D01*
X207285715Y-125678571D02*
X207214286Y-125750000D01*
X207285715Y-125821429D01*
X207357143Y-125750000D01*
X207285715Y-125678571D01*
X207285715Y-125821429D01*
X207785715Y-126178571D02*
X208357144Y-126178571D01*
X208000001Y-125678571D02*
X208000001Y-126964286D01*
X208071429Y-127107143D01*
X208214287Y-127178571D01*
X208357144Y-127178571D01*
X209785715Y-125678571D02*
X210285715Y-127178571D01*
X210785715Y-125678571D01*
X211857143Y-127107143D02*
X211714286Y-127178571D01*
X211428572Y-127178571D01*
X211285715Y-127107143D01*
X211214286Y-126964286D01*
X211214286Y-126392857D01*
X211285715Y-126250000D01*
X211428572Y-126178571D01*
X211714286Y-126178571D01*
X211857143Y-126250000D01*
X211928572Y-126392857D01*
X211928572Y-126535714D01*
X211214286Y-126678571D01*
X212571429Y-127178571D02*
X212571429Y-126178571D01*
X212571429Y-126464286D02*
X212642857Y-126321429D01*
X212714286Y-126250000D01*
X212857143Y-126178571D01*
X213000000Y-126178571D01*
X213785714Y-125678571D02*
X213928571Y-125678571D01*
X214071428Y-125750000D01*
X214142857Y-125821429D01*
X214214286Y-125964286D01*
X214285714Y-126250000D01*
X214285714Y-126607143D01*
X214214286Y-126892857D01*
X214142857Y-127035714D01*
X214071428Y-127107143D01*
X213928571Y-127178571D01*
X213785714Y-127178571D01*
X213642857Y-127107143D01*
X213571428Y-127035714D01*
X213500000Y-126892857D01*
X213428571Y-126607143D01*
X213428571Y-126250000D01*
X213500000Y-125964286D01*
X213571428Y-125821429D01*
X213642857Y-125750000D01*
X213785714Y-125678571D01*
X214928571Y-127035714D02*
X214999999Y-127107143D01*
X214928571Y-127178571D01*
X214857142Y-127107143D01*
X214928571Y-127035714D01*
X214928571Y-127178571D01*
X216428571Y-127178571D02*
X215571428Y-127178571D01*
X216000000Y-127178571D02*
X216000000Y-125678571D01*
X215857143Y-125892857D01*
X215714285Y-126035714D01*
X215571428Y-126107143D01*
X218214285Y-127178571D02*
X218214285Y-125678571D01*
X218214285Y-126250000D02*
X218357142Y-126178571D01*
X218642856Y-126178571D01*
X218785713Y-126250000D01*
X218857142Y-126321429D01*
X218928571Y-126464286D01*
X218928571Y-126892857D01*
X218857142Y-127035714D01*
X218785713Y-127107143D01*
X218642856Y-127178571D01*
X218357142Y-127178571D01*
X218214285Y-127107143D01*
X219428571Y-126178571D02*
X219785714Y-127178571D01*
X220142856Y-126178571D02*
X219785714Y-127178571D01*
X219642856Y-127535714D01*
X219571428Y-127607143D01*
X219428571Y-127678571D01*
X222357142Y-126392857D02*
X221857142Y-126392857D01*
X221857142Y-127178571D02*
X221857142Y-125678571D01*
X222571428Y-125678571D01*
X222785713Y-127321429D02*
X223928570Y-127321429D01*
X224571427Y-126464286D02*
X224571427Y-127178571D01*
X224071427Y-125678571D02*
X224571427Y-126464286D01*
X225071427Y-125678571D01*
X225571427Y-125678571D02*
X225571427Y-126892857D01*
X225642855Y-127035714D01*
X225714284Y-127107143D01*
X225857141Y-127178571D01*
X226142855Y-127178571D01*
X226285713Y-127107143D01*
X226357141Y-127035714D01*
X226428570Y-126892857D01*
X226428570Y-125678571D01*
X227142856Y-125678571D02*
X227142856Y-126892857D01*
X227214284Y-127035714D01*
X227285713Y-127107143D01*
X227428570Y-127178571D01*
X227714284Y-127178571D01*
X227857142Y-127107143D01*
X227928570Y-127035714D01*
X227999999Y-126892857D01*
X227999999Y-125678571D01*
X229571428Y-127035714D02*
X229499999Y-127107143D01*
X229285713Y-127178571D01*
X229142856Y-127178571D01*
X228928571Y-127107143D01*
X228785713Y-126964286D01*
X228714285Y-126821429D01*
X228642856Y-126535714D01*
X228642856Y-126321429D01*
X228714285Y-126035714D01*
X228785713Y-125892857D01*
X228928571Y-125750000D01*
X229142856Y-125678571D01*
X229285713Y-125678571D01*
X229499999Y-125750000D01*
X229571428Y-125821429D01*
X230214285Y-127178571D02*
X230214285Y-125678571D01*
X230214285Y-126392857D02*
X231071428Y-126392857D01*
X231071428Y-127178571D02*
X231071428Y-125678571D01*
X231785714Y-127178571D02*
X231785714Y-125678571D01*
D10*
X220346882Y-109500000D02*
G75*
G03X220346882Y-109500000I-3846882J0D01*
G01*
X144346882Y-72000000D02*
G75*
G03X144346882Y-72000000I-3846882J0D01*
G01*
X220346882Y-71500000D02*
G75*
G03X220346882Y-71500000I-3846882J0D01*
G01*
X125346882Y-110000000D02*
G75*
G03X125346882Y-110000000I-3846882J0D01*
G01*
X111500000Y-127300000D02*
X111500000Y-128700000D01*
X111500000Y-128000000D02*
X112400000Y-127300000D01*
X112400000Y-128700000D02*
X111500000Y-128000000D01*
X112400000Y-127300000D02*
X112400000Y-128700000D01*
X108300000Y-128000000D02*
X109200000Y-128000000D01*
X114800000Y-128000000D02*
X115800000Y-128000000D01*
X114800000Y-129000000D02*
X109200000Y-129000000D01*
X114800000Y-127000000D02*
X114800000Y-129000000D01*
X109200000Y-127000000D02*
X114800000Y-127000000D01*
X109200000Y-129000000D02*
X109200000Y-127000000D01*
X129000000Y-70300000D02*
X129000000Y-71700000D01*
X129000000Y-71000000D02*
X129900000Y-70300000D01*
X129900000Y-71700000D02*
X129000000Y-71000000D01*
X129900000Y-70300000D02*
X129900000Y-71700000D01*
X125800000Y-71000000D02*
X126700000Y-71000000D01*
X132300000Y-71000000D02*
X133300000Y-71000000D01*
X132300000Y-72000000D02*
X126700000Y-72000000D01*
X132300000Y-70000000D02*
X132300000Y-72000000D01*
X126700000Y-70000000D02*
X132300000Y-70000000D01*
X126700000Y-72000000D02*
X126700000Y-70000000D01*
X130500000Y-89300000D02*
X130500000Y-90700000D01*
X130500000Y-90000000D02*
X131400000Y-89300000D01*
X131400000Y-90700000D02*
X130500000Y-90000000D01*
X131400000Y-89300000D02*
X131400000Y-90700000D01*
X127300000Y-90000000D02*
X128200000Y-90000000D01*
X133800000Y-90000000D02*
X134800000Y-90000000D01*
X133800000Y-91000000D02*
X128200000Y-91000000D01*
X133800000Y-89000000D02*
X133800000Y-91000000D01*
X128200000Y-89000000D02*
X133800000Y-89000000D01*
X128200000Y-91000000D02*
X128200000Y-89000000D01*
X132000000Y-108300000D02*
X132000000Y-109700000D01*
X132000000Y-109000000D02*
X132900000Y-108300000D01*
X132900000Y-109700000D02*
X132000000Y-109000000D01*
X132900000Y-108300000D02*
X132900000Y-109700000D01*
X128800000Y-109000000D02*
X129700000Y-109000000D01*
X135300000Y-109000000D02*
X136300000Y-109000000D01*
X135300000Y-110000000D02*
X129700000Y-110000000D01*
X135300000Y-108000000D02*
X135300000Y-110000000D01*
X129700000Y-108000000D02*
X135300000Y-108000000D01*
X129700000Y-110000000D02*
X129700000Y-108000000D01*
X130500000Y-127300000D02*
X130500000Y-128700000D01*
X130500000Y-128000000D02*
X131400000Y-127300000D01*
X131400000Y-128700000D02*
X130500000Y-128000000D01*
X131400000Y-127300000D02*
X131400000Y-128700000D01*
X127300000Y-128000000D02*
X128200000Y-128000000D01*
X133800000Y-128000000D02*
X134800000Y-128000000D01*
X133800000Y-129000000D02*
X128200000Y-129000000D01*
X133800000Y-127000000D02*
X133800000Y-129000000D01*
X128200000Y-127000000D02*
X133800000Y-127000000D01*
X128200000Y-129000000D02*
X128200000Y-127000000D01*
X151000000Y-70300000D02*
X151000000Y-71700000D01*
X151000000Y-71000000D02*
X151900000Y-70300000D01*
X151900000Y-71700000D02*
X151000000Y-71000000D01*
X151900000Y-70300000D02*
X151900000Y-71700000D01*
X147800000Y-71000000D02*
X148700000Y-71000000D01*
X154300000Y-71000000D02*
X155300000Y-71000000D01*
X154300000Y-72000000D02*
X148700000Y-72000000D01*
X154300000Y-70000000D02*
X154300000Y-72000000D01*
X148700000Y-70000000D02*
X154300000Y-70000000D01*
X148700000Y-72000000D02*
X148700000Y-70000000D01*
X149500000Y-89300000D02*
X149500000Y-90700000D01*
X149500000Y-90000000D02*
X150400000Y-89300000D01*
X150400000Y-90700000D02*
X149500000Y-90000000D01*
X150400000Y-89300000D02*
X150400000Y-90700000D01*
X146300000Y-90000000D02*
X147200000Y-90000000D01*
X152800000Y-90000000D02*
X153800000Y-90000000D01*
X152800000Y-91000000D02*
X147200000Y-91000000D01*
X152800000Y-89000000D02*
X152800000Y-91000000D01*
X147200000Y-89000000D02*
X152800000Y-89000000D01*
X147200000Y-91000000D02*
X147200000Y-89000000D01*
X149500000Y-108300000D02*
X149500000Y-109700000D01*
X149500000Y-109000000D02*
X150400000Y-108300000D01*
X150400000Y-109700000D02*
X149500000Y-109000000D01*
X150400000Y-108300000D02*
X150400000Y-109700000D01*
X146300000Y-109000000D02*
X147200000Y-109000000D01*
X152800000Y-109000000D02*
X153800000Y-109000000D01*
X152800000Y-110000000D02*
X147200000Y-110000000D01*
X152800000Y-108000000D02*
X152800000Y-110000000D01*
X147200000Y-108000000D02*
X152800000Y-108000000D01*
X147200000Y-110000000D02*
X147200000Y-108000000D01*
X149000000Y-127300000D02*
X149000000Y-128700000D01*
X149000000Y-128000000D02*
X149900000Y-127300000D01*
X149900000Y-128700000D02*
X149000000Y-128000000D01*
X149900000Y-127300000D02*
X149900000Y-128700000D01*
X145800000Y-128000000D02*
X146700000Y-128000000D01*
X152300000Y-128000000D02*
X153300000Y-128000000D01*
X152300000Y-129000000D02*
X146700000Y-129000000D01*
X152300000Y-127000000D02*
X152300000Y-129000000D01*
X146700000Y-127000000D02*
X152300000Y-127000000D01*
X146700000Y-129000000D02*
X146700000Y-127000000D01*
X168500000Y-70300000D02*
X168500000Y-71700000D01*
X168500000Y-71000000D02*
X169400000Y-70300000D01*
X169400000Y-71700000D02*
X168500000Y-71000000D01*
X169400000Y-70300000D02*
X169400000Y-71700000D01*
X165300000Y-71000000D02*
X166200000Y-71000000D01*
X171800000Y-71000000D02*
X172800000Y-71000000D01*
X171800000Y-72000000D02*
X166200000Y-72000000D01*
X171800000Y-70000000D02*
X171800000Y-72000000D01*
X166200000Y-70000000D02*
X171800000Y-70000000D01*
X166200000Y-72000000D02*
X166200000Y-70000000D01*
X168500000Y-89300000D02*
X168500000Y-90700000D01*
X168500000Y-90000000D02*
X169400000Y-89300000D01*
X169400000Y-90700000D02*
X168500000Y-90000000D01*
X169400000Y-89300000D02*
X169400000Y-90700000D01*
X165300000Y-90000000D02*
X166200000Y-90000000D01*
X171800000Y-90000000D02*
X172800000Y-90000000D01*
X171800000Y-91000000D02*
X166200000Y-91000000D01*
X171800000Y-89000000D02*
X171800000Y-91000000D01*
X166200000Y-89000000D02*
X171800000Y-89000000D01*
X166200000Y-91000000D02*
X166200000Y-89000000D01*
X168500000Y-108300000D02*
X168500000Y-109700000D01*
X168500000Y-109000000D02*
X169400000Y-108300000D01*
X169400000Y-109700000D02*
X168500000Y-109000000D01*
X169400000Y-108300000D02*
X169400000Y-109700000D01*
X165300000Y-109000000D02*
X166200000Y-109000000D01*
X171800000Y-109000000D02*
X172800000Y-109000000D01*
X171800000Y-110000000D02*
X166200000Y-110000000D01*
X171800000Y-108000000D02*
X171800000Y-110000000D01*
X166200000Y-108000000D02*
X171800000Y-108000000D01*
X166200000Y-110000000D02*
X166200000Y-108000000D01*
X187500000Y-70300000D02*
X187500000Y-71700000D01*
X187500000Y-71000000D02*
X188400000Y-70300000D01*
X188400000Y-71700000D02*
X187500000Y-71000000D01*
X188400000Y-70300000D02*
X188400000Y-71700000D01*
X184300000Y-71000000D02*
X185200000Y-71000000D01*
X190800000Y-71000000D02*
X191800000Y-71000000D01*
X190800000Y-72000000D02*
X185200000Y-72000000D01*
X190800000Y-70000000D02*
X190800000Y-72000000D01*
X185200000Y-70000000D02*
X190800000Y-70000000D01*
X185200000Y-72000000D02*
X185200000Y-70000000D01*
X187500000Y-89300000D02*
X187500000Y-90700000D01*
X187500000Y-90000000D02*
X188400000Y-89300000D01*
X188400000Y-90700000D02*
X187500000Y-90000000D01*
X188400000Y-89300000D02*
X188400000Y-90700000D01*
X184300000Y-90000000D02*
X185200000Y-90000000D01*
X190800000Y-90000000D02*
X191800000Y-90000000D01*
X190800000Y-91000000D02*
X185200000Y-91000000D01*
X190800000Y-89000000D02*
X190800000Y-91000000D01*
X185200000Y-89000000D02*
X190800000Y-89000000D01*
X185200000Y-91000000D02*
X185200000Y-89000000D01*
X187500000Y-108300000D02*
X187500000Y-109700000D01*
X187500000Y-109000000D02*
X188400000Y-108300000D01*
X188400000Y-109700000D02*
X187500000Y-109000000D01*
X188400000Y-108300000D02*
X188400000Y-109700000D01*
X184300000Y-109000000D02*
X185200000Y-109000000D01*
X190800000Y-109000000D02*
X191800000Y-109000000D01*
X190800000Y-110000000D02*
X185200000Y-110000000D01*
X190800000Y-108000000D02*
X190800000Y-110000000D01*
X185200000Y-108000000D02*
X190800000Y-108000000D01*
X185200000Y-110000000D02*
X185200000Y-108000000D01*
X205000000Y-70300000D02*
X205000000Y-71700000D01*
X205000000Y-71000000D02*
X205900000Y-70300000D01*
X205900000Y-71700000D02*
X205000000Y-71000000D01*
X205900000Y-70300000D02*
X205900000Y-71700000D01*
X201800000Y-71000000D02*
X202700000Y-71000000D01*
X208300000Y-71000000D02*
X209300000Y-71000000D01*
X208300000Y-72000000D02*
X202700000Y-72000000D01*
X208300000Y-70000000D02*
X208300000Y-72000000D01*
X202700000Y-70000000D02*
X208300000Y-70000000D01*
X202700000Y-72000000D02*
X202700000Y-70000000D01*
X206500000Y-89300000D02*
X206500000Y-90700000D01*
X206500000Y-90000000D02*
X207400000Y-89300000D01*
X207400000Y-90700000D02*
X206500000Y-90000000D01*
X207400000Y-89300000D02*
X207400000Y-90700000D01*
X203300000Y-90000000D02*
X204200000Y-90000000D01*
X209800000Y-90000000D02*
X210800000Y-90000000D01*
X209800000Y-91000000D02*
X204200000Y-91000000D01*
X209800000Y-89000000D02*
X209800000Y-91000000D01*
X204200000Y-89000000D02*
X209800000Y-89000000D01*
X204200000Y-91000000D02*
X204200000Y-89000000D01*
X205000000Y-108300000D02*
X205000000Y-109700000D01*
X205000000Y-109000000D02*
X205900000Y-108300000D01*
X205900000Y-109700000D02*
X205000000Y-109000000D01*
X205900000Y-108300000D02*
X205900000Y-109700000D01*
X201800000Y-109000000D02*
X202700000Y-109000000D01*
X208300000Y-109000000D02*
X209300000Y-109000000D01*
X208300000Y-110000000D02*
X202700000Y-110000000D01*
X208300000Y-108000000D02*
X208300000Y-110000000D01*
X202700000Y-108000000D02*
X208300000Y-108000000D01*
X202700000Y-110000000D02*
X202700000Y-108000000D01*
X227000000Y-70300000D02*
X227000000Y-71700000D01*
X227000000Y-71000000D02*
X227900000Y-70300000D01*
X227900000Y-71700000D02*
X227000000Y-71000000D01*
X227900000Y-70300000D02*
X227900000Y-71700000D01*
X223800000Y-71000000D02*
X224700000Y-71000000D01*
X230300000Y-71000000D02*
X231300000Y-71000000D01*
X230300000Y-72000000D02*
X224700000Y-72000000D01*
X230300000Y-70000000D02*
X230300000Y-72000000D01*
X224700000Y-70000000D02*
X230300000Y-70000000D01*
X224700000Y-72000000D02*
X224700000Y-70000000D01*
X225500000Y-89300000D02*
X225500000Y-90700000D01*
X225500000Y-90000000D02*
X226400000Y-89300000D01*
X226400000Y-90700000D02*
X225500000Y-90000000D01*
X226400000Y-89300000D02*
X226400000Y-90700000D01*
X222300000Y-90000000D02*
X223200000Y-90000000D01*
X228800000Y-90000000D02*
X229800000Y-90000000D01*
X228800000Y-91000000D02*
X223200000Y-91000000D01*
X228800000Y-89000000D02*
X228800000Y-91000000D01*
X223200000Y-89000000D02*
X228800000Y-89000000D01*
X223200000Y-91000000D02*
X223200000Y-89000000D01*
X227000000Y-108300000D02*
X227000000Y-109700000D01*
X227000000Y-109000000D02*
X227900000Y-108300000D01*
X227900000Y-109700000D02*
X227000000Y-109000000D01*
X227900000Y-108300000D02*
X227900000Y-109700000D01*
X223800000Y-109000000D02*
X224700000Y-109000000D01*
X230300000Y-109000000D02*
X231300000Y-109000000D01*
X230300000Y-110000000D02*
X224700000Y-110000000D01*
X230300000Y-108000000D02*
X230300000Y-110000000D01*
X224700000Y-108000000D02*
X230300000Y-108000000D01*
X224700000Y-110000000D02*
X224700000Y-108000000D01*
X100400000Y-90750000D02*
X98400000Y-90750000D01*
X100400000Y-91000000D02*
X100400000Y-90750000D01*
X112500000Y-91000000D02*
X100400000Y-91000000D01*
X98400000Y-85200000D02*
X98400000Y-90750000D01*
X100400000Y-85150000D02*
X98400000Y-85150000D01*
X100400000Y-84900000D02*
X100400000Y-85150000D01*
X112500000Y-84900000D02*
X100400000Y-84900000D01*
X112500000Y-91000000D02*
X112500000Y-84900000D01*
X100500000Y-105000000D02*
X104000000Y-105000000D01*
X100500000Y-99000000D02*
X100500000Y-105000000D01*
X104000000Y-99000000D02*
X100500000Y-99000000D01*
X104000000Y-105000000D02*
X104000000Y-99000000D01*
X101110000Y-50760000D02*
X101110000Y-81240000D01*
X101110000Y-50760000D02*
X106190000Y-50760000D01*
X106190000Y-50760000D02*
X106190000Y-48220000D01*
X106190000Y-48220000D02*
X113810000Y-48220000D01*
X113810000Y-48220000D02*
X113810000Y-50760000D01*
X113810000Y-50760000D02*
X118890000Y-50760000D01*
X118890000Y-50760000D02*
X118890000Y-81240000D01*
X118890000Y-81240000D02*
X101110000Y-81240000D01*
X215738095Y-106952381D02*
X215738095Y-107761905D01*
X215785714Y-107857143D01*
X215833333Y-107904762D01*
X215928571Y-107952381D01*
X216119048Y-107952381D01*
X216214286Y-107904762D01*
X216261905Y-107857143D01*
X216309524Y-107761905D01*
X216309524Y-106952381D01*
X217214286Y-107285714D02*
X217214286Y-107952381D01*
X216976190Y-106904762D02*
X216738095Y-107619048D01*
X217357143Y-107619048D01*
X139738095Y-69452381D02*
X139738095Y-70261905D01*
X139785714Y-70357143D01*
X139833333Y-70404762D01*
X139928571Y-70452381D01*
X140119048Y-70452381D01*
X140214286Y-70404762D01*
X140261905Y-70357143D01*
X140309524Y-70261905D01*
X140309524Y-69452381D01*
X140690476Y-69452381D02*
X141309524Y-69452381D01*
X140976190Y-69833333D01*
X141119048Y-69833333D01*
X141214286Y-69880952D01*
X141261905Y-69928571D01*
X141309524Y-70023810D01*
X141309524Y-70261905D01*
X141261905Y-70357143D01*
X141214286Y-70404762D01*
X141119048Y-70452381D01*
X140833333Y-70452381D01*
X140738095Y-70404762D01*
X140690476Y-70357143D01*
X215738095Y-68952381D02*
X215738095Y-69761905D01*
X215785714Y-69857143D01*
X215833333Y-69904762D01*
X215928571Y-69952381D01*
X216119048Y-69952381D01*
X216214286Y-69904762D01*
X216261905Y-69857143D01*
X216309524Y-69761905D01*
X216309524Y-68952381D01*
X216738095Y-69047619D02*
X216785714Y-69000000D01*
X216880952Y-68952381D01*
X217119048Y-68952381D01*
X217214286Y-69000000D01*
X217261905Y-69047619D01*
X217309524Y-69142857D01*
X217309524Y-69238095D01*
X217261905Y-69380952D01*
X216690476Y-69952381D01*
X217309524Y-69952381D01*
X120738095Y-107452381D02*
X120738095Y-108261905D01*
X120785714Y-108357143D01*
X120833333Y-108404762D01*
X120928571Y-108452381D01*
X121119048Y-108452381D01*
X121214286Y-108404762D01*
X121261905Y-108357143D01*
X121309524Y-108261905D01*
X121309524Y-107452381D01*
X122309524Y-108452381D02*
X121738095Y-108452381D01*
X122023809Y-108452381D02*
X122023809Y-107452381D01*
X121928571Y-107595238D01*
X121833333Y-107690476D01*
X121738095Y-107738095D01*
X111649245Y-130989841D02*
X111649245Y-129989841D01*
X111887340Y-129989841D01*
X112030198Y-130037460D01*
X112125436Y-130132698D01*
X112173055Y-130227936D01*
X112220674Y-130418412D01*
X112220674Y-130561270D01*
X112173055Y-130751746D01*
X112125436Y-130846984D01*
X112030198Y-130942222D01*
X111887340Y-130989841D01*
X111649245Y-130989841D01*
X113173055Y-130989841D02*
X112601626Y-130989841D01*
X112887340Y-130989841D02*
X112887340Y-129989841D01*
X112792102Y-130132698D01*
X112696864Y-130227936D01*
X112601626Y-130275555D01*
X129149245Y-73989841D02*
X129149245Y-72989841D01*
X129387340Y-72989841D01*
X129530198Y-73037460D01*
X129625436Y-73132698D01*
X129673055Y-73227936D01*
X129720674Y-73418412D01*
X129720674Y-73561270D01*
X129673055Y-73751746D01*
X129625436Y-73846984D01*
X129530198Y-73942222D01*
X129387340Y-73989841D01*
X129149245Y-73989841D01*
X130101626Y-73085079D02*
X130149245Y-73037460D01*
X130244483Y-72989841D01*
X130482579Y-72989841D01*
X130577817Y-73037460D01*
X130625436Y-73085079D01*
X130673055Y-73180317D01*
X130673055Y-73275555D01*
X130625436Y-73418412D01*
X130054007Y-73989841D01*
X130673055Y-73989841D01*
X130649245Y-92989841D02*
X130649245Y-91989841D01*
X130887340Y-91989841D01*
X131030198Y-92037460D01*
X131125436Y-92132698D01*
X131173055Y-92227936D01*
X131220674Y-92418412D01*
X131220674Y-92561270D01*
X131173055Y-92751746D01*
X131125436Y-92846984D01*
X131030198Y-92942222D01*
X130887340Y-92989841D01*
X130649245Y-92989841D01*
X131554007Y-91989841D02*
X132173055Y-91989841D01*
X131839721Y-92370793D01*
X131982579Y-92370793D01*
X132077817Y-92418412D01*
X132125436Y-92466031D01*
X132173055Y-92561270D01*
X132173055Y-92799365D01*
X132125436Y-92894603D01*
X132077817Y-92942222D01*
X131982579Y-92989841D01*
X131696864Y-92989841D01*
X131601626Y-92942222D01*
X131554007Y-92894603D01*
X132149245Y-111989841D02*
X132149245Y-110989841D01*
X132387340Y-110989841D01*
X132530198Y-111037460D01*
X132625436Y-111132698D01*
X132673055Y-111227936D01*
X132720674Y-111418412D01*
X132720674Y-111561270D01*
X132673055Y-111751746D01*
X132625436Y-111846984D01*
X132530198Y-111942222D01*
X132387340Y-111989841D01*
X132149245Y-111989841D01*
X133577817Y-111323174D02*
X133577817Y-111989841D01*
X133339721Y-110942222D02*
X133101626Y-111656508D01*
X133720674Y-111656508D01*
X130649245Y-130989841D02*
X130649245Y-129989841D01*
X130887340Y-129989841D01*
X131030198Y-130037460D01*
X131125436Y-130132698D01*
X131173055Y-130227936D01*
X131220674Y-130418412D01*
X131220674Y-130561270D01*
X131173055Y-130751746D01*
X131125436Y-130846984D01*
X131030198Y-130942222D01*
X130887340Y-130989841D01*
X130649245Y-130989841D01*
X132125436Y-129989841D02*
X131649245Y-129989841D01*
X131601626Y-130466031D01*
X131649245Y-130418412D01*
X131744483Y-130370793D01*
X131982579Y-130370793D01*
X132077817Y-130418412D01*
X132125436Y-130466031D01*
X132173055Y-130561270D01*
X132173055Y-130799365D01*
X132125436Y-130894603D01*
X132077817Y-130942222D01*
X131982579Y-130989841D01*
X131744483Y-130989841D01*
X131649245Y-130942222D01*
X131601626Y-130894603D01*
X151149245Y-73989841D02*
X151149245Y-72989841D01*
X151387340Y-72989841D01*
X151530198Y-73037460D01*
X151625436Y-73132698D01*
X151673055Y-73227936D01*
X151720674Y-73418412D01*
X151720674Y-73561270D01*
X151673055Y-73751746D01*
X151625436Y-73846984D01*
X151530198Y-73942222D01*
X151387340Y-73989841D01*
X151149245Y-73989841D01*
X152577817Y-72989841D02*
X152387340Y-72989841D01*
X152292102Y-73037460D01*
X152244483Y-73085079D01*
X152149245Y-73227936D01*
X152101626Y-73418412D01*
X152101626Y-73799365D01*
X152149245Y-73894603D01*
X152196864Y-73942222D01*
X152292102Y-73989841D01*
X152482579Y-73989841D01*
X152577817Y-73942222D01*
X152625436Y-73894603D01*
X152673055Y-73799365D01*
X152673055Y-73561270D01*
X152625436Y-73466031D01*
X152577817Y-73418412D01*
X152482579Y-73370793D01*
X152292102Y-73370793D01*
X152196864Y-73418412D01*
X152149245Y-73466031D01*
X152101626Y-73561270D01*
X149649245Y-92989841D02*
X149649245Y-91989841D01*
X149887340Y-91989841D01*
X150030198Y-92037460D01*
X150125436Y-92132698D01*
X150173055Y-92227936D01*
X150220674Y-92418412D01*
X150220674Y-92561270D01*
X150173055Y-92751746D01*
X150125436Y-92846984D01*
X150030198Y-92942222D01*
X149887340Y-92989841D01*
X149649245Y-92989841D01*
X150554007Y-91989841D02*
X151220674Y-91989841D01*
X150792102Y-92989841D01*
X149649245Y-111989841D02*
X149649245Y-110989841D01*
X149887340Y-110989841D01*
X150030198Y-111037460D01*
X150125436Y-111132698D01*
X150173055Y-111227936D01*
X150220674Y-111418412D01*
X150220674Y-111561270D01*
X150173055Y-111751746D01*
X150125436Y-111846984D01*
X150030198Y-111942222D01*
X149887340Y-111989841D01*
X149649245Y-111989841D01*
X150792102Y-111418412D02*
X150696864Y-111370793D01*
X150649245Y-111323174D01*
X150601626Y-111227936D01*
X150601626Y-111180317D01*
X150649245Y-111085079D01*
X150696864Y-111037460D01*
X150792102Y-110989841D01*
X150982579Y-110989841D01*
X151077817Y-111037460D01*
X151125436Y-111085079D01*
X151173055Y-111180317D01*
X151173055Y-111227936D01*
X151125436Y-111323174D01*
X151077817Y-111370793D01*
X150982579Y-111418412D01*
X150792102Y-111418412D01*
X150696864Y-111466031D01*
X150649245Y-111513650D01*
X150601626Y-111608889D01*
X150601626Y-111799365D01*
X150649245Y-111894603D01*
X150696864Y-111942222D01*
X150792102Y-111989841D01*
X150982579Y-111989841D01*
X151077817Y-111942222D01*
X151125436Y-111894603D01*
X151173055Y-111799365D01*
X151173055Y-111608889D01*
X151125436Y-111513650D01*
X151077817Y-111466031D01*
X150982579Y-111418412D01*
X149149245Y-130989841D02*
X149149245Y-129989841D01*
X149387340Y-129989841D01*
X149530198Y-130037460D01*
X149625436Y-130132698D01*
X149673055Y-130227936D01*
X149720674Y-130418412D01*
X149720674Y-130561270D01*
X149673055Y-130751746D01*
X149625436Y-130846984D01*
X149530198Y-130942222D01*
X149387340Y-130989841D01*
X149149245Y-130989841D01*
X150196864Y-130989841D02*
X150387340Y-130989841D01*
X150482579Y-130942222D01*
X150530198Y-130894603D01*
X150625436Y-130751746D01*
X150673055Y-130561270D01*
X150673055Y-130180317D01*
X150625436Y-130085079D01*
X150577817Y-130037460D01*
X150482579Y-129989841D01*
X150292102Y-129989841D01*
X150196864Y-130037460D01*
X150149245Y-130085079D01*
X150101626Y-130180317D01*
X150101626Y-130418412D01*
X150149245Y-130513650D01*
X150196864Y-130561270D01*
X150292102Y-130608889D01*
X150482579Y-130608889D01*
X150577817Y-130561270D01*
X150625436Y-130513650D01*
X150673055Y-130418412D01*
X168173054Y-73989841D02*
X168173054Y-72989841D01*
X168411149Y-72989841D01*
X168554007Y-73037460D01*
X168649245Y-73132698D01*
X168696864Y-73227936D01*
X168744483Y-73418412D01*
X168744483Y-73561270D01*
X168696864Y-73751746D01*
X168649245Y-73846984D01*
X168554007Y-73942222D01*
X168411149Y-73989841D01*
X168173054Y-73989841D01*
X169696864Y-73989841D02*
X169125435Y-73989841D01*
X169411149Y-73989841D02*
X169411149Y-72989841D01*
X169315911Y-73132698D01*
X169220673Y-73227936D01*
X169125435Y-73275555D01*
X170315911Y-72989841D02*
X170411150Y-72989841D01*
X170506388Y-73037460D01*
X170554007Y-73085079D01*
X170601626Y-73180317D01*
X170649245Y-73370793D01*
X170649245Y-73608889D01*
X170601626Y-73799365D01*
X170554007Y-73894603D01*
X170506388Y-73942222D01*
X170411150Y-73989841D01*
X170315911Y-73989841D01*
X170220673Y-73942222D01*
X170173054Y-73894603D01*
X170125435Y-73799365D01*
X170077816Y-73608889D01*
X170077816Y-73370793D01*
X170125435Y-73180317D01*
X170173054Y-73085079D01*
X170220673Y-73037460D01*
X170315911Y-72989841D01*
X168173054Y-92989841D02*
X168173054Y-91989841D01*
X168411149Y-91989841D01*
X168554007Y-92037460D01*
X168649245Y-92132698D01*
X168696864Y-92227936D01*
X168744483Y-92418412D01*
X168744483Y-92561270D01*
X168696864Y-92751746D01*
X168649245Y-92846984D01*
X168554007Y-92942222D01*
X168411149Y-92989841D01*
X168173054Y-92989841D01*
X169696864Y-92989841D02*
X169125435Y-92989841D01*
X169411149Y-92989841D02*
X169411149Y-91989841D01*
X169315911Y-92132698D01*
X169220673Y-92227936D01*
X169125435Y-92275555D01*
X170649245Y-92989841D02*
X170077816Y-92989841D01*
X170363530Y-92989841D02*
X170363530Y-91989841D01*
X170268292Y-92132698D01*
X170173054Y-92227936D01*
X170077816Y-92275555D01*
X168173054Y-111989841D02*
X168173054Y-110989841D01*
X168411149Y-110989841D01*
X168554007Y-111037460D01*
X168649245Y-111132698D01*
X168696864Y-111227936D01*
X168744483Y-111418412D01*
X168744483Y-111561270D01*
X168696864Y-111751746D01*
X168649245Y-111846984D01*
X168554007Y-111942222D01*
X168411149Y-111989841D01*
X168173054Y-111989841D01*
X169696864Y-111989841D02*
X169125435Y-111989841D01*
X169411149Y-111989841D02*
X169411149Y-110989841D01*
X169315911Y-111132698D01*
X169220673Y-111227936D01*
X169125435Y-111275555D01*
X170077816Y-111085079D02*
X170125435Y-111037460D01*
X170220673Y-110989841D01*
X170458769Y-110989841D01*
X170554007Y-111037460D01*
X170601626Y-111085079D01*
X170649245Y-111180317D01*
X170649245Y-111275555D01*
X170601626Y-111418412D01*
X170030197Y-111989841D01*
X170649245Y-111989841D01*
X187173054Y-73989841D02*
X187173054Y-72989841D01*
X187411149Y-72989841D01*
X187554007Y-73037460D01*
X187649245Y-73132698D01*
X187696864Y-73227936D01*
X187744483Y-73418412D01*
X187744483Y-73561270D01*
X187696864Y-73751746D01*
X187649245Y-73846984D01*
X187554007Y-73942222D01*
X187411149Y-73989841D01*
X187173054Y-73989841D01*
X188696864Y-73989841D02*
X188125435Y-73989841D01*
X188411149Y-73989841D02*
X188411149Y-72989841D01*
X188315911Y-73132698D01*
X188220673Y-73227936D01*
X188125435Y-73275555D01*
X189030197Y-72989841D02*
X189649245Y-72989841D01*
X189315911Y-73370793D01*
X189458769Y-73370793D01*
X189554007Y-73418412D01*
X189601626Y-73466031D01*
X189649245Y-73561270D01*
X189649245Y-73799365D01*
X189601626Y-73894603D01*
X189554007Y-73942222D01*
X189458769Y-73989841D01*
X189173054Y-73989841D01*
X189077816Y-73942222D01*
X189030197Y-73894603D01*
X187173054Y-92989841D02*
X187173054Y-91989841D01*
X187411149Y-91989841D01*
X187554007Y-92037460D01*
X187649245Y-92132698D01*
X187696864Y-92227936D01*
X187744483Y-92418412D01*
X187744483Y-92561270D01*
X187696864Y-92751746D01*
X187649245Y-92846984D01*
X187554007Y-92942222D01*
X187411149Y-92989841D01*
X187173054Y-92989841D01*
X188696864Y-92989841D02*
X188125435Y-92989841D01*
X188411149Y-92989841D02*
X188411149Y-91989841D01*
X188315911Y-92132698D01*
X188220673Y-92227936D01*
X188125435Y-92275555D01*
X189554007Y-92323174D02*
X189554007Y-92989841D01*
X189315911Y-91942222D02*
X189077816Y-92656508D01*
X189696864Y-92656508D01*
X187173054Y-111989841D02*
X187173054Y-110989841D01*
X187411149Y-110989841D01*
X187554007Y-111037460D01*
X187649245Y-111132698D01*
X187696864Y-111227936D01*
X187744483Y-111418412D01*
X187744483Y-111561270D01*
X187696864Y-111751746D01*
X187649245Y-111846984D01*
X187554007Y-111942222D01*
X187411149Y-111989841D01*
X187173054Y-111989841D01*
X188696864Y-111989841D02*
X188125435Y-111989841D01*
X188411149Y-111989841D02*
X188411149Y-110989841D01*
X188315911Y-111132698D01*
X188220673Y-111227936D01*
X188125435Y-111275555D01*
X189601626Y-110989841D02*
X189125435Y-110989841D01*
X189077816Y-111466031D01*
X189125435Y-111418412D01*
X189220673Y-111370793D01*
X189458769Y-111370793D01*
X189554007Y-111418412D01*
X189601626Y-111466031D01*
X189649245Y-111561270D01*
X189649245Y-111799365D01*
X189601626Y-111894603D01*
X189554007Y-111942222D01*
X189458769Y-111989841D01*
X189220673Y-111989841D01*
X189125435Y-111942222D01*
X189077816Y-111894603D01*
X204673054Y-73989841D02*
X204673054Y-72989841D01*
X204911149Y-72989841D01*
X205054007Y-73037460D01*
X205149245Y-73132698D01*
X205196864Y-73227936D01*
X205244483Y-73418412D01*
X205244483Y-73561270D01*
X205196864Y-73751746D01*
X205149245Y-73846984D01*
X205054007Y-73942222D01*
X204911149Y-73989841D01*
X204673054Y-73989841D01*
X206196864Y-73989841D02*
X205625435Y-73989841D01*
X205911149Y-73989841D02*
X205911149Y-72989841D01*
X205815911Y-73132698D01*
X205720673Y-73227936D01*
X205625435Y-73275555D01*
X207054007Y-72989841D02*
X206863530Y-72989841D01*
X206768292Y-73037460D01*
X206720673Y-73085079D01*
X206625435Y-73227936D01*
X206577816Y-73418412D01*
X206577816Y-73799365D01*
X206625435Y-73894603D01*
X206673054Y-73942222D01*
X206768292Y-73989841D01*
X206958769Y-73989841D01*
X207054007Y-73942222D01*
X207101626Y-73894603D01*
X207149245Y-73799365D01*
X207149245Y-73561270D01*
X207101626Y-73466031D01*
X207054007Y-73418412D01*
X206958769Y-73370793D01*
X206768292Y-73370793D01*
X206673054Y-73418412D01*
X206625435Y-73466031D01*
X206577816Y-73561270D01*
X206173054Y-92989841D02*
X206173054Y-91989841D01*
X206411149Y-91989841D01*
X206554007Y-92037460D01*
X206649245Y-92132698D01*
X206696864Y-92227936D01*
X206744483Y-92418412D01*
X206744483Y-92561270D01*
X206696864Y-92751746D01*
X206649245Y-92846984D01*
X206554007Y-92942222D01*
X206411149Y-92989841D01*
X206173054Y-92989841D01*
X207696864Y-92989841D02*
X207125435Y-92989841D01*
X207411149Y-92989841D02*
X207411149Y-91989841D01*
X207315911Y-92132698D01*
X207220673Y-92227936D01*
X207125435Y-92275555D01*
X208030197Y-91989841D02*
X208696864Y-91989841D01*
X208268292Y-92989841D01*
X204673054Y-111989841D02*
X204673054Y-110989841D01*
X204911149Y-110989841D01*
X205054007Y-111037460D01*
X205149245Y-111132698D01*
X205196864Y-111227936D01*
X205244483Y-111418412D01*
X205244483Y-111561270D01*
X205196864Y-111751746D01*
X205149245Y-111846984D01*
X205054007Y-111942222D01*
X204911149Y-111989841D01*
X204673054Y-111989841D01*
X206196864Y-111989841D02*
X205625435Y-111989841D01*
X205911149Y-111989841D02*
X205911149Y-110989841D01*
X205815911Y-111132698D01*
X205720673Y-111227936D01*
X205625435Y-111275555D01*
X206768292Y-111418412D02*
X206673054Y-111370793D01*
X206625435Y-111323174D01*
X206577816Y-111227936D01*
X206577816Y-111180317D01*
X206625435Y-111085079D01*
X206673054Y-111037460D01*
X206768292Y-110989841D01*
X206958769Y-110989841D01*
X207054007Y-111037460D01*
X207101626Y-111085079D01*
X207149245Y-111180317D01*
X207149245Y-111227936D01*
X207101626Y-111323174D01*
X207054007Y-111370793D01*
X206958769Y-111418412D01*
X206768292Y-111418412D01*
X206673054Y-111466031D01*
X206625435Y-111513650D01*
X206577816Y-111608889D01*
X206577816Y-111799365D01*
X206625435Y-111894603D01*
X206673054Y-111942222D01*
X206768292Y-111989841D01*
X206958769Y-111989841D01*
X207054007Y-111942222D01*
X207101626Y-111894603D01*
X207149245Y-111799365D01*
X207149245Y-111608889D01*
X207101626Y-111513650D01*
X207054007Y-111466031D01*
X206958769Y-111418412D01*
X226673054Y-73989841D02*
X226673054Y-72989841D01*
X226911149Y-72989841D01*
X227054007Y-73037460D01*
X227149245Y-73132698D01*
X227196864Y-73227936D01*
X227244483Y-73418412D01*
X227244483Y-73561270D01*
X227196864Y-73751746D01*
X227149245Y-73846984D01*
X227054007Y-73942222D01*
X226911149Y-73989841D01*
X226673054Y-73989841D01*
X228196864Y-73989841D02*
X227625435Y-73989841D01*
X227911149Y-73989841D02*
X227911149Y-72989841D01*
X227815911Y-73132698D01*
X227720673Y-73227936D01*
X227625435Y-73275555D01*
X228673054Y-73989841D02*
X228863530Y-73989841D01*
X228958769Y-73942222D01*
X229006388Y-73894603D01*
X229101626Y-73751746D01*
X229149245Y-73561270D01*
X229149245Y-73180317D01*
X229101626Y-73085079D01*
X229054007Y-73037460D01*
X228958769Y-72989841D01*
X228768292Y-72989841D01*
X228673054Y-73037460D01*
X228625435Y-73085079D01*
X228577816Y-73180317D01*
X228577816Y-73418412D01*
X228625435Y-73513650D01*
X228673054Y-73561270D01*
X228768292Y-73608889D01*
X228958769Y-73608889D01*
X229054007Y-73561270D01*
X229101626Y-73513650D01*
X229149245Y-73418412D01*
X225173054Y-92989841D02*
X225173054Y-91989841D01*
X225411149Y-91989841D01*
X225554007Y-92037460D01*
X225649245Y-92132698D01*
X225696864Y-92227936D01*
X225744483Y-92418412D01*
X225744483Y-92561270D01*
X225696864Y-92751746D01*
X225649245Y-92846984D01*
X225554007Y-92942222D01*
X225411149Y-92989841D01*
X225173054Y-92989841D01*
X226125435Y-92085079D02*
X226173054Y-92037460D01*
X226268292Y-91989841D01*
X226506388Y-91989841D01*
X226601626Y-92037460D01*
X226649245Y-92085079D01*
X226696864Y-92180317D01*
X226696864Y-92275555D01*
X226649245Y-92418412D01*
X226077816Y-92989841D01*
X226696864Y-92989841D01*
X227315911Y-91989841D02*
X227411150Y-91989841D01*
X227506388Y-92037460D01*
X227554007Y-92085079D01*
X227601626Y-92180317D01*
X227649245Y-92370793D01*
X227649245Y-92608889D01*
X227601626Y-92799365D01*
X227554007Y-92894603D01*
X227506388Y-92942222D01*
X227411150Y-92989841D01*
X227315911Y-92989841D01*
X227220673Y-92942222D01*
X227173054Y-92894603D01*
X227125435Y-92799365D01*
X227077816Y-92608889D01*
X227077816Y-92370793D01*
X227125435Y-92180317D01*
X227173054Y-92085079D01*
X227220673Y-92037460D01*
X227315911Y-91989841D01*
X226673054Y-111989841D02*
X226673054Y-110989841D01*
X226911149Y-110989841D01*
X227054007Y-111037460D01*
X227149245Y-111132698D01*
X227196864Y-111227936D01*
X227244483Y-111418412D01*
X227244483Y-111561270D01*
X227196864Y-111751746D01*
X227149245Y-111846984D01*
X227054007Y-111942222D01*
X226911149Y-111989841D01*
X226673054Y-111989841D01*
X227625435Y-111085079D02*
X227673054Y-111037460D01*
X227768292Y-110989841D01*
X228006388Y-110989841D01*
X228101626Y-111037460D01*
X228149245Y-111085079D01*
X228196864Y-111180317D01*
X228196864Y-111275555D01*
X228149245Y-111418412D01*
X227577816Y-111989841D01*
X228196864Y-111989841D01*
X229149245Y-111989841D02*
X228577816Y-111989841D01*
X228863530Y-111989841D02*
X228863530Y-110989841D01*
X228768292Y-111132698D01*
X228673054Y-111227936D01*
X228577816Y-111275555D01*
X135652381Y-92633333D02*
X136366667Y-92633333D01*
X136509524Y-92680953D01*
X136604762Y-92776191D01*
X136652381Y-92919048D01*
X136652381Y-93014286D01*
X136652381Y-91633333D02*
X136652381Y-92204762D01*
X136652381Y-91919048D02*
X135652381Y-91919048D01*
X135795238Y-92014286D01*
X135890476Y-92109524D01*
X135938095Y-92204762D01*
X105104762Y-105142857D02*
X105152381Y-105000000D01*
X105152381Y-104761904D01*
X105104762Y-104666666D01*
X105057143Y-104619047D01*
X104961905Y-104571428D01*
X104866667Y-104571428D01*
X104771429Y-104619047D01*
X104723810Y-104666666D01*
X104676190Y-104761904D01*
X104628571Y-104952381D01*
X104580952Y-105047619D01*
X104533333Y-105095238D01*
X104438095Y-105142857D01*
X104342857Y-105142857D01*
X104247619Y-105095238D01*
X104200000Y-105047619D01*
X104152381Y-104952381D01*
X104152381Y-104714285D01*
X104200000Y-104571428D01*
X104152381Y-104238095D02*
X105152381Y-104000000D01*
X104438095Y-103809523D01*
X105152381Y-103619047D01*
X104152381Y-103380952D01*
X105247619Y-103238095D02*
X105247619Y-102476190D01*
X105152381Y-101666666D02*
X104676190Y-102000000D01*
X105152381Y-102238095D02*
X104152381Y-102238095D01*
X104152381Y-101857142D01*
X104200000Y-101761904D01*
X104247619Y-101714285D01*
X104342857Y-101666666D01*
X104485714Y-101666666D01*
X104580952Y-101714285D01*
X104628571Y-101761904D01*
X104676190Y-101857142D01*
X104676190Y-102238095D01*
X104628571Y-101238095D02*
X104628571Y-100904761D01*
X105152381Y-100761904D02*
X105152381Y-101238095D01*
X104152381Y-101238095D01*
X104152381Y-100761904D01*
X105104762Y-100380952D02*
X105152381Y-100238095D01*
X105152381Y-99999999D01*
X105104762Y-99904761D01*
X105057143Y-99857142D01*
X104961905Y-99809523D01*
X104866667Y-99809523D01*
X104771429Y-99857142D01*
X104723810Y-99904761D01*
X104676190Y-99999999D01*
X104628571Y-100190476D01*
X104580952Y-100285714D01*
X104533333Y-100333333D01*
X104438095Y-100380952D01*
X104342857Y-100380952D01*
X104247619Y-100333333D01*
X104200000Y-100285714D01*
X104152381Y-100190476D01*
X104152381Y-99952380D01*
X104200000Y-99809523D01*
X105152381Y-98857142D02*
X105152381Y-99428571D01*
X105152381Y-99142857D02*
X104152381Y-99142857D01*
X104295238Y-99238095D01*
X104390476Y-99333333D01*
X104438095Y-99428571D01*
%LPC*%
D12*
X216500000Y-109500000D03*
X140500000Y-72000000D03*
X216500000Y-71500000D03*
X121500000Y-110000000D03*
D13*
X117160000Y-127997460D03*
D14*
X107000000Y-127997460D03*
D15*
X110300000Y-128000000D03*
X113700000Y-128000000D03*
D13*
X134660000Y-70997460D03*
D14*
X124500000Y-70997460D03*
D15*
X127800000Y-71000000D03*
X131200000Y-71000000D03*
D13*
X136160000Y-89997460D03*
D14*
X126000000Y-89997460D03*
D15*
X129300000Y-90000000D03*
X132700000Y-90000000D03*
D13*
X137660000Y-108997460D03*
D14*
X127500000Y-108997460D03*
D15*
X130800000Y-109000000D03*
X134200000Y-109000000D03*
D13*
X136160000Y-127997460D03*
D14*
X126000000Y-127997460D03*
D15*
X129300000Y-128000000D03*
X132700000Y-128000000D03*
D13*
X156660000Y-70997460D03*
D14*
X146500000Y-70997460D03*
D15*
X149800000Y-71000000D03*
X153200000Y-71000000D03*
D13*
X155160000Y-89997460D03*
D14*
X145000000Y-89997460D03*
D15*
X148300000Y-90000000D03*
X151700000Y-90000000D03*
D13*
X155160000Y-108997460D03*
D14*
X145000000Y-108997460D03*
D15*
X148300000Y-109000000D03*
X151700000Y-109000000D03*
D13*
X154660000Y-127997460D03*
D14*
X144500000Y-127997460D03*
D15*
X147800000Y-128000000D03*
X151200000Y-128000000D03*
D13*
X174160000Y-70997460D03*
D14*
X164000000Y-70997460D03*
D15*
X167300000Y-71000000D03*
X170700000Y-71000000D03*
D13*
X174160000Y-89997460D03*
D14*
X164000000Y-89997460D03*
D15*
X167300000Y-90000000D03*
X170700000Y-90000000D03*
D13*
X174160000Y-108997460D03*
D14*
X164000000Y-108997460D03*
D15*
X167300000Y-109000000D03*
X170700000Y-109000000D03*
D13*
X193160000Y-70997460D03*
D14*
X183000000Y-70997460D03*
D15*
X186300000Y-71000000D03*
X189700000Y-71000000D03*
D13*
X193160000Y-89997460D03*
D14*
X183000000Y-89997460D03*
D15*
X186300000Y-90000000D03*
X189700000Y-90000000D03*
D13*
X193160000Y-108997460D03*
D14*
X183000000Y-108997460D03*
D15*
X186300000Y-109000000D03*
X189700000Y-109000000D03*
D13*
X210660000Y-70997460D03*
D14*
X200500000Y-70997460D03*
D15*
X203800000Y-71000000D03*
X207200000Y-71000000D03*
D13*
X212160000Y-89997460D03*
D14*
X202000000Y-89997460D03*
D15*
X205300000Y-90000000D03*
X208700000Y-90000000D03*
D13*
X210660000Y-108997460D03*
D14*
X200500000Y-108997460D03*
D15*
X203800000Y-109000000D03*
X207200000Y-109000000D03*
D13*
X232660000Y-70997460D03*
D14*
X222500000Y-70997460D03*
D15*
X225800000Y-71000000D03*
X229200000Y-71000000D03*
D13*
X231160000Y-89997460D03*
D14*
X221000000Y-89997460D03*
D15*
X224300000Y-90000000D03*
X227700000Y-90000000D03*
D13*
X232660000Y-108997460D03*
D14*
X222500000Y-108997460D03*
D15*
X225800000Y-109000000D03*
X229200000Y-109000000D03*
D16*
X110200000Y-90250000D03*
X111300000Y-94850000D03*
D17*
X109000000Y-92550000D03*
X102000000Y-92550000D03*
X102000000Y-87950000D03*
X109000000Y-87950000D03*
D16*
X111300000Y-85650000D03*
X103200000Y-90250000D03*
X106200000Y-90250000D03*
X110200000Y-90250000D03*
D18*
X108190000Y-116460000D03*
D19*
X112000000Y-119000000D03*
D20*
X106920000Y-119000000D03*
X117080000Y-119000000D03*
D18*
X115810000Y-116460000D03*
X114500000Y-115000000D03*
X109500000Y-115000000D03*
X109460000Y-113920000D03*
X114540000Y-113920000D03*
X114500000Y-114500000D03*
X109500000Y-114500000D03*
X127190000Y-59460000D03*
D19*
X131000000Y-62000000D03*
D20*
X125920000Y-62000000D03*
X136080000Y-62000000D03*
D18*
X134810000Y-59460000D03*
X133500000Y-58000000D03*
X128500000Y-58000000D03*
X128460000Y-56920000D03*
X133540000Y-56920000D03*
X133500000Y-57500000D03*
X128500000Y-57500000D03*
X127190000Y-78460000D03*
D19*
X131000000Y-81000000D03*
D20*
X125920000Y-81000000D03*
X136080000Y-81000000D03*
D18*
X134810000Y-78460000D03*
X133500000Y-77000000D03*
X128500000Y-77000000D03*
X128460000Y-75920000D03*
X133540000Y-75920000D03*
X133500000Y-76500000D03*
X128500000Y-76500000D03*
X127190000Y-97460000D03*
D19*
X131000000Y-100000000D03*
D20*
X125920000Y-100000000D03*
X136080000Y-100000000D03*
D18*
X134810000Y-97460000D03*
X133500000Y-96000000D03*
X128500000Y-96000000D03*
X128460000Y-94920000D03*
X133540000Y-94920000D03*
X133500000Y-95500000D03*
X128500000Y-95500000D03*
X127190000Y-116460000D03*
D19*
X131000000Y-119000000D03*
D20*
X125920000Y-119000000D03*
X136080000Y-119000000D03*
D18*
X134810000Y-116460000D03*
X133500000Y-115000000D03*
X128500000Y-115000000D03*
X128460000Y-113920000D03*
X133540000Y-113920000D03*
X133500000Y-114500000D03*
X128500000Y-114500000D03*
X146190000Y-59460000D03*
D19*
X150000000Y-62000000D03*
D20*
X144920000Y-62000000D03*
X155080000Y-62000000D03*
D18*
X153810000Y-59460000D03*
X152500000Y-58000000D03*
X147500000Y-58000000D03*
X147460000Y-56920000D03*
X152540000Y-56920000D03*
X152500000Y-57500000D03*
X147500000Y-57500000D03*
X146190000Y-78460000D03*
D19*
X150000000Y-81000000D03*
D20*
X144920000Y-81000000D03*
X155080000Y-81000000D03*
D18*
X153810000Y-78460000D03*
X152500000Y-77000000D03*
X147500000Y-77000000D03*
X147460000Y-75920000D03*
X152540000Y-75920000D03*
X152500000Y-76500000D03*
X147500000Y-76500000D03*
X146190000Y-97460000D03*
D19*
X150000000Y-100000000D03*
D20*
X144920000Y-100000000D03*
X155080000Y-100000000D03*
D18*
X153810000Y-97460000D03*
X152500000Y-96000000D03*
X147500000Y-96000000D03*
X147460000Y-94920000D03*
X152540000Y-94920000D03*
X152500000Y-95500000D03*
X147500000Y-95500000D03*
X146190000Y-116460000D03*
D19*
X150000000Y-119000000D03*
D20*
X144920000Y-119000000D03*
X155080000Y-119000000D03*
D18*
X153810000Y-116460000D03*
X152500000Y-115000000D03*
X147500000Y-115000000D03*
X147460000Y-113920000D03*
X152540000Y-113920000D03*
X152500000Y-114500000D03*
X147500000Y-114500000D03*
X165190000Y-59460000D03*
D19*
X169000000Y-62000000D03*
D20*
X163920000Y-62000000D03*
X174080000Y-62000000D03*
D18*
X172810000Y-59460000D03*
X171500000Y-58000000D03*
X166500000Y-58000000D03*
X166460000Y-56920000D03*
X171540000Y-56920000D03*
X171500000Y-57500000D03*
X166500000Y-57500000D03*
X165190000Y-78460000D03*
D19*
X169000000Y-81000000D03*
D20*
X163920000Y-81000000D03*
X174080000Y-81000000D03*
D18*
X172810000Y-78460000D03*
X171500000Y-77000000D03*
X166500000Y-77000000D03*
X166460000Y-75920000D03*
X171540000Y-75920000D03*
X171500000Y-76500000D03*
X166500000Y-76500000D03*
X165190000Y-97460000D03*
D19*
X169000000Y-100000000D03*
D20*
X163920000Y-100000000D03*
X174080000Y-100000000D03*
D18*
X172810000Y-97460000D03*
X171500000Y-96000000D03*
X166500000Y-96000000D03*
X166460000Y-94920000D03*
X171540000Y-94920000D03*
X171500000Y-95500000D03*
X166500000Y-95500000D03*
X184190000Y-59460000D03*
D19*
X188000000Y-62000000D03*
D20*
X182920000Y-62000000D03*
X193080000Y-62000000D03*
D18*
X191810000Y-59460000D03*
X190500000Y-58000000D03*
X185500000Y-58000000D03*
X185460000Y-56920000D03*
X190540000Y-56920000D03*
X190500000Y-57500000D03*
X185500000Y-57500000D03*
X184190000Y-78460000D03*
D19*
X188000000Y-81000000D03*
D20*
X182920000Y-81000000D03*
X193080000Y-81000000D03*
D18*
X191810000Y-78460000D03*
X190500000Y-77000000D03*
X185500000Y-77000000D03*
X185460000Y-75920000D03*
X190540000Y-75920000D03*
X190500000Y-76500000D03*
X185500000Y-76500000D03*
X184190000Y-97460000D03*
D19*
X188000000Y-100000000D03*
D20*
X182920000Y-100000000D03*
X193080000Y-100000000D03*
D18*
X191810000Y-97460000D03*
X190500000Y-96000000D03*
X185500000Y-96000000D03*
X185460000Y-94920000D03*
X190540000Y-94920000D03*
X190500000Y-95500000D03*
X185500000Y-95500000D03*
X203190000Y-59460000D03*
D19*
X207000000Y-62000000D03*
D20*
X201920000Y-62000000D03*
X212080000Y-62000000D03*
D18*
X210810000Y-59460000D03*
X209500000Y-58000000D03*
X204500000Y-58000000D03*
X204460000Y-56920000D03*
X209540000Y-56920000D03*
X209500000Y-57500000D03*
X204500000Y-57500000D03*
X203190000Y-78460000D03*
D19*
X207000000Y-81000000D03*
D20*
X201920000Y-81000000D03*
X212080000Y-81000000D03*
D18*
X210810000Y-78460000D03*
X209500000Y-77000000D03*
X204500000Y-77000000D03*
X204460000Y-75920000D03*
X209540000Y-75920000D03*
X209500000Y-76500000D03*
X204500000Y-76500000D03*
X203190000Y-97460000D03*
D19*
X207000000Y-100000000D03*
D20*
X201920000Y-100000000D03*
X212080000Y-100000000D03*
D18*
X210810000Y-97460000D03*
X209500000Y-96000000D03*
X204500000Y-96000000D03*
X204460000Y-94920000D03*
X209540000Y-94920000D03*
X209500000Y-95500000D03*
X204500000Y-95500000D03*
X222190000Y-59460000D03*
D19*
X226000000Y-62000000D03*
D20*
X220920000Y-62000000D03*
X231080000Y-62000000D03*
D18*
X229810000Y-59460000D03*
X228500000Y-58000000D03*
X223500000Y-58000000D03*
X223460000Y-56920000D03*
X228540000Y-56920000D03*
X228500000Y-57500000D03*
X223500000Y-57500000D03*
X222190000Y-78460000D03*
D19*
X226000000Y-81000000D03*
D20*
X220920000Y-81000000D03*
X231080000Y-81000000D03*
D18*
X229810000Y-78460000D03*
X228500000Y-77000000D03*
X223500000Y-77000000D03*
X223460000Y-75920000D03*
X228540000Y-75920000D03*
X228500000Y-76500000D03*
X223500000Y-76500000D03*
X222190000Y-97460000D03*
D19*
X226000000Y-100000000D03*
D20*
X220920000Y-100000000D03*
X231080000Y-100000000D03*
D18*
X229810000Y-97460000D03*
X228500000Y-96000000D03*
X223500000Y-96000000D03*
X223460000Y-94920000D03*
X228540000Y-94920000D03*
X228500000Y-95500000D03*
X223500000Y-95500000D03*
D21*
X102250000Y-105600000D03*
X102250000Y-98400000D03*
D22*
X102380000Y-52030000D03*
D23*
X102380000Y-54570000D03*
X102380000Y-57110000D03*
X102380000Y-59650000D03*
X102380000Y-62190000D03*
X102380000Y-64730000D03*
X102380000Y-67270000D03*
X102380000Y-69810000D03*
X102380000Y-72350000D03*
X102380000Y-74890000D03*
X102380000Y-77430000D03*
X102380000Y-79970000D03*
X117620000Y-79970000D03*
X117620000Y-77430000D03*
X117620000Y-74890000D03*
X117620000Y-72350000D03*
X117620000Y-69810000D03*
X117620000Y-67270000D03*
X117620000Y-64730000D03*
X117620000Y-62190000D03*
X117620000Y-59650000D03*
X117620000Y-57110000D03*
X117620000Y-54570000D03*
X117620000Y-52030000D03*
M02*
