G04 #@! TF.FileFunction,Profile,NP*
%FSLAX46Y46*%
G04 Gerber Fmt 4.6, Leading zero omitted, Abs format (unit mm)*
G04 Created by KiCad (PCBNEW 4.0.7) date *
%MOMM*%
%LPD*%
G01*
G04 APERTURE LIST*
%ADD10C,0.100000*%
%ADD11C,0.200000*%
G04 APERTURE END LIST*
D10*
D11*
X101666666Y-130000000D02*
G75*
G03X101666666Y-130000000I-1666666J0D01*
G01*
X97500000Y-130000000D02*
X102500000Y-130000000D01*
X100000000Y-127500000D02*
X100000000Y-132500000D01*
X101000000Y-130000000D02*
X155500000Y-130000000D01*
X157500000Y-130000000D02*
X231000000Y-130000000D01*
X231000000Y-55000000D02*
X101000000Y-55000000D01*
X232000000Y-111500000D02*
X232000000Y-56000000D01*
X232000000Y-113500000D02*
X232000000Y-129000000D01*
X226000000Y-113000000D02*
X231500000Y-113000000D01*
X231500000Y-112000000D02*
X226000000Y-112000000D01*
X156500000Y-112000000D02*
X165000000Y-112000000D01*
X165000000Y-113000000D02*
X157500000Y-113000000D01*
X184000000Y-113000000D02*
X169000000Y-113000000D01*
X203000000Y-113000000D02*
X188000000Y-113000000D01*
X188000000Y-112000000D02*
X203000000Y-112000000D01*
X222000000Y-113000000D02*
X207000000Y-113000000D01*
X207000000Y-112000000D02*
X222000000Y-112000000D01*
X169000000Y-112000000D02*
X184000000Y-112000000D01*
X165000000Y-113000000D02*
G75*
G03X165500000Y-112500000I0J500000D01*
G01*
X165500000Y-112500000D02*
G75*
G03X165000000Y-112000000I-500000J0D01*
G01*
X168500000Y-112500000D02*
G75*
G03X169000000Y-113000000I500000J0D01*
G01*
X169000000Y-112000000D02*
G75*
G03X168500000Y-112500000I0J-500000D01*
G01*
X184000000Y-113000000D02*
G75*
G03X184500000Y-112500000I0J500000D01*
G01*
X184500000Y-112500000D02*
G75*
G03X184000000Y-112000000I-500000J0D01*
G01*
X187500000Y-112500000D02*
G75*
G03X188000000Y-113000000I500000J0D01*
G01*
X188000000Y-112000000D02*
G75*
G03X187500000Y-112500000I0J-500000D01*
G01*
X203000000Y-113000000D02*
G75*
G03X203500000Y-112500000I0J500000D01*
G01*
X203500000Y-112500000D02*
G75*
G03X203000000Y-112000000I-500000J0D01*
G01*
X206500000Y-112500000D02*
G75*
G03X207000000Y-113000000I500000J0D01*
G01*
X207000000Y-112000000D02*
G75*
G03X206500000Y-112500000I0J-500000D01*
G01*
X222000000Y-113000000D02*
G75*
G03X222500000Y-112500000I0J500000D01*
G01*
X222500000Y-112500000D02*
G75*
G03X222000000Y-112000000I-500000J0D01*
G01*
X225500000Y-112500000D02*
G75*
G03X226000000Y-113000000I500000J0D01*
G01*
X226000000Y-112000000D02*
G75*
G03X225500000Y-112500000I0J-500000D01*
G01*
X157000000Y-113500000D02*
X157000000Y-129500000D01*
X156000000Y-112500000D02*
X156000000Y-129500000D01*
X155500000Y-130000000D02*
G75*
G03X156000000Y-129500000I0J500000D01*
G01*
X157000000Y-129500000D02*
G75*
G03X157500000Y-130000000I500000J0D01*
G01*
X156500000Y-112000000D02*
G75*
G03X156000000Y-112500000I0J-500000D01*
G01*
X157500000Y-113000000D02*
G75*
G03X157000000Y-113500000I0J-500000D01*
G01*
X231500000Y-112000000D02*
G75*
G03X232000000Y-111500000I0J500000D01*
G01*
X232000000Y-113500000D02*
G75*
G03X231500000Y-113000000I-500000J0D01*
G01*
X231000000Y-130000000D02*
G75*
G03X232000000Y-129000000I0J1000000D01*
G01*
X232000000Y-56000000D02*
G75*
G03X231000000Y-55000000I-1000000J0D01*
G01*
X100000000Y-56000000D02*
X100000000Y-129000000D01*
X101000000Y-55000000D02*
G75*
G03X100000000Y-56000000I0J-1000000D01*
G01*
X100000000Y-129000000D02*
G75*
G03X101000000Y-130000000I1000000J0D01*
G01*
M02*
