G04 #@! TF.FileFunction,Soldermask,Top*
%FSLAX46Y46*%
G04 Gerber Fmt 4.6, Leading zero omitted, Abs format (unit mm)*
G04 Created by KiCad (PCBNEW 4.0.7) date *
%MOMM*%
%LPD*%
G01*
G04 APERTURE LIST*
%ADD10C,0.100000*%
%ADD11R,1.624000X1.624000*%
%ADD12O,2.600000X1.900000*%
%ADD13C,1.400000*%
%ADD14O,3.100000X2.400000*%
%ADD15C,1.900000*%
%ADD16C,1.751000*%
%ADD17C,5.100000*%
%ADD18C,2.300000*%
%ADD19C,1.100000*%
%ADD20O,1.600000X2.600000*%
%ADD21C,1.300000*%
%ADD22C,2.200000*%
%ADD23C,1.600000*%
%ADD24C,4.100000*%
%ADD25C,2.010000*%
%ADD26C,2.800000*%
%ADD27R,1.600000X1.900000*%
%ADD28C,2.098980*%
%ADD29R,2.098980X2.098980*%
%ADD30R,1.900000X1.600000*%
G04 APERTURE END LIST*
D10*
D11*
X117600000Y-103600000D03*
X117600000Y-101600000D03*
D12*
X107800000Y-97550000D03*
X104800000Y-97550000D03*
X111800000Y-97550000D03*
X112900000Y-92950000D03*
D13*
X110600000Y-95250000D03*
X103600000Y-95250000D03*
X103600000Y-93350000D03*
X110600000Y-93350000D03*
D12*
X112900000Y-95650000D03*
X111800000Y-91050000D03*
X104800000Y-91050000D03*
D14*
X107800000Y-91050000D03*
D15*
X103410000Y-88430000D03*
X103410000Y-85890000D03*
X103410000Y-83350000D03*
X103410000Y-80810000D03*
X103410000Y-78270000D03*
X103410000Y-75730000D03*
X103410000Y-73190000D03*
X103380000Y-70650000D03*
X103380000Y-68110000D03*
X103380000Y-65570000D03*
X103380000Y-63030000D03*
X103380000Y-60490000D03*
X118620000Y-60430000D03*
X118620000Y-62970000D03*
X118620000Y-65510000D03*
X118620000Y-68050000D03*
X118620000Y-70590000D03*
X118650000Y-73130000D03*
X118650000Y-75670000D03*
X118650000Y-78210000D03*
X118650000Y-80750000D03*
X118650000Y-83290000D03*
X118650000Y-85830000D03*
X118650000Y-88370000D03*
D14*
X101750000Y-99700000D03*
X101750000Y-106900000D03*
D16*
X115080000Y-104200000D03*
X104920000Y-104200000D03*
X115080000Y-101200000D03*
X104920000Y-101200000D03*
D17*
X139000000Y-74500000D03*
X139000000Y-112500000D03*
X215000000Y-74500000D03*
X215000000Y-112500000D03*
D15*
X116590000Y-87030000D03*
X116590000Y-84490000D03*
X116590000Y-81950000D03*
X116590000Y-79410000D03*
X116590000Y-76870000D03*
X116590000Y-74330000D03*
X116590000Y-71790000D03*
X116620000Y-69250000D03*
X116620000Y-66710000D03*
X116620000Y-64170000D03*
X116620000Y-61630000D03*
X116620000Y-59090000D03*
X101380000Y-59030000D03*
X101380000Y-61570000D03*
X101380000Y-64110000D03*
X101380000Y-66650000D03*
X101380000Y-69190000D03*
X101350000Y-71730000D03*
X101350000Y-74270000D03*
X101350000Y-76810000D03*
X101350000Y-79350000D03*
X101350000Y-81890000D03*
X101350000Y-84430000D03*
X101350000Y-86970000D03*
D18*
X102500000Y-110500000D03*
X118500000Y-110500000D03*
D19*
X134720000Y-69200000D03*
D20*
X129500000Y-59100000D03*
D21*
X134246447Y-60746447D02*
X134953553Y-61453553D01*
X124046447Y-61453553D02*
X124753553Y-60746447D01*
D22*
X135000000Y-65000000D03*
X124000000Y-65000000D03*
D23*
X125230381Y-62919619D02*
X126149619Y-62000381D01*
D24*
X129500000Y-65000000D03*
D25*
X124420000Y-65000000D03*
X134580000Y-65000000D03*
D23*
X132850381Y-62000381D02*
X133769619Y-62919619D01*
D26*
X126960000Y-59920000D03*
X132040000Y-59920000D03*
D19*
X124280000Y-69200000D03*
X229220000Y-126200000D03*
D20*
X224000000Y-116100000D03*
D21*
X228746447Y-117746447D02*
X229453553Y-118453553D01*
X218546447Y-118453553D02*
X219253553Y-117746447D01*
D22*
X229500000Y-122000000D03*
X218500000Y-122000000D03*
D23*
X219730381Y-119919619D02*
X220649619Y-119000381D01*
D24*
X224000000Y-122000000D03*
D25*
X218920000Y-122000000D03*
X229080000Y-122000000D03*
D23*
X227350381Y-119000381D02*
X228269619Y-119919619D01*
D26*
X221460000Y-116920000D03*
X226540000Y-116920000D03*
D19*
X218780000Y-126200000D03*
X210220000Y-126200000D03*
D20*
X205000000Y-116100000D03*
D21*
X209746447Y-117746447D02*
X210453553Y-118453553D01*
X199546447Y-118453553D02*
X200253553Y-117746447D01*
D22*
X210500000Y-122000000D03*
X199500000Y-122000000D03*
D23*
X200730381Y-119919619D02*
X201649619Y-119000381D01*
D24*
X205000000Y-122000000D03*
D25*
X199920000Y-122000000D03*
X210080000Y-122000000D03*
D23*
X208350381Y-119000381D02*
X209269619Y-119919619D01*
D26*
X202460000Y-116920000D03*
X207540000Y-116920000D03*
D19*
X199780000Y-126200000D03*
X191220000Y-126200000D03*
D20*
X186000000Y-116100000D03*
D21*
X190746447Y-117746447D02*
X191453553Y-118453553D01*
X180546447Y-118453553D02*
X181253553Y-117746447D01*
D22*
X191500000Y-122000000D03*
X180500000Y-122000000D03*
D23*
X181730381Y-119919619D02*
X182649619Y-119000381D01*
D24*
X186000000Y-122000000D03*
D25*
X180920000Y-122000000D03*
X191080000Y-122000000D03*
D23*
X189350381Y-119000381D02*
X190269619Y-119919619D01*
D26*
X183460000Y-116920000D03*
X188540000Y-116920000D03*
D19*
X180780000Y-126200000D03*
X172220000Y-126200000D03*
D20*
X167000000Y-116100000D03*
D21*
X171746447Y-117746447D02*
X172453553Y-118453553D01*
X161546447Y-118453553D02*
X162253553Y-117746447D01*
D22*
X172500000Y-122000000D03*
X161500000Y-122000000D03*
D23*
X162730381Y-119919619D02*
X163649619Y-119000381D01*
D24*
X167000000Y-122000000D03*
D25*
X161920000Y-122000000D03*
X172080000Y-122000000D03*
D23*
X170350381Y-119000381D02*
X171269619Y-119919619D01*
D26*
X164460000Y-116920000D03*
X169540000Y-116920000D03*
D19*
X161780000Y-126200000D03*
X153720000Y-126200000D03*
D20*
X148500000Y-116100000D03*
D21*
X153246447Y-117746447D02*
X153953553Y-118453553D01*
X143046447Y-118453553D02*
X143753553Y-117746447D01*
D22*
X154000000Y-122000000D03*
X143000000Y-122000000D03*
D23*
X144230381Y-119919619D02*
X145149619Y-119000381D01*
D24*
X148500000Y-122000000D03*
D25*
X143420000Y-122000000D03*
X153580000Y-122000000D03*
D23*
X151850381Y-119000381D02*
X152769619Y-119919619D01*
D26*
X145960000Y-116920000D03*
X151040000Y-116920000D03*
D19*
X143280000Y-126200000D03*
X134720000Y-126200000D03*
D20*
X129500000Y-116100000D03*
D21*
X134246447Y-117746447D02*
X134953553Y-118453553D01*
X124046447Y-118453553D02*
X124753553Y-117746447D01*
D22*
X135000000Y-122000000D03*
X124000000Y-122000000D03*
D23*
X125230381Y-119919619D02*
X126149619Y-119000381D01*
D24*
X129500000Y-122000000D03*
D25*
X124420000Y-122000000D03*
X134580000Y-122000000D03*
D23*
X132850381Y-119000381D02*
X133769619Y-119919619D01*
D26*
X126960000Y-116920000D03*
X132040000Y-116920000D03*
D19*
X124280000Y-126200000D03*
X115720000Y-126200000D03*
D20*
X110500000Y-116100000D03*
D21*
X115246447Y-117746447D02*
X115953553Y-118453553D01*
X105046447Y-118453553D02*
X105753553Y-117746447D01*
D22*
X116000000Y-122000000D03*
X105000000Y-122000000D03*
D23*
X106230381Y-119919619D02*
X107149619Y-119000381D01*
D24*
X110500000Y-122000000D03*
D25*
X105420000Y-122000000D03*
X115580000Y-122000000D03*
D23*
X113850381Y-119000381D02*
X114769619Y-119919619D01*
D26*
X107960000Y-116920000D03*
X113040000Y-116920000D03*
D19*
X105280000Y-126200000D03*
X229720000Y-107200000D03*
D20*
X224500000Y-97100000D03*
D21*
X229246447Y-98746447D02*
X229953553Y-99453553D01*
X219046447Y-99453553D02*
X219753553Y-98746447D01*
D22*
X230000000Y-103000000D03*
X219000000Y-103000000D03*
D23*
X220230381Y-100919619D02*
X221149619Y-100000381D01*
D24*
X224500000Y-103000000D03*
D25*
X219420000Y-103000000D03*
X229580000Y-103000000D03*
D23*
X227850381Y-100000381D02*
X228769619Y-100919619D01*
D26*
X221960000Y-97920000D03*
X227040000Y-97920000D03*
D19*
X219280000Y-107200000D03*
X210720000Y-107200000D03*
D20*
X205500000Y-97100000D03*
D21*
X210246447Y-98746447D02*
X210953553Y-99453553D01*
X200046447Y-99453553D02*
X200753553Y-98746447D01*
D22*
X211000000Y-103000000D03*
X200000000Y-103000000D03*
D23*
X201230381Y-100919619D02*
X202149619Y-100000381D01*
D24*
X205500000Y-103000000D03*
D25*
X200420000Y-103000000D03*
X210580000Y-103000000D03*
D23*
X208850381Y-100000381D02*
X209769619Y-100919619D01*
D26*
X202960000Y-97920000D03*
X208040000Y-97920000D03*
D19*
X200280000Y-107200000D03*
X191720000Y-107200000D03*
D20*
X186500000Y-97100000D03*
D21*
X191246447Y-98746447D02*
X191953553Y-99453553D01*
X181046447Y-99453553D02*
X181753553Y-98746447D01*
D22*
X192000000Y-103000000D03*
X181000000Y-103000000D03*
D23*
X182230381Y-100919619D02*
X183149619Y-100000381D01*
D24*
X186500000Y-103000000D03*
D25*
X181420000Y-103000000D03*
X191580000Y-103000000D03*
D23*
X189850381Y-100000381D02*
X190769619Y-100919619D01*
D26*
X183960000Y-97920000D03*
X189040000Y-97920000D03*
D19*
X181280000Y-107200000D03*
X172720000Y-107200000D03*
D20*
X167500000Y-97100000D03*
D21*
X172246447Y-98746447D02*
X172953553Y-99453553D01*
X162046447Y-99453553D02*
X162753553Y-98746447D01*
D22*
X173000000Y-103000000D03*
X162000000Y-103000000D03*
D23*
X163230381Y-100919619D02*
X164149619Y-100000381D01*
D24*
X167500000Y-103000000D03*
D25*
X162420000Y-103000000D03*
X172580000Y-103000000D03*
D23*
X170850381Y-100000381D02*
X171769619Y-100919619D01*
D26*
X164960000Y-97920000D03*
X170040000Y-97920000D03*
D19*
X162280000Y-107200000D03*
X153720000Y-107200000D03*
D20*
X148500000Y-97100000D03*
D21*
X153246447Y-98746447D02*
X153953553Y-99453553D01*
X143046447Y-99453553D02*
X143753553Y-98746447D01*
D22*
X154000000Y-103000000D03*
X143000000Y-103000000D03*
D23*
X144230381Y-100919619D02*
X145149619Y-100000381D01*
D24*
X148500000Y-103000000D03*
D25*
X143420000Y-103000000D03*
X153580000Y-103000000D03*
D23*
X151850381Y-100000381D02*
X152769619Y-100919619D01*
D26*
X145960000Y-97920000D03*
X151040000Y-97920000D03*
D19*
X143280000Y-107200000D03*
X134720000Y-107200000D03*
D20*
X129500000Y-97100000D03*
D21*
X134246447Y-98746447D02*
X134953553Y-99453553D01*
X124046447Y-99453553D02*
X124753553Y-98746447D01*
D22*
X135000000Y-103000000D03*
X124000000Y-103000000D03*
D23*
X125230381Y-100919619D02*
X126149619Y-100000381D01*
D24*
X129500000Y-103000000D03*
D25*
X124420000Y-103000000D03*
X134580000Y-103000000D03*
D23*
X132850381Y-100000381D02*
X133769619Y-100919619D01*
D26*
X126960000Y-97920000D03*
X132040000Y-97920000D03*
D19*
X124280000Y-107200000D03*
X229720000Y-88200000D03*
D20*
X224500000Y-78100000D03*
D21*
X229246447Y-79746447D02*
X229953553Y-80453553D01*
X219046447Y-80453553D02*
X219753553Y-79746447D01*
D22*
X230000000Y-84000000D03*
X219000000Y-84000000D03*
D23*
X220230381Y-81919619D02*
X221149619Y-81000381D01*
D24*
X224500000Y-84000000D03*
D25*
X219420000Y-84000000D03*
X229580000Y-84000000D03*
D23*
X227850381Y-81000381D02*
X228769619Y-81919619D01*
D26*
X221960000Y-78920000D03*
X227040000Y-78920000D03*
D19*
X219280000Y-88200000D03*
X210720000Y-88200000D03*
D20*
X205500000Y-78100000D03*
D21*
X210246447Y-79746447D02*
X210953553Y-80453553D01*
X200046447Y-80453553D02*
X200753553Y-79746447D01*
D22*
X211000000Y-84000000D03*
X200000000Y-84000000D03*
D23*
X201230381Y-81919619D02*
X202149619Y-81000381D01*
D24*
X205500000Y-84000000D03*
D25*
X200420000Y-84000000D03*
X210580000Y-84000000D03*
D23*
X208850381Y-81000381D02*
X209769619Y-81919619D01*
D26*
X202960000Y-78920000D03*
X208040000Y-78920000D03*
D19*
X200280000Y-88200000D03*
X191720000Y-88200000D03*
D20*
X186500000Y-78100000D03*
D21*
X191246447Y-79746447D02*
X191953553Y-80453553D01*
X181046447Y-80453553D02*
X181753553Y-79746447D01*
D22*
X192000000Y-84000000D03*
X181000000Y-84000000D03*
D23*
X182230381Y-81919619D02*
X183149619Y-81000381D01*
D24*
X186500000Y-84000000D03*
D25*
X181420000Y-84000000D03*
X191580000Y-84000000D03*
D23*
X189850381Y-81000381D02*
X190769619Y-81919619D01*
D26*
X183960000Y-78920000D03*
X189040000Y-78920000D03*
D19*
X181280000Y-88200000D03*
X172720000Y-88200000D03*
D20*
X167500000Y-78100000D03*
D21*
X172246447Y-79746447D02*
X172953553Y-80453553D01*
X162046447Y-80453553D02*
X162753553Y-79746447D01*
D22*
X173000000Y-84000000D03*
X162000000Y-84000000D03*
D23*
X163230381Y-81919619D02*
X164149619Y-81000381D01*
D24*
X167500000Y-84000000D03*
D25*
X162420000Y-84000000D03*
X172580000Y-84000000D03*
D23*
X170850381Y-81000381D02*
X171769619Y-81919619D01*
D26*
X164960000Y-78920000D03*
X170040000Y-78920000D03*
D19*
X162280000Y-88200000D03*
X153720000Y-88200000D03*
D20*
X148500000Y-78100000D03*
D21*
X153246447Y-79746447D02*
X153953553Y-80453553D01*
X143046447Y-80453553D02*
X143753553Y-79746447D01*
D22*
X154000000Y-84000000D03*
X143000000Y-84000000D03*
D23*
X144230381Y-81919619D02*
X145149619Y-81000381D01*
D24*
X148500000Y-84000000D03*
D25*
X143420000Y-84000000D03*
X153580000Y-84000000D03*
D23*
X151850381Y-81000381D02*
X152769619Y-81919619D01*
D26*
X145960000Y-78920000D03*
X151040000Y-78920000D03*
D19*
X143280000Y-88200000D03*
X134720000Y-88200000D03*
D20*
X129500000Y-78100000D03*
D21*
X134246447Y-79746447D02*
X134953553Y-80453553D01*
X124046447Y-80453553D02*
X124753553Y-79746447D01*
D22*
X135000000Y-84000000D03*
X124000000Y-84000000D03*
D23*
X125230381Y-81919619D02*
X126149619Y-81000381D01*
D24*
X129500000Y-84000000D03*
D25*
X124420000Y-84000000D03*
X134580000Y-84000000D03*
D23*
X132850381Y-81000381D02*
X133769619Y-81919619D01*
D26*
X126960000Y-78920000D03*
X132040000Y-78920000D03*
D19*
X124280000Y-88200000D03*
X210720000Y-69200000D03*
D20*
X205500000Y-59100000D03*
D21*
X210246447Y-60746447D02*
X210953553Y-61453553D01*
X200046447Y-61453553D02*
X200753553Y-60746447D01*
D22*
X211000000Y-65000000D03*
X200000000Y-65000000D03*
D23*
X201230381Y-62919619D02*
X202149619Y-62000381D01*
D24*
X205500000Y-65000000D03*
D25*
X200420000Y-65000000D03*
X210580000Y-65000000D03*
D23*
X208850381Y-62000381D02*
X209769619Y-62919619D01*
D26*
X202960000Y-59920000D03*
X208040000Y-59920000D03*
D19*
X200280000Y-69200000D03*
X191720000Y-69200000D03*
D20*
X186500000Y-59100000D03*
D21*
X191246447Y-60746447D02*
X191953553Y-61453553D01*
X181046447Y-61453553D02*
X181753553Y-60746447D01*
D22*
X192000000Y-65000000D03*
X181000000Y-65000000D03*
D23*
X182230381Y-62919619D02*
X183149619Y-62000381D01*
D24*
X186500000Y-65000000D03*
D25*
X181420000Y-65000000D03*
X191580000Y-65000000D03*
D23*
X189850381Y-62000381D02*
X190769619Y-62919619D01*
D26*
X183960000Y-59920000D03*
X189040000Y-59920000D03*
D19*
X181280000Y-69200000D03*
X172720000Y-69200000D03*
D20*
X167500000Y-59100000D03*
D21*
X172246447Y-60746447D02*
X172953553Y-61453553D01*
X162046447Y-61453553D02*
X162753553Y-60746447D01*
D22*
X173000000Y-65000000D03*
X162000000Y-65000000D03*
D23*
X163230381Y-62919619D02*
X164149619Y-62000381D01*
D24*
X167500000Y-65000000D03*
D25*
X162420000Y-65000000D03*
X172580000Y-65000000D03*
D23*
X170850381Y-62000381D02*
X171769619Y-62919619D01*
D26*
X164960000Y-59920000D03*
X170040000Y-59920000D03*
D19*
X162280000Y-69200000D03*
X153720000Y-69200000D03*
D20*
X148500000Y-59100000D03*
D21*
X153246447Y-60746447D02*
X153953553Y-61453553D01*
X143046447Y-61453553D02*
X143753553Y-60746447D01*
D22*
X154000000Y-65000000D03*
X143000000Y-65000000D03*
D23*
X144230381Y-62919619D02*
X145149619Y-62000381D01*
D24*
X148500000Y-65000000D03*
D25*
X143420000Y-65000000D03*
X153580000Y-65000000D03*
D23*
X151850381Y-62000381D02*
X152769619Y-62919619D01*
D26*
X145960000Y-59920000D03*
X151040000Y-59920000D03*
D19*
X143280000Y-69200000D03*
X229720000Y-69200000D03*
D20*
X224500000Y-59100000D03*
D21*
X229246447Y-60746447D02*
X229953553Y-61453553D01*
X219046447Y-61453553D02*
X219753553Y-60746447D01*
D22*
X230000000Y-65000000D03*
X219000000Y-65000000D03*
D23*
X220230381Y-62919619D02*
X221149619Y-62000381D01*
D24*
X224500000Y-65000000D03*
D25*
X219420000Y-65000000D03*
X229580000Y-65000000D03*
D23*
X227850381Y-62000381D02*
X228769619Y-62919619D01*
D26*
X221960000Y-59920000D03*
X227040000Y-59920000D03*
D19*
X219280000Y-69200000D03*
D27*
X215000000Y-82400000D03*
X215000000Y-85800000D03*
D28*
X214997460Y-78940000D03*
D29*
X214997460Y-89100000D03*
D27*
X214500000Y-120400000D03*
X214500000Y-123800000D03*
D28*
X214497460Y-116940000D03*
D29*
X214497460Y-127100000D03*
D30*
X226200000Y-93500000D03*
X222800000Y-93500000D03*
D28*
X229660000Y-93497460D03*
D29*
X219500000Y-93497460D03*
D30*
X226200000Y-74500000D03*
X222800000Y-74500000D03*
D28*
X229660000Y-74497460D03*
D29*
X219500000Y-74497460D03*
D30*
X226300000Y-56200000D03*
X222900000Y-56200000D03*
D28*
X229760000Y-56197460D03*
D29*
X219600000Y-56197460D03*
D27*
X195500000Y-120400000D03*
X195500000Y-123800000D03*
D28*
X195497460Y-116940000D03*
D29*
X195497460Y-127100000D03*
D27*
X215000000Y-101400000D03*
X215000000Y-104800000D03*
D28*
X214997460Y-97940000D03*
D29*
X214997460Y-108100000D03*
D27*
X176500000Y-120400000D03*
X176500000Y-123800000D03*
D28*
X176497460Y-116940000D03*
D29*
X176497460Y-127100000D03*
D27*
X196000000Y-101400000D03*
X196000000Y-104800000D03*
D28*
X195997460Y-97940000D03*
D29*
X195997460Y-108100000D03*
D27*
X196000000Y-82400000D03*
X196000000Y-85800000D03*
D28*
X195997460Y-78940000D03*
D29*
X195997460Y-89100000D03*
D27*
X196000000Y-63400000D03*
X196000000Y-66800000D03*
D28*
X195997460Y-59940000D03*
D29*
X195997460Y-70100000D03*
D27*
X158300000Y-120300000D03*
X158300000Y-123700000D03*
D28*
X158297460Y-116840000D03*
D29*
X158297460Y-127000000D03*
D27*
X177000000Y-101400000D03*
X177000000Y-104800000D03*
D28*
X176997460Y-97940000D03*
D29*
X176997460Y-108100000D03*
D27*
X177000000Y-82400000D03*
X177000000Y-85800000D03*
D28*
X176997460Y-78940000D03*
D29*
X176997460Y-89100000D03*
D27*
X177000000Y-63400000D03*
X177000000Y-66800000D03*
D28*
X176997460Y-59940000D03*
D29*
X176997460Y-70100000D03*
D27*
X139000000Y-120400000D03*
X139000000Y-123800000D03*
D28*
X138997460Y-116940000D03*
D29*
X138997460Y-127100000D03*
D27*
X158000000Y-101400000D03*
X158000000Y-104800000D03*
D28*
X157997460Y-97940000D03*
D29*
X157997460Y-108100000D03*
D27*
X158000000Y-82400000D03*
X158000000Y-85800000D03*
D28*
X157997460Y-78940000D03*
D29*
X157997460Y-89100000D03*
D27*
X158000000Y-63400000D03*
X158000000Y-66800000D03*
D28*
X157997460Y-59940000D03*
D29*
X157997460Y-70100000D03*
D30*
X131200000Y-112500000D03*
X127800000Y-112500000D03*
D28*
X134660000Y-112497460D03*
D29*
X124500000Y-112497460D03*
D27*
X139000000Y-101400000D03*
X139000000Y-104800000D03*
D28*
X138997460Y-97940000D03*
D29*
X138997460Y-108100000D03*
D27*
X139000000Y-82400000D03*
X139000000Y-85800000D03*
D28*
X138997460Y-78940000D03*
D29*
X138997460Y-89100000D03*
D27*
X120000000Y-123700000D03*
X120000000Y-120300000D03*
D28*
X120002540Y-127160000D03*
D29*
X120002540Y-117000000D03*
D27*
X139000000Y-63400000D03*
X139000000Y-66800000D03*
D28*
X138997460Y-59940000D03*
D29*
X138997460Y-70100000D03*
D27*
X215000000Y-63400000D03*
X215000000Y-66800000D03*
D28*
X214997460Y-59940000D03*
D29*
X214997460Y-70100000D03*
M02*
