G04 #@! TF.FileFunction,Legend,Bot*
%FSLAX46Y46*%
G04 Gerber Fmt 4.6, Leading zero omitted, Abs format (unit mm)*
G04 Created by KiCad (PCBNEW 4.0.7) date *
%MOMM*%
%LPD*%
G01*
G04 APERTURE LIST*
%ADD10C,0.100000*%
%ADD11C,0.150000*%
G04 APERTURE END LIST*
D10*
D11*
X114100000Y-98300000D02*
X114100000Y-92200000D01*
X114100000Y-92200000D02*
X102000000Y-92200000D01*
X102000000Y-92200000D02*
X102000000Y-92450000D01*
X102000000Y-92450000D02*
X100000000Y-92450000D01*
X100000000Y-92500000D02*
X100000000Y-98050000D01*
X114100000Y-98300000D02*
X102000000Y-98300000D01*
X102000000Y-98300000D02*
X102000000Y-98050000D01*
X102000000Y-98050000D02*
X100000000Y-98050000D01*
X102400000Y-59500000D02*
X102400000Y-56600000D01*
X119600000Y-56600000D02*
X102400000Y-56600000D01*
X119620000Y-59370000D02*
X119620000Y-56620000D01*
X104380000Y-59490000D02*
X102380000Y-59490000D01*
X104380000Y-59490000D02*
X104380000Y-89490000D01*
X104380000Y-89490000D02*
X102380000Y-89490000D01*
X102380000Y-89490000D02*
X102380000Y-59490000D01*
X117620000Y-89430000D02*
X117620000Y-59430000D01*
X119620000Y-89430000D02*
X117620000Y-89430000D01*
X119620000Y-59430000D02*
X119620000Y-89430000D01*
X119620000Y-59430000D02*
X117620000Y-59430000D01*
X103500000Y-100300000D02*
X103500000Y-106200000D01*
X103500000Y-100300000D02*
X103500000Y-106300000D01*
X103500000Y-106300000D02*
X100000000Y-106300000D01*
X100000000Y-106300000D02*
X100000000Y-100300000D01*
X100000000Y-100300000D02*
X103500000Y-100300000D01*
X113900000Y-104200000D02*
X113200000Y-104200000D01*
X106800000Y-102900000D02*
X113200000Y-102900000D01*
X106800000Y-105500000D02*
X106800000Y-102900000D01*
X113200000Y-105500000D02*
X106800000Y-105500000D01*
X113200000Y-102900000D02*
X113200000Y-105500000D01*
X106800000Y-104200000D02*
X106100000Y-104200000D01*
X113900000Y-101200000D02*
X113200000Y-101200000D01*
X106800000Y-99900000D02*
X113200000Y-99900000D01*
X106800000Y-102500000D02*
X106800000Y-99900000D01*
X113200000Y-102500000D02*
X106800000Y-102500000D01*
X113200000Y-99900000D02*
X113200000Y-102500000D01*
X106800000Y-101200000D02*
X106100000Y-101200000D01*
X214300000Y-84600000D02*
X215700000Y-84600000D01*
X215700000Y-83700000D02*
X215000000Y-84600000D01*
X214300000Y-83700000D02*
X215700000Y-83700000D01*
X215000000Y-84600000D02*
X214300000Y-83700000D01*
X215000000Y-86900000D02*
X215000000Y-87800000D01*
X215000000Y-81300000D02*
X215000000Y-80300000D01*
X213800000Y-122600000D02*
X215200000Y-122600000D01*
X215200000Y-121700000D02*
X214500000Y-122600000D01*
X213800000Y-121700000D02*
X215200000Y-121700000D01*
X214500000Y-122600000D02*
X213800000Y-121700000D01*
X214500000Y-124900000D02*
X214500000Y-125800000D01*
X214500000Y-119300000D02*
X214500000Y-118300000D01*
X224000000Y-92800000D02*
X224000000Y-94200000D01*
X224900000Y-94200000D02*
X224000000Y-93500000D01*
X224900000Y-92800000D02*
X224900000Y-94200000D01*
X224000000Y-93500000D02*
X224900000Y-92800000D01*
X221700000Y-93500000D02*
X220800000Y-93500000D01*
X227300000Y-93500000D02*
X228300000Y-93500000D01*
X224000000Y-73800000D02*
X224000000Y-75200000D01*
X224900000Y-75200000D02*
X224000000Y-74500000D01*
X224900000Y-73800000D02*
X224900000Y-75200000D01*
X224000000Y-74500000D02*
X224900000Y-73800000D01*
X221700000Y-74500000D02*
X220800000Y-74500000D01*
X227300000Y-74500000D02*
X228300000Y-74500000D01*
X224100000Y-55500000D02*
X224100000Y-56900000D01*
X225000000Y-56900000D02*
X224100000Y-56200000D01*
X225000000Y-55500000D02*
X225000000Y-56900000D01*
X224100000Y-56200000D02*
X225000000Y-55500000D01*
X221800000Y-56200000D02*
X220900000Y-56200000D01*
X227400000Y-56200000D02*
X228400000Y-56200000D01*
X194800000Y-122600000D02*
X196200000Y-122600000D01*
X196200000Y-121700000D02*
X195500000Y-122600000D01*
X194800000Y-121700000D02*
X196200000Y-121700000D01*
X195500000Y-122600000D02*
X194800000Y-121700000D01*
X195500000Y-124900000D02*
X195500000Y-125800000D01*
X195500000Y-119300000D02*
X195500000Y-118300000D01*
X214300000Y-103600000D02*
X215700000Y-103600000D01*
X215700000Y-102700000D02*
X215000000Y-103600000D01*
X214300000Y-102700000D02*
X215700000Y-102700000D01*
X215000000Y-103600000D02*
X214300000Y-102700000D01*
X215000000Y-105900000D02*
X215000000Y-106800000D01*
X215000000Y-100300000D02*
X215000000Y-99300000D01*
X175800000Y-122600000D02*
X177200000Y-122600000D01*
X177200000Y-121700000D02*
X176500000Y-122600000D01*
X175800000Y-121700000D02*
X177200000Y-121700000D01*
X176500000Y-122600000D02*
X175800000Y-121700000D01*
X176500000Y-124900000D02*
X176500000Y-125800000D01*
X176500000Y-119300000D02*
X176500000Y-118300000D01*
X195300000Y-103600000D02*
X196700000Y-103600000D01*
X196700000Y-102700000D02*
X196000000Y-103600000D01*
X195300000Y-102700000D02*
X196700000Y-102700000D01*
X196000000Y-103600000D02*
X195300000Y-102700000D01*
X196000000Y-105900000D02*
X196000000Y-106800000D01*
X196000000Y-100300000D02*
X196000000Y-99300000D01*
X195300000Y-84600000D02*
X196700000Y-84600000D01*
X196700000Y-83700000D02*
X196000000Y-84600000D01*
X195300000Y-83700000D02*
X196700000Y-83700000D01*
X196000000Y-84600000D02*
X195300000Y-83700000D01*
X196000000Y-86900000D02*
X196000000Y-87800000D01*
X196000000Y-81300000D02*
X196000000Y-80300000D01*
X195300000Y-65600000D02*
X196700000Y-65600000D01*
X196700000Y-64700000D02*
X196000000Y-65600000D01*
X195300000Y-64700000D02*
X196700000Y-64700000D01*
X196000000Y-65600000D02*
X195300000Y-64700000D01*
X196000000Y-67900000D02*
X196000000Y-68800000D01*
X196000000Y-62300000D02*
X196000000Y-61300000D01*
X157600000Y-122500000D02*
X159000000Y-122500000D01*
X159000000Y-121600000D02*
X158300000Y-122500000D01*
X157600000Y-121600000D02*
X159000000Y-121600000D01*
X158300000Y-122500000D02*
X157600000Y-121600000D01*
X158300000Y-124800000D02*
X158300000Y-125700000D01*
X158300000Y-119200000D02*
X158300000Y-118200000D01*
X176300000Y-103600000D02*
X177700000Y-103600000D01*
X177700000Y-102700000D02*
X177000000Y-103600000D01*
X176300000Y-102700000D02*
X177700000Y-102700000D01*
X177000000Y-103600000D02*
X176300000Y-102700000D01*
X177000000Y-105900000D02*
X177000000Y-106800000D01*
X177000000Y-100300000D02*
X177000000Y-99300000D01*
X176300000Y-84600000D02*
X177700000Y-84600000D01*
X177700000Y-83700000D02*
X177000000Y-84600000D01*
X176300000Y-83700000D02*
X177700000Y-83700000D01*
X177000000Y-84600000D02*
X176300000Y-83700000D01*
X177000000Y-86900000D02*
X177000000Y-87800000D01*
X177000000Y-81300000D02*
X177000000Y-80300000D01*
X176300000Y-65600000D02*
X177700000Y-65600000D01*
X177700000Y-64700000D02*
X177000000Y-65600000D01*
X176300000Y-64700000D02*
X177700000Y-64700000D01*
X177000000Y-65600000D02*
X176300000Y-64700000D01*
X177000000Y-67900000D02*
X177000000Y-68800000D01*
X177000000Y-62300000D02*
X177000000Y-61300000D01*
X138300000Y-122600000D02*
X139700000Y-122600000D01*
X139700000Y-121700000D02*
X139000000Y-122600000D01*
X138300000Y-121700000D02*
X139700000Y-121700000D01*
X139000000Y-122600000D02*
X138300000Y-121700000D01*
X139000000Y-124900000D02*
X139000000Y-125800000D01*
X139000000Y-119300000D02*
X139000000Y-118300000D01*
X157300000Y-103600000D02*
X158700000Y-103600000D01*
X158700000Y-102700000D02*
X158000000Y-103600000D01*
X157300000Y-102700000D02*
X158700000Y-102700000D01*
X158000000Y-103600000D02*
X157300000Y-102700000D01*
X158000000Y-105900000D02*
X158000000Y-106800000D01*
X158000000Y-100300000D02*
X158000000Y-99300000D01*
X157300000Y-84600000D02*
X158700000Y-84600000D01*
X158700000Y-83700000D02*
X158000000Y-84600000D01*
X157300000Y-83700000D02*
X158700000Y-83700000D01*
X158000000Y-84600000D02*
X157300000Y-83700000D01*
X158000000Y-86900000D02*
X158000000Y-87800000D01*
X158000000Y-81300000D02*
X158000000Y-80300000D01*
X157300000Y-65600000D02*
X158700000Y-65600000D01*
X158700000Y-64700000D02*
X158000000Y-65600000D01*
X157300000Y-64700000D02*
X158700000Y-64700000D01*
X158000000Y-65600000D02*
X157300000Y-64700000D01*
X158000000Y-67900000D02*
X158000000Y-68800000D01*
X158000000Y-62300000D02*
X158000000Y-61300000D01*
X129000000Y-111800000D02*
X129000000Y-113200000D01*
X129900000Y-113200000D02*
X129000000Y-112500000D01*
X129900000Y-111800000D02*
X129900000Y-113200000D01*
X129000000Y-112500000D02*
X129900000Y-111800000D01*
X126700000Y-112500000D02*
X125800000Y-112500000D01*
X132300000Y-112500000D02*
X133300000Y-112500000D01*
X138300000Y-103600000D02*
X139700000Y-103600000D01*
X139700000Y-102700000D02*
X139000000Y-103600000D01*
X138300000Y-102700000D02*
X139700000Y-102700000D01*
X139000000Y-103600000D02*
X138300000Y-102700000D01*
X139000000Y-105900000D02*
X139000000Y-106800000D01*
X139000000Y-100300000D02*
X139000000Y-99300000D01*
X138300000Y-84600000D02*
X139700000Y-84600000D01*
X139700000Y-83700000D02*
X139000000Y-84600000D01*
X138300000Y-83700000D02*
X139700000Y-83700000D01*
X139000000Y-84600000D02*
X138300000Y-83700000D01*
X139000000Y-86900000D02*
X139000000Y-87800000D01*
X139000000Y-81300000D02*
X139000000Y-80300000D01*
X120700000Y-121500000D02*
X119300000Y-121500000D01*
X119300000Y-122400000D02*
X120000000Y-121500000D01*
X120700000Y-122400000D02*
X119300000Y-122400000D01*
X120000000Y-121500000D02*
X120700000Y-122400000D01*
X120000000Y-119200000D02*
X120000000Y-118300000D01*
X120000000Y-124800000D02*
X120000000Y-125800000D01*
X138300000Y-65600000D02*
X139700000Y-65600000D01*
X139700000Y-64700000D02*
X139000000Y-65600000D01*
X138300000Y-64700000D02*
X139700000Y-64700000D01*
X139000000Y-65600000D02*
X138300000Y-64700000D01*
X139000000Y-67900000D02*
X139000000Y-68800000D01*
X139000000Y-62300000D02*
X139000000Y-61300000D01*
X214300000Y-65600000D02*
X215700000Y-65600000D01*
X215700000Y-64700000D02*
X215000000Y-65600000D01*
X214300000Y-64700000D02*
X215700000Y-64700000D01*
X215000000Y-65600000D02*
X214300000Y-64700000D01*
X215000000Y-67900000D02*
X215000000Y-68800000D01*
X215000000Y-62300000D02*
X215000000Y-61300000D01*
X102061905Y-102804762D02*
X101680952Y-102538095D01*
X102061905Y-102347619D02*
X101261905Y-102347619D01*
X101261905Y-102652381D01*
X101300000Y-102728572D01*
X101338095Y-102766667D01*
X101414286Y-102804762D01*
X101528571Y-102804762D01*
X101604762Y-102766667D01*
X101642857Y-102728572D01*
X101680952Y-102652381D01*
X101680952Y-102347619D01*
X101642857Y-103147619D02*
X101642857Y-103414286D01*
X102061905Y-103528572D02*
X102061905Y-103147619D01*
X101261905Y-103147619D01*
X101261905Y-103528572D01*
X102023810Y-103833334D02*
X102061905Y-103947620D01*
X102061905Y-104138096D01*
X102023810Y-104214286D01*
X101985714Y-104252382D01*
X101909524Y-104290477D01*
X101833333Y-104290477D01*
X101757143Y-104252382D01*
X101719048Y-104214286D01*
X101680952Y-104138096D01*
X101642857Y-103985715D01*
X101604762Y-103909524D01*
X101566667Y-103871429D01*
X101490476Y-103833334D01*
X101414286Y-103833334D01*
X101338095Y-103871429D01*
X101300000Y-103909524D01*
X101261905Y-103985715D01*
X101261905Y-104176191D01*
X101300000Y-104290477D01*
X110169333Y-104774524D02*
X110507999Y-104169762D01*
X110749904Y-104774524D02*
X110749904Y-103504524D01*
X110362857Y-103504524D01*
X110266095Y-103565000D01*
X110217714Y-103625476D01*
X110169333Y-103746429D01*
X110169333Y-103927857D01*
X110217714Y-104048810D01*
X110266095Y-104109286D01*
X110362857Y-104169762D01*
X110749904Y-104169762D01*
X109201714Y-104774524D02*
X109782285Y-104774524D01*
X109491999Y-104774524D02*
X109491999Y-103504524D01*
X109588761Y-103685952D01*
X109685523Y-103806905D01*
X109782285Y-103867381D01*
X110169333Y-101774524D02*
X110507999Y-101169762D01*
X110749904Y-101774524D02*
X110749904Y-100504524D01*
X110362857Y-100504524D01*
X110266095Y-100565000D01*
X110217714Y-100625476D01*
X110169333Y-100746429D01*
X110169333Y-100927857D01*
X110217714Y-101048810D01*
X110266095Y-101109286D01*
X110362857Y-101169762D01*
X110749904Y-101169762D01*
X109782285Y-100625476D02*
X109733904Y-100565000D01*
X109637142Y-100504524D01*
X109395238Y-100504524D01*
X109298476Y-100565000D01*
X109250095Y-100625476D01*
X109201714Y-100746429D01*
X109201714Y-100867381D01*
X109250095Y-101048810D01*
X109830666Y-101774524D01*
X109201714Y-101774524D01*
M02*
