M48
;DRILL file {KiCad 4.0.7} date 
;FORMAT={3:3/ absolute / metric / suppress trailing zeros}
FMAT,2
METRIC,LZ
T1C0.400
T2C0.500
T3C1.000
T4C1.100
T5C1.200
T6C1.300
T7C1.500
T8C1.000
T9C1.300
T10C1.900
T11C2.200
T12C4.000
T13C5.000
%
G90
G05
M71
T1
X1149Y-072
X1149Y-0801
X1149Y-0826
X1149Y-0852
X1149Y-0877
X1149Y-0891
X1175Y-09
X12Y-1203
X12Y-1237
X1278Y-1125
X12825Y-07475
X1312Y-1125
X139Y-0634
X139Y-0668
X139Y-0824
X139Y-0858
X139Y-1014
X139Y-1048
X139Y-1204
X139Y-1238
X158Y-0634
X158Y-0668
X158Y-0824
X158Y-0858
X158Y-1014
X158Y-1048
X1583Y-1203
X1583Y-1237
X1765Y-1204
X1765Y-1238
X177Y-0634
X177Y-0668
X177Y-0824
X177Y-0858
X177Y-1014
X177Y-1048
X1789Y-0574
X1955Y-1204
X1955Y-1238
X196Y-0634
X196Y-0668
X196Y-0824
X196Y-0858
X196Y-1014
X196Y-1048
X2145Y-1204
X2145Y-1238
X215Y-0634
X215Y-0668
X215Y-0824
X215Y-0858
X215Y-1014
X215Y-1048
X217Y-0575
X2228Y-0745
X2228Y-0935
X2229Y-0562
X2262Y-0745
X2262Y-0935
X2263Y-0562
T2
X1176Y-1016
X1176Y-1036
T3
X10492Y-1012
X10492Y-1042
X11508Y-1012
X11508Y-1042
X120003Y-117
X120003Y-12716
X1245Y-112497
X13466Y-112497
X138997Y-05994
X138997Y-0701
X138997Y-07894
X138997Y-0891
X138997Y-09794
X138997Y-1081
X138997Y-11694
X138997Y-1271
X157997Y-05994
X157997Y-0701
X157997Y-07894
X157997Y-0891
X157997Y-09794
X157997Y-1081
X158297Y-11684
X158297Y-127
X176497Y-11694
X176497Y-1271
X176997Y-05994
X176997Y-0701
X176997Y-07894
X176997Y-0891
X176997Y-09794
X176997Y-1081
X195497Y-11694
X195497Y-1271
X195997Y-05994
X195997Y-0701
X195997Y-07894
X195997Y-0891
X195997Y-09794
X195997Y-1081
X214497Y-11694
X214497Y-1271
X214997Y-05994
X214997Y-0701
X214997Y-07894
X214997Y-0891
X214997Y-09794
X214997Y-1081
X2195Y-074497
X2195Y-093497
X2196Y-056197
X22966Y-074497
X22966Y-093497
X22976Y-056197
T4
X10135Y-07173
X10135Y-07427
X10135Y-07681
X10135Y-07935
X10135Y-08189
X10135Y-08443
X10135Y-08697
X10138Y-05903
X10138Y-06157
X10138Y-06411
X10138Y-06665
X10138Y-06919
X10338Y-06049
X10338Y-06303
X10338Y-06557
X10338Y-06811
X10338Y-07065
X10341Y-07319
X10341Y-07573
X10341Y-07827
X10341Y-08081
X10341Y-08335
X10341Y-08589
X10341Y-08843
X11659Y-07179
X11659Y-07433
X11659Y-07687
X11659Y-07941
X11659Y-08195
X11659Y-08449
X11659Y-08703
X11662Y-05909
X11662Y-06163
X11662Y-06417
X11662Y-06671
X11662Y-06925
X11862Y-06043
X11862Y-06297
X11862Y-06551
X11862Y-06805
X11862Y-07059
X11865Y-07313
X11865Y-07567
X11865Y-07821
X11865Y-08075
X11865Y-08329
X11865Y-08583
X11865Y-08837
T5
X1105Y-1161
X1295Y-0591
X1295Y-0781
X1295Y-0971
X1295Y-1161
X1485Y-0591
X1485Y-0781
X1485Y-0971
X1485Y-1161
X167Y-1161
X1675Y-0591
X1675Y-0781
X1675Y-0971
X186Y-1161
X1865Y-0591
X1865Y-0781
X1865Y-0971
X205Y-1161
X2055Y-0591
X2055Y-0781
X2055Y-0971
X224Y-1161
X2245Y-0591
X2245Y-0781
X2245Y-0971
T7
X10796Y-11692
X11304Y-11692
X11431Y-11946
X12696Y-05992
X12696Y-07892
X12696Y-09792
X12696Y-11692
X13204Y-05992
X13204Y-07892
X13204Y-09792
X13204Y-11692
X13331Y-06246
X13331Y-08146
X13331Y-10046
X13331Y-11946
X14596Y-05992
X14596Y-07892
X14596Y-09792
X14596Y-11692
X15104Y-05992
X15104Y-07892
X15104Y-09792
X15104Y-11692
X15231Y-06246
X15231Y-08146
X15231Y-10046
X15231Y-11946
X16446Y-11692
X16496Y-05992
X16496Y-07892
X16496Y-09792
X16954Y-11692
X17004Y-05992
X17004Y-07892
X17004Y-09792
X17081Y-11946
X17131Y-06246
X17131Y-08146
X17131Y-10046
X18346Y-11692
X18396Y-05992
X18396Y-07892
X18396Y-09792
X18854Y-11692
X18904Y-05992
X18904Y-07892
X18904Y-09792
X18981Y-11946
X19031Y-06246
X19031Y-08146
X19031Y-10046
X20246Y-11692
X20296Y-05992
X20296Y-07892
X20296Y-09792
X20754Y-11692
X20804Y-05992
X20804Y-07892
X20804Y-09792
X20881Y-11946
X20931Y-06246
X20931Y-08146
X20931Y-10046
X22146Y-11692
X22196Y-05992
X22196Y-07892
X22196Y-09792
X22654Y-11692
X22704Y-05992
X22704Y-07892
X22704Y-09792
X22781Y-11946
X22831Y-06246
X22831Y-08146
X22831Y-10046
T8
X10528Y-1262
X11572Y-1262
X12428Y-0692
X12428Y-0882
X12428Y-1072
X12428Y-1262
X13472Y-0692
X13472Y-0882
X13472Y-1072
X13472Y-1262
X14328Y-0692
X14328Y-0882
X14328Y-1072
X14328Y-1262
X15372Y-0692
X15372Y-0882
X15372Y-1072
X15372Y-1262
X16178Y-1262
X16228Y-0692
X16228Y-0882
X16228Y-1072
X17222Y-1262
X17272Y-0692
X17272Y-0882
X17272Y-1072
X18078Y-1262
X18128Y-0692
X18128Y-0882
X18128Y-1072
X19122Y-1262
X19172Y-0692
X19172Y-0882
X19172Y-1072
X19978Y-1262
X20028Y-0692
X20028Y-0882
X20028Y-1072
X21022Y-1262
X21072Y-0692
X21072Y-0882
X21072Y-1072
X21878Y-1262
X21928Y-0692
X21928Y-0882
X21928Y-1072
X22922Y-1262
X22972Y-0692
X22972Y-0882
X22972Y-1072
T9
X1036Y-09335
X1036Y-09525
X1106Y-09335
X1106Y-09525
T10
X105Y-122
X10542Y-122
X11558Y-122
X116Y-122
X124Y-065
X124Y-084
X124Y-103
X124Y-122
X12442Y-065
X12442Y-084
X12442Y-103
X12442Y-122
X13458Y-065
X13458Y-084
X13458Y-103
X13458Y-122
X135Y-065
X135Y-084
X135Y-103
X135Y-122
X143Y-065
X143Y-084
X143Y-103
X143Y-122
X14342Y-065
X14342Y-084
X14342Y-103
X14342Y-122
X15358Y-065
X15358Y-084
X15358Y-103
X15358Y-122
X154Y-065
X154Y-084
X154Y-103
X154Y-122
X1615Y-122
X16192Y-122
X162Y-065
X162Y-084
X162Y-103
X16242Y-065
X16242Y-084
X16242Y-103
X17208Y-122
X1725Y-122
X17258Y-065
X17258Y-084
X17258Y-103
X173Y-065
X173Y-084
X173Y-103
X1805Y-122
X18092Y-122
X181Y-065
X181Y-084
X181Y-103
X18142Y-065
X18142Y-084
X18142Y-103
X19108Y-122
X1915Y-122
X19158Y-065
X19158Y-084
X19158Y-103
X192Y-065
X192Y-084
X192Y-103
X1995Y-122
X19992Y-122
X2Y-065
X2Y-084
X2Y-103
X20042Y-065
X20042Y-084
X20042Y-103
X21008Y-122
X2105Y-122
X21058Y-065
X21058Y-084
X21058Y-103
X211Y-065
X211Y-084
X211Y-103
X2185Y-122
X21892Y-122
X219Y-065
X219Y-084
X219Y-103
X21942Y-065
X21942Y-084
X21942Y-103
X22908Y-122
X2295Y-122
X22958Y-065
X22958Y-084
X22958Y-103
X23Y-065
X23Y-084
X23Y-103
T11
X1025Y-1105
X1185Y-1105
T12
X1105Y-122
X1295Y-065
X1295Y-084
X1295Y-103
X1295Y-122
X1485Y-065
X1485Y-084
X1485Y-103
X1485Y-122
X167Y-122
X1675Y-065
X1675Y-084
X1675Y-103
X186Y-122
X1865Y-065
X1865Y-084
X1865Y-103
X205Y-122
X2055Y-065
X2055Y-084
X2055Y-103
X224Y-122
X2245Y-065
X2245Y-084
X2245Y-103
T13
X139Y-0745
X139Y-1125
X215Y-0745
X215Y-1125
T3
X1044Y-09105G85X1052Y-09105
G05
X1044Y-09755G85X1052Y-09755
G05
X1074Y-09105G85X1082Y-09105
G05
X1074Y-09755G85X1082Y-09755
G05
X1114Y-09105G85X1122Y-09105
G05
X1114Y-09755G85X1122Y-09755
G05
X1125Y-09295G85X1133Y-09295
G05
X1125Y-09565G85X1133Y-09565
G05
T5
X1054Y-1181G85X1054Y-1181
G05
X1156Y-1181G85X1156Y-1181
G05
X1244Y-0611G85X1244Y-0611
G05
X1244Y-0801G85X1244Y-0801
G05
X1244Y-0991G85X1244Y-0991
G05
X1244Y-1181G85X1244Y-1181
G05
X1346Y-0611G85X1346Y-0611
G05
X1346Y-0801G85X1346Y-0801
G05
X1346Y-0991G85X1346Y-0991
G05
X1346Y-1181G85X1346Y-1181
G05
X1434Y-0611G85X1434Y-0611
G05
X1434Y-0801G85X1434Y-0801
G05
X1434Y-0991G85X1434Y-0991
G05
X1434Y-1181G85X1434Y-1181
G05
X1536Y-0611G85X1536Y-0611
G05
X1536Y-0801G85X1536Y-0801
G05
X1536Y-0991G85X1536Y-0991
G05
X1536Y-1181G85X1536Y-1181
G05
X1619Y-1181G85X1619Y-1181
G05
X1624Y-0611G85X1624Y-0611
G05
X1624Y-0801G85X1624Y-0801
G05
X1624Y-0991G85X1624Y-0991
G05
X1721Y-1181G85X1721Y-1181
G05
X1726Y-0611G85X1726Y-0611
G05
X1726Y-0801G85X1726Y-0801
G05
X1726Y-0991G85X1726Y-0991
G05
X1809Y-1181G85X1809Y-1181
G05
X1814Y-0611G85X1814Y-0611
G05
X1814Y-0801G85X1814Y-0801
G05
X1814Y-0991G85X1814Y-0991
G05
X1911Y-1181G85X1911Y-1181
G05
X1916Y-0611G85X1916Y-0611
G05
X1916Y-0801G85X1916Y-0801
G05
X1916Y-0991G85X1916Y-0991
G05
X1999Y-1181G85X1999Y-1181
G05
X2004Y-0611G85X2004Y-0611
G05
X2004Y-0801G85X2004Y-0801
G05
X2004Y-0991G85X2004Y-0991
G05
X2101Y-1181G85X2101Y-1181
G05
X2106Y-0611G85X2106Y-0611
G05
X2106Y-0801G85X2106Y-0801
G05
X2106Y-0991G85X2106Y-0991
G05
X2189Y-1181G85X2189Y-1181
G05
X2194Y-0611G85X2194Y-0611
G05
X2194Y-0801G85X2194Y-0801
G05
X2194Y-0991G85X2194Y-0991
G05
X2291Y-1181G85X2291Y-1181
G05
X2296Y-0611G85X2296Y-0611
G05
X2296Y-0801G85X2296Y-0801
G05
X2296Y-0991G85X2296Y-0991
G05
T6
X1021Y-0997G85X1014Y-0997
G05
X1021Y-1069G85X1014Y-1069
G05
T7
X10669Y-11946G85X10669Y-11946
G05
X12569Y-06246G85X12569Y-06246
G05
X12569Y-08146G85X12569Y-08146
G05
X12569Y-10046G85X12569Y-10046
G05
X12569Y-11946G85X12569Y-11946
G05
X14469Y-06246G85X14469Y-06246
G05
X14469Y-08146G85X14469Y-08146
G05
X14469Y-10046G85X14469Y-10046
G05
X14469Y-11946G85X14469Y-11946
G05
X16319Y-11946G85X16319Y-11946
G05
X16369Y-06246G85X16369Y-06246
G05
X16369Y-08146G85X16369Y-08146
G05
X16369Y-10046G85X16369Y-10046
G05
X18219Y-11946G85X18219Y-11946
G05
X18269Y-06246G85X18269Y-06246
G05
X18269Y-08146G85X18269Y-08146
G05
X18269Y-10046G85X18269Y-10046
G05
X20119Y-11946G85X20119Y-11946
G05
X20169Y-06246G85X20169Y-06246
G05
X20169Y-08146G85X20169Y-08146
G05
X20169Y-10046G85X20169Y-10046
G05
X22019Y-11946G85X22019Y-11946
G05
X22069Y-06246G85X22069Y-06246
G05
X22069Y-08146G85X22069Y-08146
G05
X22069Y-10046G85X22069Y-10046
G05
T0
M30
