G04 #@! TF.FileFunction,Legend,Top*
%FSLAX46Y46*%
G04 Gerber Fmt 4.6, Leading zero omitted, Abs format (unit mm)*
G04 Created by KiCad (PCBNEW 4.0.7) date *
%MOMM*%
%LPD*%
G01*
G04 APERTURE LIST*
%ADD10C,0.100000*%
%ADD11C,0.250000*%
%ADD12C,0.150000*%
%ADD13C,0.010000*%
G04 APERTURE END LIST*
D10*
D11*
X104366668Y-71488095D02*
X104366668Y-70188095D01*
X104676192Y-70188095D01*
X104861906Y-70250000D01*
X104985715Y-70373810D01*
X105047620Y-70497619D01*
X105109525Y-70745238D01*
X105109525Y-70930952D01*
X105047620Y-71178571D01*
X104985715Y-71302381D01*
X104861906Y-71426190D01*
X104676192Y-71488095D01*
X104366668Y-71488095D01*
X106161906Y-71426190D02*
X106038096Y-71488095D01*
X105790477Y-71488095D01*
X105666668Y-71426190D01*
X105604763Y-71302381D01*
X105604763Y-70807143D01*
X105666668Y-70683333D01*
X105790477Y-70621429D01*
X106038096Y-70621429D01*
X106161906Y-70683333D01*
X106223811Y-70807143D01*
X106223811Y-70930952D01*
X105604763Y-71054762D01*
X106719049Y-71426190D02*
X106842859Y-71488095D01*
X107090478Y-71488095D01*
X107214287Y-71426190D01*
X107276192Y-71302381D01*
X107276192Y-71240476D01*
X107214287Y-71116667D01*
X107090478Y-71054762D01*
X106904763Y-71054762D01*
X106780954Y-70992857D01*
X106719049Y-70869048D01*
X106719049Y-70807143D01*
X106780954Y-70683333D01*
X106904763Y-70621429D01*
X107090478Y-70621429D01*
X107214287Y-70683333D01*
X107833335Y-71488095D02*
X107833335Y-70621429D01*
X107833335Y-70188095D02*
X107771430Y-70250000D01*
X107833335Y-70311905D01*
X107895240Y-70250000D01*
X107833335Y-70188095D01*
X107833335Y-70311905D01*
X109009526Y-70621429D02*
X109009526Y-71673810D01*
X108947621Y-71797619D01*
X108885716Y-71859524D01*
X108761907Y-71921429D01*
X108576192Y-71921429D01*
X108452383Y-71859524D01*
X109009526Y-71426190D02*
X108885716Y-71488095D01*
X108638097Y-71488095D01*
X108514288Y-71426190D01*
X108452383Y-71364286D01*
X108390478Y-71240476D01*
X108390478Y-70869048D01*
X108452383Y-70745238D01*
X108514288Y-70683333D01*
X108638097Y-70621429D01*
X108885716Y-70621429D01*
X109009526Y-70683333D01*
X109628573Y-70621429D02*
X109628573Y-71488095D01*
X109628573Y-70745238D02*
X109690478Y-70683333D01*
X109814287Y-70621429D01*
X110000001Y-70621429D01*
X110123811Y-70683333D01*
X110185716Y-70807143D01*
X110185716Y-71488095D01*
X111300001Y-71426190D02*
X111176191Y-71488095D01*
X110928572Y-71488095D01*
X110804763Y-71426190D01*
X110742858Y-71302381D01*
X110742858Y-70807143D01*
X110804763Y-70683333D01*
X110928572Y-70621429D01*
X111176191Y-70621429D01*
X111300001Y-70683333D01*
X111361906Y-70807143D01*
X111361906Y-70930952D01*
X110742858Y-71054762D01*
X112476192Y-71488095D02*
X112476192Y-70188095D01*
X112476192Y-71426190D02*
X112352382Y-71488095D01*
X112104763Y-71488095D01*
X111980954Y-71426190D01*
X111919049Y-71364286D01*
X111857144Y-71240476D01*
X111857144Y-70869048D01*
X111919049Y-70745238D01*
X111980954Y-70683333D01*
X112104763Y-70621429D01*
X112352382Y-70621429D01*
X112476192Y-70683333D01*
X114085715Y-71488095D02*
X114085715Y-70188095D01*
X114085715Y-70683333D02*
X114209524Y-70621429D01*
X114457143Y-70621429D01*
X114580953Y-70683333D01*
X114642858Y-70745238D01*
X114704762Y-70869048D01*
X114704762Y-71240476D01*
X114642858Y-71364286D01*
X114580953Y-71426190D01*
X114457143Y-71488095D01*
X114209524Y-71488095D01*
X114085715Y-71426190D01*
X115138095Y-70621429D02*
X115447619Y-71488095D01*
X115757143Y-70621429D02*
X115447619Y-71488095D01*
X115323810Y-71797619D01*
X115261905Y-71859524D01*
X115138095Y-71921429D01*
X105666666Y-73069048D02*
X105604761Y-73007143D01*
X105480951Y-72945238D01*
X105357142Y-72945238D01*
X105233332Y-73007143D01*
X105171428Y-73069048D01*
X105109523Y-73192857D01*
X105109523Y-73316667D01*
X105171428Y-73440476D01*
X105233332Y-73502381D01*
X105357142Y-73564286D01*
X105480951Y-73564286D01*
X105604761Y-73502381D01*
X105666666Y-73440476D01*
X105666666Y-72945238D02*
X105666666Y-73440476D01*
X105728570Y-73502381D01*
X105790475Y-73502381D01*
X105914285Y-73440476D01*
X105976190Y-73316667D01*
X105976190Y-73007143D01*
X105852380Y-72821429D01*
X105666666Y-72697619D01*
X105419047Y-72635714D01*
X105171428Y-72697619D01*
X104985713Y-72821429D01*
X104861904Y-73007143D01*
X104799999Y-73254762D01*
X104861904Y-73502381D01*
X104985713Y-73688095D01*
X105171428Y-73811905D01*
X105419047Y-73873810D01*
X105666666Y-73811905D01*
X105852380Y-73688095D01*
X106966666Y-73007143D02*
X106533333Y-73007143D01*
X106533333Y-73688095D02*
X106533333Y-72388095D01*
X107152380Y-72388095D01*
X107338095Y-73811905D02*
X108328571Y-73811905D01*
X108885714Y-73069048D02*
X108885714Y-73688095D01*
X108452381Y-72388095D02*
X108885714Y-73069048D01*
X109319047Y-72388095D01*
X109752381Y-72388095D02*
X109752381Y-73440476D01*
X109814286Y-73564286D01*
X109876190Y-73626190D01*
X110000000Y-73688095D01*
X110247619Y-73688095D01*
X110371428Y-73626190D01*
X110433333Y-73564286D01*
X110495238Y-73440476D01*
X110495238Y-72388095D01*
X111114286Y-72388095D02*
X111114286Y-73440476D01*
X111176191Y-73564286D01*
X111238095Y-73626190D01*
X111361905Y-73688095D01*
X111609524Y-73688095D01*
X111733333Y-73626190D01*
X111795238Y-73564286D01*
X111857143Y-73440476D01*
X111857143Y-72388095D01*
X113219048Y-73564286D02*
X113157143Y-73626190D01*
X112971429Y-73688095D01*
X112847619Y-73688095D01*
X112661905Y-73626190D01*
X112538096Y-73502381D01*
X112476191Y-73378571D01*
X112414286Y-73130952D01*
X112414286Y-72945238D01*
X112476191Y-72697619D01*
X112538096Y-72573810D01*
X112661905Y-72450000D01*
X112847619Y-72388095D01*
X112971429Y-72388095D01*
X113157143Y-72450000D01*
X113219048Y-72511905D01*
X113776191Y-73688095D02*
X113776191Y-72388095D01*
X113776191Y-73007143D02*
X114519048Y-73007143D01*
X114519048Y-73688095D02*
X114519048Y-72388095D01*
X115138096Y-73688095D02*
X115138096Y-72388095D01*
X106100000Y-107828571D02*
X106100000Y-106828571D01*
X106100000Y-106971429D02*
X106171428Y-106900000D01*
X106314286Y-106828571D01*
X106528571Y-106828571D01*
X106671428Y-106900000D01*
X106742857Y-107042857D01*
X106742857Y-107828571D01*
X106742857Y-107042857D02*
X106814286Y-106900000D01*
X106957143Y-106828571D01*
X107171428Y-106828571D01*
X107314286Y-106900000D01*
X107385714Y-107042857D01*
X107385714Y-107828571D01*
X108100000Y-107828571D02*
X108100000Y-106828571D01*
X108100000Y-106328571D02*
X108028571Y-106400000D01*
X108100000Y-106471429D01*
X108171428Y-106400000D01*
X108100000Y-106328571D01*
X108100000Y-106471429D01*
X108814286Y-106828571D02*
X108814286Y-107828571D01*
X108814286Y-106971429D02*
X108885714Y-106900000D01*
X109028572Y-106828571D01*
X109242857Y-106828571D01*
X109385714Y-106900000D01*
X109457143Y-107042857D01*
X109457143Y-107828571D01*
X110171429Y-107828571D02*
X110171429Y-106828571D01*
X110171429Y-106328571D02*
X110100000Y-106400000D01*
X110171429Y-106471429D01*
X110242857Y-106400000D01*
X110171429Y-106328571D01*
X110171429Y-106471429D01*
X110814286Y-107757143D02*
X110957143Y-107828571D01*
X111242858Y-107828571D01*
X111385715Y-107757143D01*
X111457143Y-107614286D01*
X111457143Y-107542857D01*
X111385715Y-107400000D01*
X111242858Y-107328571D01*
X111028572Y-107328571D01*
X110885715Y-107257143D01*
X110814286Y-107114286D01*
X110814286Y-107042857D01*
X110885715Y-106900000D01*
X111028572Y-106828571D01*
X111242858Y-106828571D01*
X111385715Y-106900000D01*
X112100001Y-106828571D02*
X112100001Y-108328571D01*
X112100001Y-106900000D02*
X112242858Y-106828571D01*
X112528572Y-106828571D01*
X112671429Y-106900000D01*
X112742858Y-106971429D01*
X112814287Y-107114286D01*
X112814287Y-107542857D01*
X112742858Y-107685714D01*
X112671429Y-107757143D01*
X112528572Y-107828571D01*
X112242858Y-107828571D01*
X112100001Y-107757143D01*
X113671430Y-107828571D02*
X113528572Y-107757143D01*
X113457144Y-107614286D01*
X113457144Y-106328571D01*
X114242858Y-107828571D02*
X114242858Y-106828571D01*
X114242858Y-106328571D02*
X114171429Y-106400000D01*
X114242858Y-106471429D01*
X114314286Y-106400000D01*
X114242858Y-106328571D01*
X114242858Y-106471429D01*
X114742858Y-106828571D02*
X115314287Y-106828571D01*
X114957144Y-106328571D02*
X114957144Y-107614286D01*
X115028572Y-107757143D01*
X115171430Y-107828571D01*
X115314287Y-107828571D01*
X107350001Y-109328571D02*
X107707144Y-110328571D01*
X108064286Y-109328571D01*
X109207143Y-110257143D02*
X109064286Y-110328571D01*
X108778572Y-110328571D01*
X108635715Y-110257143D01*
X108564286Y-110114286D01*
X108564286Y-109542857D01*
X108635715Y-109400000D01*
X108778572Y-109328571D01*
X109064286Y-109328571D01*
X109207143Y-109400000D01*
X109278572Y-109542857D01*
X109278572Y-109685714D01*
X108564286Y-109828571D01*
X109921429Y-110328571D02*
X109921429Y-109328571D01*
X109921429Y-109614286D02*
X109992857Y-109471429D01*
X110064286Y-109400000D01*
X110207143Y-109328571D01*
X110350000Y-109328571D01*
X111635714Y-110328571D02*
X110778571Y-110328571D01*
X111207143Y-110328571D02*
X111207143Y-108828571D01*
X111064286Y-109042857D01*
X110921428Y-109185714D01*
X110778571Y-109257143D01*
X112278571Y-110185714D02*
X112349999Y-110257143D01*
X112278571Y-110328571D01*
X112207142Y-110257143D01*
X112278571Y-110185714D01*
X112278571Y-110328571D01*
X113278571Y-108828571D02*
X113421428Y-108828571D01*
X113564285Y-108900000D01*
X113635714Y-108971429D01*
X113707143Y-109114286D01*
X113778571Y-109400000D01*
X113778571Y-109757143D01*
X113707143Y-110042857D01*
X113635714Y-110185714D01*
X113564285Y-110257143D01*
X113421428Y-110328571D01*
X113278571Y-110328571D01*
X113135714Y-110257143D01*
X113064285Y-110185714D01*
X112992857Y-110042857D01*
X112921428Y-109757143D01*
X112921428Y-109400000D01*
X112992857Y-109114286D01*
X113064285Y-108971429D01*
X113135714Y-108900000D01*
X113278571Y-108828571D01*
D12*
X116330000Y-104505000D02*
X118870000Y-104505000D01*
X118870000Y-104505000D02*
X118870000Y-100695000D01*
X118870000Y-100695000D02*
X116330000Y-100695000D01*
X116330000Y-100695000D02*
X116330000Y-104505000D01*
X102000000Y-90550000D02*
X100000000Y-90550000D01*
X102000000Y-90300000D02*
X102000000Y-90550000D01*
X114100000Y-90300000D02*
X102000000Y-90300000D01*
X100000000Y-96100000D02*
X100000000Y-90550000D01*
X102000000Y-96150000D02*
X100000000Y-96150000D01*
X102000000Y-96400000D02*
X102000000Y-96150000D01*
X114100000Y-96400000D02*
X102000000Y-96400000D01*
X114100000Y-90300000D02*
X114100000Y-96400000D01*
X103500000Y-100300000D02*
X100000000Y-100300000D01*
X103500000Y-106300000D02*
X103500000Y-100300000D01*
X100000000Y-106300000D02*
X103500000Y-106300000D01*
X100000000Y-100300000D02*
X100000000Y-106300000D01*
X106800000Y-104200000D02*
X106100000Y-104200000D01*
X113200000Y-104200000D02*
X113900000Y-104200000D01*
X113200000Y-105500000D02*
X106800000Y-105500000D01*
X113200000Y-102900000D02*
X113200000Y-105500000D01*
X106800000Y-102900000D02*
X113200000Y-102900000D01*
X106800000Y-105500000D02*
X106800000Y-102900000D01*
X106800000Y-101200000D02*
X106100000Y-101200000D01*
X113200000Y-101200000D02*
X113900000Y-101200000D01*
X113200000Y-102500000D02*
X106800000Y-102500000D01*
X113200000Y-99900000D02*
X113200000Y-102500000D01*
X106800000Y-99900000D02*
X113200000Y-99900000D01*
X106800000Y-102500000D02*
X106800000Y-99900000D01*
X117600000Y-58100000D02*
X117600000Y-55200000D01*
X100400000Y-55200000D02*
X117600000Y-55200000D01*
X100380000Y-57970000D02*
X100380000Y-55220000D01*
X115620000Y-58090000D02*
X117620000Y-58090000D01*
X115620000Y-58090000D02*
X115620000Y-88090000D01*
X115620000Y-88090000D02*
X117620000Y-88090000D01*
X117620000Y-88090000D02*
X117620000Y-58090000D01*
X102380000Y-88030000D02*
X102380000Y-58030000D01*
X100380000Y-88030000D02*
X102380000Y-88030000D01*
X100380000Y-58030000D02*
X100380000Y-88030000D01*
X100380000Y-58030000D02*
X102380000Y-58030000D01*
D13*
G36*
X163021301Y-96014333D02*
X163652053Y-96019192D01*
X164156358Y-96028164D01*
X164555652Y-96042229D01*
X164871373Y-96062366D01*
X165124956Y-96089557D01*
X165337839Y-96124781D01*
X165502333Y-96161653D01*
X166249172Y-96394917D01*
X166851858Y-96695883D01*
X167328028Y-97082272D01*
X167695316Y-97571803D01*
X167971361Y-98182198D01*
X168150347Y-98822322D01*
X168172355Y-98931055D01*
X168192051Y-99055407D01*
X168209562Y-99204811D01*
X168225014Y-99388703D01*
X168238536Y-99616515D01*
X168250253Y-99897681D01*
X168260292Y-100241636D01*
X168268780Y-100657813D01*
X168275845Y-101155646D01*
X168281612Y-101744568D01*
X168286210Y-102434015D01*
X168289764Y-103233419D01*
X168292401Y-104152214D01*
X168294249Y-105199835D01*
X168295433Y-106385715D01*
X168296082Y-107719287D01*
X168296322Y-109209987D01*
X168296333Y-109679334D01*
X168296206Y-111215307D01*
X168295737Y-112591414D01*
X168294795Y-113817124D01*
X168293249Y-114901902D01*
X168290968Y-115855217D01*
X168287821Y-116686535D01*
X168283677Y-117405325D01*
X168278405Y-118021053D01*
X168271874Y-118543188D01*
X168263952Y-118981196D01*
X168254510Y-119344544D01*
X168243415Y-119642702D01*
X168230537Y-119885134D01*
X168215744Y-120081310D01*
X168198906Y-120240697D01*
X168179892Y-120372761D01*
X168158570Y-120486971D01*
X168145940Y-120545041D01*
X167931130Y-121272090D01*
X167645275Y-121858536D01*
X167280168Y-122321021D01*
X167260425Y-122340469D01*
X166954696Y-122601737D01*
X166610695Y-122818690D01*
X166211585Y-122994673D01*
X165740535Y-123133029D01*
X165180709Y-123237103D01*
X164515273Y-123310239D01*
X163727394Y-123355780D01*
X162800239Y-123377070D01*
X162031000Y-123379238D01*
X161461662Y-123375918D01*
X160939208Y-123370450D01*
X160490821Y-123363314D01*
X160143685Y-123354987D01*
X159924983Y-123345947D01*
X159872000Y-123341267D01*
X159301397Y-123254592D01*
X158865233Y-123179495D01*
X158529736Y-123108122D01*
X158261130Y-123032617D01*
X158025642Y-122945125D01*
X157868098Y-122875198D01*
X157297773Y-122520765D01*
X156833080Y-122049169D01*
X156496564Y-121485424D01*
X156407946Y-121255152D01*
X156350408Y-121078278D01*
X156298853Y-120907678D01*
X156252955Y-120733535D01*
X156212387Y-120546034D01*
X156176823Y-120335357D01*
X156145935Y-120091688D01*
X156119397Y-119805212D01*
X156096882Y-119466111D01*
X156078064Y-119064570D01*
X156062616Y-118590771D01*
X156050211Y-118034899D01*
X156040523Y-117387137D01*
X156033224Y-116637669D01*
X156027988Y-115776678D01*
X156024489Y-114794349D01*
X156022400Y-113680864D01*
X156021394Y-112426407D01*
X156021144Y-111021162D01*
X156021293Y-109637000D01*
X156021300Y-109613355D01*
X161565333Y-109613355D01*
X161566200Y-111228590D01*
X161568806Y-112675045D01*
X161573154Y-113953266D01*
X161579252Y-115063798D01*
X161587105Y-116007186D01*
X161596717Y-116783975D01*
X161608096Y-117394711D01*
X161621246Y-117839938D01*
X161636172Y-118120202D01*
X161652881Y-118236048D01*
X161652979Y-118236233D01*
X161785758Y-118337847D01*
X162013691Y-118397029D01*
X162277473Y-118412087D01*
X162517801Y-118381330D01*
X162675371Y-118303067D01*
X162699275Y-118266075D01*
X162706429Y-118164361D01*
X162713287Y-117904836D01*
X162719782Y-117499023D01*
X162725844Y-116958445D01*
X162731407Y-116294625D01*
X162736401Y-115519084D01*
X162740758Y-114643346D01*
X162744410Y-113678933D01*
X162747289Y-112637368D01*
X162749326Y-111530174D01*
X162750454Y-110368873D01*
X162750667Y-109590721D01*
X162750599Y-108200295D01*
X162750272Y-106969373D01*
X162749499Y-105888125D01*
X162748094Y-104946721D01*
X162745869Y-104135333D01*
X162742639Y-103444130D01*
X162738217Y-102863284D01*
X162732416Y-102382964D01*
X162725050Y-101993341D01*
X162715932Y-101684586D01*
X162704875Y-101446868D01*
X162691694Y-101270359D01*
X162676201Y-101145229D01*
X162658210Y-101061648D01*
X162637535Y-101009787D01*
X162613988Y-100979816D01*
X162587384Y-100961906D01*
X162586899Y-100961646D01*
X162317626Y-100884143D01*
X162017647Y-100891307D01*
X161767830Y-100978240D01*
X161720167Y-101014122D01*
X161694819Y-101042769D01*
X161672394Y-101086691D01*
X161652714Y-101155810D01*
X161635600Y-101260046D01*
X161620874Y-101409321D01*
X161608356Y-101613556D01*
X161597868Y-101882672D01*
X161589232Y-102226591D01*
X161582269Y-102655233D01*
X161576799Y-103178520D01*
X161572646Y-103806373D01*
X161569629Y-104548713D01*
X161567571Y-105415461D01*
X161566292Y-106416539D01*
X161565614Y-107561867D01*
X161565358Y-108861367D01*
X161565333Y-109613355D01*
X156021300Y-109613355D01*
X156021743Y-108125604D01*
X156022646Y-106773811D01*
X156024133Y-105571892D01*
X156026333Y-104510117D01*
X156029377Y-103578757D01*
X156033395Y-102768082D01*
X156038516Y-102068361D01*
X156044871Y-101469867D01*
X156052589Y-100962869D01*
X156061801Y-100537637D01*
X156072636Y-100184442D01*
X156085225Y-99893555D01*
X156099698Y-99655244D01*
X156116184Y-99459782D01*
X156134813Y-99297439D01*
X156155717Y-99158484D01*
X156161763Y-99123738D01*
X156350576Y-98327910D01*
X156614682Y-97675045D01*
X156968451Y-97150114D01*
X157426255Y-96738083D01*
X158002465Y-96423923D01*
X158711454Y-96192602D01*
X159033340Y-96120325D01*
X159299023Y-96083362D01*
X159693896Y-96054469D01*
X160226807Y-96033347D01*
X160906605Y-96019700D01*
X161742139Y-96013231D01*
X162242667Y-96012606D01*
X163021301Y-96014333D01*
X163021301Y-96014333D01*
G37*
X163021301Y-96014333D02*
X163652053Y-96019192D01*
X164156358Y-96028164D01*
X164555652Y-96042229D01*
X164871373Y-96062366D01*
X165124956Y-96089557D01*
X165337839Y-96124781D01*
X165502333Y-96161653D01*
X166249172Y-96394917D01*
X166851858Y-96695883D01*
X167328028Y-97082272D01*
X167695316Y-97571803D01*
X167971361Y-98182198D01*
X168150347Y-98822322D01*
X168172355Y-98931055D01*
X168192051Y-99055407D01*
X168209562Y-99204811D01*
X168225014Y-99388703D01*
X168238536Y-99616515D01*
X168250253Y-99897681D01*
X168260292Y-100241636D01*
X168268780Y-100657813D01*
X168275845Y-101155646D01*
X168281612Y-101744568D01*
X168286210Y-102434015D01*
X168289764Y-103233419D01*
X168292401Y-104152214D01*
X168294249Y-105199835D01*
X168295433Y-106385715D01*
X168296082Y-107719287D01*
X168296322Y-109209987D01*
X168296333Y-109679334D01*
X168296206Y-111215307D01*
X168295737Y-112591414D01*
X168294795Y-113817124D01*
X168293249Y-114901902D01*
X168290968Y-115855217D01*
X168287821Y-116686535D01*
X168283677Y-117405325D01*
X168278405Y-118021053D01*
X168271874Y-118543188D01*
X168263952Y-118981196D01*
X168254510Y-119344544D01*
X168243415Y-119642702D01*
X168230537Y-119885134D01*
X168215744Y-120081310D01*
X168198906Y-120240697D01*
X168179892Y-120372761D01*
X168158570Y-120486971D01*
X168145940Y-120545041D01*
X167931130Y-121272090D01*
X167645275Y-121858536D01*
X167280168Y-122321021D01*
X167260425Y-122340469D01*
X166954696Y-122601737D01*
X166610695Y-122818690D01*
X166211585Y-122994673D01*
X165740535Y-123133029D01*
X165180709Y-123237103D01*
X164515273Y-123310239D01*
X163727394Y-123355780D01*
X162800239Y-123377070D01*
X162031000Y-123379238D01*
X161461662Y-123375918D01*
X160939208Y-123370450D01*
X160490821Y-123363314D01*
X160143685Y-123354987D01*
X159924983Y-123345947D01*
X159872000Y-123341267D01*
X159301397Y-123254592D01*
X158865233Y-123179495D01*
X158529736Y-123108122D01*
X158261130Y-123032617D01*
X158025642Y-122945125D01*
X157868098Y-122875198D01*
X157297773Y-122520765D01*
X156833080Y-122049169D01*
X156496564Y-121485424D01*
X156407946Y-121255152D01*
X156350408Y-121078278D01*
X156298853Y-120907678D01*
X156252955Y-120733535D01*
X156212387Y-120546034D01*
X156176823Y-120335357D01*
X156145935Y-120091688D01*
X156119397Y-119805212D01*
X156096882Y-119466111D01*
X156078064Y-119064570D01*
X156062616Y-118590771D01*
X156050211Y-118034899D01*
X156040523Y-117387137D01*
X156033224Y-116637669D01*
X156027988Y-115776678D01*
X156024489Y-114794349D01*
X156022400Y-113680864D01*
X156021394Y-112426407D01*
X156021144Y-111021162D01*
X156021293Y-109637000D01*
X156021300Y-109613355D01*
X161565333Y-109613355D01*
X161566200Y-111228590D01*
X161568806Y-112675045D01*
X161573154Y-113953266D01*
X161579252Y-115063798D01*
X161587105Y-116007186D01*
X161596717Y-116783975D01*
X161608096Y-117394711D01*
X161621246Y-117839938D01*
X161636172Y-118120202D01*
X161652881Y-118236048D01*
X161652979Y-118236233D01*
X161785758Y-118337847D01*
X162013691Y-118397029D01*
X162277473Y-118412087D01*
X162517801Y-118381330D01*
X162675371Y-118303067D01*
X162699275Y-118266075D01*
X162706429Y-118164361D01*
X162713287Y-117904836D01*
X162719782Y-117499023D01*
X162725844Y-116958445D01*
X162731407Y-116294625D01*
X162736401Y-115519084D01*
X162740758Y-114643346D01*
X162744410Y-113678933D01*
X162747289Y-112637368D01*
X162749326Y-111530174D01*
X162750454Y-110368873D01*
X162750667Y-109590721D01*
X162750599Y-108200295D01*
X162750272Y-106969373D01*
X162749499Y-105888125D01*
X162748094Y-104946721D01*
X162745869Y-104135333D01*
X162742639Y-103444130D01*
X162738217Y-102863284D01*
X162732416Y-102382964D01*
X162725050Y-101993341D01*
X162715932Y-101684586D01*
X162704875Y-101446868D01*
X162691694Y-101270359D01*
X162676201Y-101145229D01*
X162658210Y-101061648D01*
X162637535Y-101009787D01*
X162613988Y-100979816D01*
X162587384Y-100961906D01*
X162586899Y-100961646D01*
X162317626Y-100884143D01*
X162017647Y-100891307D01*
X161767830Y-100978240D01*
X161720167Y-101014122D01*
X161694819Y-101042769D01*
X161672394Y-101086691D01*
X161652714Y-101155810D01*
X161635600Y-101260046D01*
X161620874Y-101409321D01*
X161608356Y-101613556D01*
X161597868Y-101882672D01*
X161589232Y-102226591D01*
X161582269Y-102655233D01*
X161576799Y-103178520D01*
X161572646Y-103806373D01*
X161569629Y-104548713D01*
X161567571Y-105415461D01*
X161566292Y-106416539D01*
X161565614Y-107561867D01*
X161565358Y-108861367D01*
X161565333Y-109613355D01*
X156021300Y-109613355D01*
X156021743Y-108125604D01*
X156022646Y-106773811D01*
X156024133Y-105571892D01*
X156026333Y-104510117D01*
X156029377Y-103578757D01*
X156033395Y-102768082D01*
X156038516Y-102068361D01*
X156044871Y-101469867D01*
X156052589Y-100962869D01*
X156061801Y-100537637D01*
X156072636Y-100184442D01*
X156085225Y-99893555D01*
X156099698Y-99655244D01*
X156116184Y-99459782D01*
X156134813Y-99297439D01*
X156155717Y-99158484D01*
X156161763Y-99123738D01*
X156350576Y-98327910D01*
X156614682Y-97675045D01*
X156968451Y-97150114D01*
X157426255Y-96738083D01*
X158002465Y-96423923D01*
X158711454Y-96192602D01*
X159033340Y-96120325D01*
X159299023Y-96083362D01*
X159693896Y-96054469D01*
X160226807Y-96033347D01*
X160906605Y-96019700D01*
X161742139Y-96013231D01*
X162242667Y-96012606D01*
X163021301Y-96014333D01*
G36*
X145640626Y-96304185D02*
X146467043Y-96306386D01*
X147269222Y-96311800D01*
X148025382Y-96320049D01*
X148713739Y-96330755D01*
X149312512Y-96343543D01*
X149799919Y-96358036D01*
X150154177Y-96373856D01*
X150304667Y-96384861D01*
X151205799Y-96523024D01*
X151974258Y-96750599D01*
X152623702Y-97071785D01*
X152701557Y-97121592D01*
X152978950Y-97324511D01*
X153183778Y-97537144D01*
X153365889Y-97817843D01*
X153479418Y-98032213D01*
X153566785Y-98203956D01*
X153645074Y-98362591D01*
X153714783Y-98517878D01*
X153776411Y-98679577D01*
X153830459Y-98857450D01*
X153877424Y-99061256D01*
X153917807Y-99300757D01*
X153952106Y-99585714D01*
X153980821Y-99925886D01*
X154004451Y-100331035D01*
X154023496Y-100810922D01*
X154038454Y-101375306D01*
X154049825Y-102033948D01*
X154058108Y-102796610D01*
X154063802Y-103673052D01*
X154067407Y-104673035D01*
X154069421Y-105806319D01*
X154070344Y-107082664D01*
X154070676Y-108511833D01*
X154070821Y-109594667D01*
X154071005Y-111141027D01*
X154070755Y-112527775D01*
X154069650Y-113764634D01*
X154067267Y-114861326D01*
X154063181Y-115827573D01*
X154056971Y-116673096D01*
X154048213Y-117407617D01*
X154036484Y-118040860D01*
X154021361Y-118582545D01*
X154002422Y-119042395D01*
X153979242Y-119430131D01*
X153951400Y-119755476D01*
X153918472Y-120028152D01*
X153880034Y-120257881D01*
X153835665Y-120454384D01*
X153784940Y-120627383D01*
X153727438Y-120786602D01*
X153662734Y-120941761D01*
X153590406Y-121102583D01*
X153567945Y-121151667D01*
X153203745Y-121762695D01*
X152729905Y-122245386D01*
X152272766Y-122538073D01*
X151940825Y-122670575D01*
X151495358Y-122785348D01*
X150929576Y-122882907D01*
X150236691Y-122963768D01*
X149409913Y-123028447D01*
X148442455Y-123077459D01*
X147327529Y-123111321D01*
X146058345Y-123130547D01*
X144628116Y-123135655D01*
X144412949Y-123135268D01*
X141780898Y-123128941D01*
X141722542Y-115362228D01*
X141714020Y-114058084D01*
X141707354Y-112678612D01*
X141702542Y-111250433D01*
X141699584Y-109800167D01*
X141698482Y-108354437D01*
X141699234Y-106939864D01*
X141701841Y-105583069D01*
X141706303Y-104310673D01*
X141712619Y-103149298D01*
X141720790Y-102125566D01*
X141722552Y-101948757D01*
X141731910Y-101043334D01*
X147256667Y-101043334D01*
X147256667Y-109622889D01*
X147257157Y-110813790D01*
X147258582Y-111956664D01*
X147260877Y-113040164D01*
X147263975Y-114052939D01*
X147267807Y-114983639D01*
X147272309Y-115820916D01*
X147277413Y-116553421D01*
X147283053Y-117169803D01*
X147289161Y-117658714D01*
X147295671Y-118008805D01*
X147302517Y-118208725D01*
X147307390Y-118253169D01*
X147417747Y-118274908D01*
X147639693Y-118270264D01*
X147918211Y-118243105D01*
X148198281Y-118197300D01*
X148245418Y-118187194D01*
X148359607Y-118132748D01*
X148427518Y-118004769D01*
X148470117Y-117759177D01*
X148476470Y-117701413D01*
X148483004Y-117553454D01*
X148488860Y-117248716D01*
X148493996Y-116799749D01*
X148498372Y-116219108D01*
X148501946Y-115519343D01*
X148504680Y-114713008D01*
X148506531Y-113812655D01*
X148507460Y-112830835D01*
X148507426Y-111780102D01*
X148506387Y-110673007D01*
X148504305Y-109522104D01*
X148503718Y-109270340D01*
X148500382Y-107928320D01*
X148497140Y-106745420D01*
X148493758Y-105711424D01*
X148490006Y-104816121D01*
X148485652Y-104049296D01*
X148480464Y-103400735D01*
X148474212Y-102860225D01*
X148466663Y-102417552D01*
X148457587Y-102062502D01*
X148446751Y-101784861D01*
X148433924Y-101574416D01*
X148418874Y-101420953D01*
X148401371Y-101314258D01*
X148381183Y-101244117D01*
X148358078Y-101200318D01*
X148331824Y-101172645D01*
X148319984Y-101163507D01*
X148135259Y-101091375D01*
X147854422Y-101048965D01*
X147706151Y-101043334D01*
X147256667Y-101043334D01*
X141731910Y-101043334D01*
X141780918Y-96302000D01*
X145640626Y-96304185D01*
X145640626Y-96304185D01*
G37*
X145640626Y-96304185D02*
X146467043Y-96306386D01*
X147269222Y-96311800D01*
X148025382Y-96320049D01*
X148713739Y-96330755D01*
X149312512Y-96343543D01*
X149799919Y-96358036D01*
X150154177Y-96373856D01*
X150304667Y-96384861D01*
X151205799Y-96523024D01*
X151974258Y-96750599D01*
X152623702Y-97071785D01*
X152701557Y-97121592D01*
X152978950Y-97324511D01*
X153183778Y-97537144D01*
X153365889Y-97817843D01*
X153479418Y-98032213D01*
X153566785Y-98203956D01*
X153645074Y-98362591D01*
X153714783Y-98517878D01*
X153776411Y-98679577D01*
X153830459Y-98857450D01*
X153877424Y-99061256D01*
X153917807Y-99300757D01*
X153952106Y-99585714D01*
X153980821Y-99925886D01*
X154004451Y-100331035D01*
X154023496Y-100810922D01*
X154038454Y-101375306D01*
X154049825Y-102033948D01*
X154058108Y-102796610D01*
X154063802Y-103673052D01*
X154067407Y-104673035D01*
X154069421Y-105806319D01*
X154070344Y-107082664D01*
X154070676Y-108511833D01*
X154070821Y-109594667D01*
X154071005Y-111141027D01*
X154070755Y-112527775D01*
X154069650Y-113764634D01*
X154067267Y-114861326D01*
X154063181Y-115827573D01*
X154056971Y-116673096D01*
X154048213Y-117407617D01*
X154036484Y-118040860D01*
X154021361Y-118582545D01*
X154002422Y-119042395D01*
X153979242Y-119430131D01*
X153951400Y-119755476D01*
X153918472Y-120028152D01*
X153880034Y-120257881D01*
X153835665Y-120454384D01*
X153784940Y-120627383D01*
X153727438Y-120786602D01*
X153662734Y-120941761D01*
X153590406Y-121102583D01*
X153567945Y-121151667D01*
X153203745Y-121762695D01*
X152729905Y-122245386D01*
X152272766Y-122538073D01*
X151940825Y-122670575D01*
X151495358Y-122785348D01*
X150929576Y-122882907D01*
X150236691Y-122963768D01*
X149409913Y-123028447D01*
X148442455Y-123077459D01*
X147327529Y-123111321D01*
X146058345Y-123130547D01*
X144628116Y-123135655D01*
X144412949Y-123135268D01*
X141780898Y-123128941D01*
X141722542Y-115362228D01*
X141714020Y-114058084D01*
X141707354Y-112678612D01*
X141702542Y-111250433D01*
X141699584Y-109800167D01*
X141698482Y-108354437D01*
X141699234Y-106939864D01*
X141701841Y-105583069D01*
X141706303Y-104310673D01*
X141712619Y-103149298D01*
X141720790Y-102125566D01*
X141722552Y-101948757D01*
X141731910Y-101043334D01*
X147256667Y-101043334D01*
X147256667Y-109622889D01*
X147257157Y-110813790D01*
X147258582Y-111956664D01*
X147260877Y-113040164D01*
X147263975Y-114052939D01*
X147267807Y-114983639D01*
X147272309Y-115820916D01*
X147277413Y-116553421D01*
X147283053Y-117169803D01*
X147289161Y-117658714D01*
X147295671Y-118008805D01*
X147302517Y-118208725D01*
X147307390Y-118253169D01*
X147417747Y-118274908D01*
X147639693Y-118270264D01*
X147918211Y-118243105D01*
X148198281Y-118197300D01*
X148245418Y-118187194D01*
X148359607Y-118132748D01*
X148427518Y-118004769D01*
X148470117Y-117759177D01*
X148476470Y-117701413D01*
X148483004Y-117553454D01*
X148488860Y-117248716D01*
X148493996Y-116799749D01*
X148498372Y-116219108D01*
X148501946Y-115519343D01*
X148504680Y-114713008D01*
X148506531Y-113812655D01*
X148507460Y-112830835D01*
X148507426Y-111780102D01*
X148506387Y-110673007D01*
X148504305Y-109522104D01*
X148503718Y-109270340D01*
X148500382Y-107928320D01*
X148497140Y-106745420D01*
X148493758Y-105711424D01*
X148490006Y-104816121D01*
X148485652Y-104049296D01*
X148480464Y-103400735D01*
X148474212Y-102860225D01*
X148466663Y-102417552D01*
X148457587Y-102062502D01*
X148446751Y-101784861D01*
X148433924Y-101574416D01*
X148418874Y-101420953D01*
X148401371Y-101314258D01*
X148381183Y-101244117D01*
X148358078Y-101200318D01*
X148331824Y-101172645D01*
X148319984Y-101163507D01*
X148135259Y-101091375D01*
X147854422Y-101048965D01*
X147706151Y-101043334D01*
X147256667Y-101043334D01*
X141731910Y-101043334D01*
X141780918Y-96302000D01*
X145640626Y-96304185D01*
G36*
X181949095Y-109685168D02*
X181927667Y-123070651D01*
X179345333Y-123084826D01*
X178692233Y-123087503D01*
X178087167Y-123088254D01*
X177552751Y-123087188D01*
X177111598Y-123084411D01*
X176786325Y-123080031D01*
X176599544Y-123074154D01*
X176570387Y-123071668D01*
X176377774Y-123044336D01*
X176401053Y-109694335D01*
X176424333Y-96344334D01*
X181970523Y-96299686D01*
X181949095Y-109685168D01*
X181949095Y-109685168D01*
G37*
X181949095Y-109685168D02*
X181927667Y-123070651D01*
X179345333Y-123084826D01*
X178692233Y-123087503D01*
X178087167Y-123088254D01*
X177552751Y-123087188D01*
X177111598Y-123084411D01*
X176786325Y-123080031D01*
X176599544Y-123074154D01*
X176570387Y-123071668D01*
X176377774Y-123044336D01*
X176401053Y-109694335D01*
X176424333Y-96344334D01*
X181970523Y-96299686D01*
X181949095Y-109685168D01*
G36*
X194246667Y-100874000D02*
X191706667Y-100874000D01*
X191698832Y-101106834D01*
X191697760Y-101219041D01*
X191696526Y-101490288D01*
X191695150Y-101910281D01*
X191693652Y-102468726D01*
X191692050Y-103155328D01*
X191690365Y-103959795D01*
X191688616Y-104871832D01*
X191686824Y-105881146D01*
X191685006Y-106977443D01*
X191683184Y-108150428D01*
X191681377Y-109389809D01*
X191679604Y-110685290D01*
X191677886Y-112026580D01*
X191677665Y-112205332D01*
X191664333Y-123070996D01*
X188926791Y-123084998D01*
X188263292Y-123087335D01*
X187655619Y-123087447D01*
X187124048Y-123085488D01*
X186688858Y-123081614D01*
X186370325Y-123075982D01*
X186188729Y-123068746D01*
X186153957Y-123063722D01*
X186149639Y-122976333D01*
X186145473Y-122729562D01*
X186141490Y-122333363D01*
X186137722Y-121797686D01*
X186134200Y-121132484D01*
X186130956Y-120347710D01*
X186128022Y-119453314D01*
X186125429Y-118459250D01*
X186123209Y-117375469D01*
X186121393Y-116211924D01*
X186120013Y-114978566D01*
X186119101Y-113685348D01*
X186118688Y-112342221D01*
X186118667Y-111951222D01*
X186118667Y-100874000D01*
X183494000Y-100874000D01*
X183494000Y-96302000D01*
X194246667Y-96302000D01*
X194246667Y-100874000D01*
X194246667Y-100874000D01*
G37*
X194246667Y-100874000D02*
X191706667Y-100874000D01*
X191698832Y-101106834D01*
X191697760Y-101219041D01*
X191696526Y-101490288D01*
X191695150Y-101910281D01*
X191693652Y-102468726D01*
X191692050Y-103155328D01*
X191690365Y-103959795D01*
X191688616Y-104871832D01*
X191686824Y-105881146D01*
X191685006Y-106977443D01*
X191683184Y-108150428D01*
X191681377Y-109389809D01*
X191679604Y-110685290D01*
X191677886Y-112026580D01*
X191677665Y-112205332D01*
X191664333Y-123070996D01*
X188926791Y-123084998D01*
X188263292Y-123087335D01*
X187655619Y-123087447D01*
X187124048Y-123085488D01*
X186688858Y-123081614D01*
X186370325Y-123075982D01*
X186188729Y-123068746D01*
X186153957Y-123063722D01*
X186149639Y-122976333D01*
X186145473Y-122729562D01*
X186141490Y-122333363D01*
X186137722Y-121797686D01*
X186134200Y-121132484D01*
X186130956Y-120347710D01*
X186128022Y-119453314D01*
X186125429Y-118459250D01*
X186123209Y-117375469D01*
X186121393Y-116211924D01*
X186120013Y-114978566D01*
X186119101Y-113685348D01*
X186118688Y-112342221D01*
X186118667Y-111951222D01*
X186118667Y-100874000D01*
X183494000Y-100874000D01*
X183494000Y-96302000D01*
X194246667Y-96302000D01*
X194246667Y-100874000D01*
G36*
X153395000Y-62901000D02*
X153395000Y-74627334D01*
X153394999Y-76331904D01*
X153394794Y-77875769D01*
X153394076Y-79267557D01*
X153392539Y-80515897D01*
X153389876Y-81629415D01*
X153385780Y-82616741D01*
X153379944Y-83486502D01*
X153372061Y-84247326D01*
X153361825Y-84907842D01*
X153348927Y-85476678D01*
X153333062Y-85962462D01*
X153313923Y-86373821D01*
X153291202Y-86719385D01*
X153264593Y-87007780D01*
X153233789Y-87247636D01*
X153198482Y-87447581D01*
X153158366Y-87616242D01*
X153113134Y-87762247D01*
X153062479Y-87894225D01*
X153006094Y-88020804D01*
X152943673Y-88150612D01*
X152911606Y-88216334D01*
X152619472Y-88715950D01*
X152269450Y-89107648D01*
X151831824Y-89413831D01*
X151276880Y-89656901D01*
X150812667Y-89798828D01*
X150590287Y-89852952D01*
X150357413Y-89895382D01*
X150088490Y-89927900D01*
X149757964Y-89952288D01*
X149340281Y-89970328D01*
X148809888Y-89983802D01*
X148141231Y-89994491D01*
X147976333Y-89996605D01*
X147341953Y-90001513D01*
X146727217Y-90000796D01*
X146163748Y-89994907D01*
X145683174Y-89984298D01*
X145317119Y-89969419D01*
X145140000Y-89956081D01*
X144419719Y-89848955D01*
X143827946Y-89688611D01*
X143328494Y-89461181D01*
X142885173Y-89152801D01*
X142759387Y-89043942D01*
X142487597Y-88757982D01*
X142269870Y-88426084D01*
X142084863Y-88008040D01*
X141911236Y-87463642D01*
X141900779Y-87426315D01*
X141860011Y-87272870D01*
X141825676Y-87119499D01*
X141797090Y-86950275D01*
X141773572Y-86749269D01*
X141754439Y-86500551D01*
X141739007Y-86188195D01*
X141726595Y-85796270D01*
X141716519Y-85308849D01*
X141708096Y-84710003D01*
X141700644Y-83983803D01*
X141693480Y-83114321D01*
X141688766Y-82480167D01*
X141657542Y-78183334D01*
X146658370Y-78183334D01*
X146682352Y-81523513D01*
X146689880Y-82407793D01*
X146698928Y-83136011D01*
X146710010Y-83721435D01*
X146723643Y-84177333D01*
X146740342Y-84516974D01*
X146760622Y-84753626D01*
X146785000Y-84900556D01*
X146813991Y-84971034D01*
X146816437Y-84973680D01*
X146960635Y-85034877D01*
X147197502Y-85068375D01*
X147456447Y-85071795D01*
X147666879Y-85042757D01*
X147744589Y-85004970D01*
X147752431Y-84914176D01*
X147760301Y-84664098D01*
X147768124Y-84264785D01*
X147775822Y-83726289D01*
X147783321Y-83058659D01*
X147790544Y-82271943D01*
X147797417Y-81376193D01*
X147803862Y-80381457D01*
X147809804Y-79297786D01*
X147815168Y-78135228D01*
X147819877Y-76903835D01*
X147823856Y-75613655D01*
X147827029Y-74274738D01*
X147827551Y-74006448D01*
X147830333Y-72658617D01*
X147833505Y-71357219D01*
X147837019Y-70112333D01*
X147840825Y-68934038D01*
X147844876Y-67832413D01*
X147849121Y-66817537D01*
X147853512Y-65899490D01*
X147858001Y-65088351D01*
X147862538Y-64394199D01*
X147867074Y-63827113D01*
X147871561Y-63397172D01*
X147875950Y-63114456D01*
X147880192Y-62989044D01*
X147880991Y-62983791D01*
X147976212Y-62956873D01*
X148237230Y-62934955D01*
X148660580Y-62918145D01*
X149242797Y-62906547D01*
X149980416Y-62900267D01*
X150654440Y-62899125D01*
X153395000Y-62901000D01*
X153395000Y-62901000D01*
G37*
X153395000Y-62901000D02*
X153395000Y-74627334D01*
X153394999Y-76331904D01*
X153394794Y-77875769D01*
X153394076Y-79267557D01*
X153392539Y-80515897D01*
X153389876Y-81629415D01*
X153385780Y-82616741D01*
X153379944Y-83486502D01*
X153372061Y-84247326D01*
X153361825Y-84907842D01*
X153348927Y-85476678D01*
X153333062Y-85962462D01*
X153313923Y-86373821D01*
X153291202Y-86719385D01*
X153264593Y-87007780D01*
X153233789Y-87247636D01*
X153198482Y-87447581D01*
X153158366Y-87616242D01*
X153113134Y-87762247D01*
X153062479Y-87894225D01*
X153006094Y-88020804D01*
X152943673Y-88150612D01*
X152911606Y-88216334D01*
X152619472Y-88715950D01*
X152269450Y-89107648D01*
X151831824Y-89413831D01*
X151276880Y-89656901D01*
X150812667Y-89798828D01*
X150590287Y-89852952D01*
X150357413Y-89895382D01*
X150088490Y-89927900D01*
X149757964Y-89952288D01*
X149340281Y-89970328D01*
X148809888Y-89983802D01*
X148141231Y-89994491D01*
X147976333Y-89996605D01*
X147341953Y-90001513D01*
X146727217Y-90000796D01*
X146163748Y-89994907D01*
X145683174Y-89984298D01*
X145317119Y-89969419D01*
X145140000Y-89956081D01*
X144419719Y-89848955D01*
X143827946Y-89688611D01*
X143328494Y-89461181D01*
X142885173Y-89152801D01*
X142759387Y-89043942D01*
X142487597Y-88757982D01*
X142269870Y-88426084D01*
X142084863Y-88008040D01*
X141911236Y-87463642D01*
X141900779Y-87426315D01*
X141860011Y-87272870D01*
X141825676Y-87119499D01*
X141797090Y-86950275D01*
X141773572Y-86749269D01*
X141754439Y-86500551D01*
X141739007Y-86188195D01*
X141726595Y-85796270D01*
X141716519Y-85308849D01*
X141708096Y-84710003D01*
X141700644Y-83983803D01*
X141693480Y-83114321D01*
X141688766Y-82480167D01*
X141657542Y-78183334D01*
X146658370Y-78183334D01*
X146682352Y-81523513D01*
X146689880Y-82407793D01*
X146698928Y-83136011D01*
X146710010Y-83721435D01*
X146723643Y-84177333D01*
X146740342Y-84516974D01*
X146760622Y-84753626D01*
X146785000Y-84900556D01*
X146813991Y-84971034D01*
X146816437Y-84973680D01*
X146960635Y-85034877D01*
X147197502Y-85068375D01*
X147456447Y-85071795D01*
X147666879Y-85042757D01*
X147744589Y-85004970D01*
X147752431Y-84914176D01*
X147760301Y-84664098D01*
X147768124Y-84264785D01*
X147775822Y-83726289D01*
X147783321Y-83058659D01*
X147790544Y-82271943D01*
X147797417Y-81376193D01*
X147803862Y-80381457D01*
X147809804Y-79297786D01*
X147815168Y-78135228D01*
X147819877Y-76903835D01*
X147823856Y-75613655D01*
X147827029Y-74274738D01*
X147827551Y-74006448D01*
X147830333Y-72658617D01*
X147833505Y-71357219D01*
X147837019Y-70112333D01*
X147840825Y-68934038D01*
X147844876Y-67832413D01*
X147849121Y-66817537D01*
X147853512Y-65899490D01*
X147858001Y-65088351D01*
X147862538Y-64394199D01*
X147867074Y-63827113D01*
X147871561Y-63397172D01*
X147875950Y-63114456D01*
X147880192Y-62989044D01*
X147880991Y-62983791D01*
X147976212Y-62956873D01*
X148237230Y-62934955D01*
X148660580Y-62918145D01*
X149242797Y-62906547D01*
X149980416Y-62900267D01*
X150654440Y-62899125D01*
X153395000Y-62901000D01*
G36*
X161327626Y-63259487D02*
X161332167Y-63394318D01*
X161335979Y-63687710D01*
X161339059Y-64128893D01*
X161341405Y-64707095D01*
X161343015Y-65411547D01*
X161343885Y-66231477D01*
X161344015Y-67156116D01*
X161343401Y-68174691D01*
X161342041Y-69276434D01*
X161339932Y-70450572D01*
X161337073Y-71686336D01*
X161333462Y-72972955D01*
X161329966Y-74049790D01*
X161324681Y-75718319D01*
X161320911Y-77223540D01*
X161318692Y-78571474D01*
X161318056Y-79768138D01*
X161319040Y-80819553D01*
X161321677Y-81731737D01*
X161326002Y-82510710D01*
X161332049Y-83162491D01*
X161339854Y-83693100D01*
X161349449Y-84108555D01*
X161360870Y-84414876D01*
X161374152Y-84618083D01*
X161389328Y-84724194D01*
X161391124Y-84730225D01*
X161495116Y-84945086D01*
X161659001Y-85049770D01*
X161770237Y-85076812D01*
X162006492Y-85085899D01*
X162263889Y-85047778D01*
X162465034Y-84976877D01*
X162517041Y-84937596D01*
X162519866Y-84851693D01*
X162523229Y-84606428D01*
X162527070Y-84211770D01*
X162531334Y-83677688D01*
X162535962Y-83014152D01*
X162540897Y-82231133D01*
X162546082Y-81338598D01*
X162551459Y-80346519D01*
X162556972Y-79264864D01*
X162562561Y-78103604D01*
X162568171Y-76872707D01*
X162573744Y-75582144D01*
X162579222Y-74241884D01*
X162580541Y-73907667D01*
X162623667Y-62901000D01*
X165235159Y-62901000D01*
X165885236Y-62902518D01*
X166481321Y-62906818D01*
X167002176Y-62913516D01*
X167426568Y-62922231D01*
X167733258Y-62932578D01*
X167901013Y-62944177D01*
X167925170Y-62949470D01*
X167936429Y-63039398D01*
X167946759Y-63286800D01*
X167956165Y-63679819D01*
X167964656Y-64206599D01*
X167972237Y-64855282D01*
X167978915Y-65614013D01*
X167984697Y-66470933D01*
X167989590Y-67414188D01*
X167993601Y-68431919D01*
X167996736Y-69512270D01*
X167999002Y-70643384D01*
X168000406Y-71813405D01*
X168000954Y-73010475D01*
X168000653Y-74222739D01*
X167999511Y-75438339D01*
X167997533Y-76645419D01*
X167994727Y-77832121D01*
X167991099Y-78986589D01*
X167986656Y-80096967D01*
X167981404Y-81151397D01*
X167975351Y-82138024D01*
X167968504Y-83044989D01*
X167960868Y-83860436D01*
X167952451Y-84572510D01*
X167943259Y-85169352D01*
X167933299Y-85639106D01*
X167922579Y-85969915D01*
X167911982Y-86142000D01*
X167802428Y-86939429D01*
X167649286Y-87602033D01*
X167441028Y-88161257D01*
X167166124Y-88648549D01*
X166840276Y-89065038D01*
X166613465Y-89246499D01*
X166264863Y-89438218D01*
X165839229Y-89619879D01*
X165381320Y-89771163D01*
X165160113Y-89827731D01*
X164891397Y-89869033D01*
X164482958Y-89906209D01*
X163964370Y-89938625D01*
X163365209Y-89965643D01*
X162715048Y-89986629D01*
X162043461Y-90000947D01*
X161380024Y-90007961D01*
X160754311Y-90007036D01*
X160195895Y-89997537D01*
X159734352Y-89978827D01*
X159407792Y-89951353D01*
X158565095Y-89805485D01*
X157866232Y-89588820D01*
X157295790Y-89288129D01*
X156838356Y-88890188D01*
X156478518Y-88381770D01*
X156200864Y-87749648D01*
X156000197Y-87027099D01*
X155979086Y-86923953D01*
X155960045Y-86808024D01*
X155942969Y-86670543D01*
X155927750Y-86502742D01*
X155914284Y-86295853D01*
X155902464Y-86041108D01*
X155892184Y-85729739D01*
X155883338Y-85352977D01*
X155875820Y-84902053D01*
X155869524Y-84368201D01*
X155864343Y-83742652D01*
X155860172Y-83016637D01*
X155856905Y-82181389D01*
X155854435Y-81228139D01*
X155852656Y-80148119D01*
X155851463Y-78932560D01*
X155850749Y-77572696D01*
X155850409Y-76059756D01*
X155850333Y-74639432D01*
X155850333Y-62925197D01*
X158569932Y-62890585D01*
X161289530Y-62855973D01*
X161327626Y-63259487D01*
X161327626Y-63259487D01*
G37*
X161327626Y-63259487D02*
X161332167Y-63394318D01*
X161335979Y-63687710D01*
X161339059Y-64128893D01*
X161341405Y-64707095D01*
X161343015Y-65411547D01*
X161343885Y-66231477D01*
X161344015Y-67156116D01*
X161343401Y-68174691D01*
X161342041Y-69276434D01*
X161339932Y-70450572D01*
X161337073Y-71686336D01*
X161333462Y-72972955D01*
X161329966Y-74049790D01*
X161324681Y-75718319D01*
X161320911Y-77223540D01*
X161318692Y-78571474D01*
X161318056Y-79768138D01*
X161319040Y-80819553D01*
X161321677Y-81731737D01*
X161326002Y-82510710D01*
X161332049Y-83162491D01*
X161339854Y-83693100D01*
X161349449Y-84108555D01*
X161360870Y-84414876D01*
X161374152Y-84618083D01*
X161389328Y-84724194D01*
X161391124Y-84730225D01*
X161495116Y-84945086D01*
X161659001Y-85049770D01*
X161770237Y-85076812D01*
X162006492Y-85085899D01*
X162263889Y-85047778D01*
X162465034Y-84976877D01*
X162517041Y-84937596D01*
X162519866Y-84851693D01*
X162523229Y-84606428D01*
X162527070Y-84211770D01*
X162531334Y-83677688D01*
X162535962Y-83014152D01*
X162540897Y-82231133D01*
X162546082Y-81338598D01*
X162551459Y-80346519D01*
X162556972Y-79264864D01*
X162562561Y-78103604D01*
X162568171Y-76872707D01*
X162573744Y-75582144D01*
X162579222Y-74241884D01*
X162580541Y-73907667D01*
X162623667Y-62901000D01*
X165235159Y-62901000D01*
X165885236Y-62902518D01*
X166481321Y-62906818D01*
X167002176Y-62913516D01*
X167426568Y-62922231D01*
X167733258Y-62932578D01*
X167901013Y-62944177D01*
X167925170Y-62949470D01*
X167936429Y-63039398D01*
X167946759Y-63286800D01*
X167956165Y-63679819D01*
X167964656Y-64206599D01*
X167972237Y-64855282D01*
X167978915Y-65614013D01*
X167984697Y-66470933D01*
X167989590Y-67414188D01*
X167993601Y-68431919D01*
X167996736Y-69512270D01*
X167999002Y-70643384D01*
X168000406Y-71813405D01*
X168000954Y-73010475D01*
X168000653Y-74222739D01*
X167999511Y-75438339D01*
X167997533Y-76645419D01*
X167994727Y-77832121D01*
X167991099Y-78986589D01*
X167986656Y-80096967D01*
X167981404Y-81151397D01*
X167975351Y-82138024D01*
X167968504Y-83044989D01*
X167960868Y-83860436D01*
X167952451Y-84572510D01*
X167943259Y-85169352D01*
X167933299Y-85639106D01*
X167922579Y-85969915D01*
X167911982Y-86142000D01*
X167802428Y-86939429D01*
X167649286Y-87602033D01*
X167441028Y-88161257D01*
X167166124Y-88648549D01*
X166840276Y-89065038D01*
X166613465Y-89246499D01*
X166264863Y-89438218D01*
X165839229Y-89619879D01*
X165381320Y-89771163D01*
X165160113Y-89827731D01*
X164891397Y-89869033D01*
X164482958Y-89906209D01*
X163964370Y-89938625D01*
X163365209Y-89965643D01*
X162715048Y-89986629D01*
X162043461Y-90000947D01*
X161380024Y-90007961D01*
X160754311Y-90007036D01*
X160195895Y-89997537D01*
X159734352Y-89978827D01*
X159407792Y-89951353D01*
X158565095Y-89805485D01*
X157866232Y-89588820D01*
X157295790Y-89288129D01*
X156838356Y-88890188D01*
X156478518Y-88381770D01*
X156200864Y-87749648D01*
X156000197Y-87027099D01*
X155979086Y-86923953D01*
X155960045Y-86808024D01*
X155942969Y-86670543D01*
X155927750Y-86502742D01*
X155914284Y-86295853D01*
X155902464Y-86041108D01*
X155892184Y-85729739D01*
X155883338Y-85352977D01*
X155875820Y-84902053D01*
X155869524Y-84368201D01*
X155864343Y-83742652D01*
X155860172Y-83016637D01*
X155856905Y-82181389D01*
X155854435Y-81228139D01*
X155852656Y-80148119D01*
X155851463Y-78932560D01*
X155850749Y-77572696D01*
X155850409Y-76059756D01*
X155850333Y-74639432D01*
X155850333Y-62925197D01*
X158569932Y-62890585D01*
X161289530Y-62855973D01*
X161327626Y-63259487D01*
G36*
X176451119Y-62578035D02*
X177093746Y-62596725D01*
X177719613Y-62623273D01*
X178296869Y-62656590D01*
X178793665Y-62695584D01*
X179178151Y-62739163D01*
X179381494Y-62776102D01*
X179989004Y-62944887D01*
X180462223Y-63126737D01*
X180835955Y-63343685D01*
X181145005Y-63617763D01*
X181424176Y-63971004D01*
X181535398Y-64139596D01*
X181708205Y-64447342D01*
X181851360Y-64788114D01*
X181967247Y-65179576D01*
X182058251Y-65639389D01*
X182126757Y-66185217D01*
X182175149Y-66834721D01*
X182205811Y-67605565D01*
X182221130Y-68515412D01*
X182224000Y-69239937D01*
X182224000Y-71664000D01*
X176829319Y-71664000D01*
X176786775Y-69672004D01*
X176772888Y-69108277D01*
X176756901Y-68602507D01*
X176739865Y-68178787D01*
X176722831Y-67861213D01*
X176706848Y-67673879D01*
X176697906Y-67633684D01*
X176583209Y-67600318D01*
X176361890Y-67581741D01*
X176095921Y-67578046D01*
X175847269Y-67589323D01*
X175677904Y-67615663D01*
X175644385Y-67632132D01*
X175625236Y-67732617D01*
X175608233Y-67977548D01*
X175594212Y-68342046D01*
X175584005Y-68801229D01*
X175578445Y-69330215D01*
X175577667Y-69624236D01*
X175577667Y-71549549D01*
X175809597Y-71899929D01*
X176036209Y-72160089D01*
X176367085Y-72441374D01*
X176748349Y-72704363D01*
X177126128Y-72909637D01*
X177271000Y-72969232D01*
X177486207Y-73066114D01*
X177632455Y-73162407D01*
X177742909Y-73242580D01*
X177967881Y-73389120D01*
X178276139Y-73582190D01*
X178636454Y-73801953D01*
X178690788Y-73834629D01*
X179479258Y-74320384D01*
X180129327Y-74750520D01*
X180657144Y-75138621D01*
X181078854Y-75498272D01*
X181410605Y-75843056D01*
X181668543Y-76186556D01*
X181839892Y-76483868D01*
X181946772Y-76703790D01*
X182036947Y-76917692D01*
X182111805Y-77141703D01*
X182172732Y-77391955D01*
X182221116Y-77684579D01*
X182258342Y-78035705D01*
X182285797Y-78461465D01*
X182304868Y-78977989D01*
X182316941Y-79601409D01*
X182323403Y-80347855D01*
X182325642Y-81233459D01*
X182325231Y-82129908D01*
X182321724Y-83193846D01*
X182314080Y-84133049D01*
X182302469Y-84939813D01*
X182287062Y-85606434D01*
X182268027Y-86125208D01*
X182245533Y-86488430D01*
X182225562Y-86659575D01*
X182050300Y-87462646D01*
X181823506Y-88118990D01*
X181529640Y-88647344D01*
X181153164Y-89066443D01*
X180678537Y-89395026D01*
X180090220Y-89651828D01*
X179627337Y-89792361D01*
X179403625Y-89846781D01*
X179174820Y-89889604D01*
X178915767Y-89922563D01*
X178601311Y-89947390D01*
X178206296Y-89965820D01*
X177705567Y-89979585D01*
X177073968Y-89990420D01*
X176678333Y-89995557D01*
X176036500Y-90000535D01*
X175418032Y-90000205D01*
X174852949Y-89994973D01*
X174371268Y-89985245D01*
X174003009Y-89971428D01*
X173799667Y-89956558D01*
X172939955Y-89817002D01*
X172223194Y-89601744D01*
X171636147Y-89300503D01*
X171165578Y-88902999D01*
X170798252Y-88398949D01*
X170520934Y-87778073D01*
X170381256Y-87301237D01*
X170308105Y-86913800D01*
X170247344Y-86393049D01*
X170198668Y-85732762D01*
X170161774Y-84926713D01*
X170136356Y-83968678D01*
X170122110Y-82852432D01*
X170118588Y-81929834D01*
X170116667Y-79030000D01*
X175535333Y-79030000D01*
X175535333Y-81892485D01*
X175535492Y-82711000D01*
X175538043Y-83376096D01*
X175546097Y-83903686D01*
X175562766Y-84309683D01*
X175591161Y-84609998D01*
X175634393Y-84820545D01*
X175695573Y-84957237D01*
X175777812Y-85035985D01*
X175884223Y-85072704D01*
X176017916Y-85083306D01*
X176159275Y-85083667D01*
X176416736Y-85060565D01*
X176610483Y-85002472D01*
X176652933Y-84973528D01*
X176683960Y-84906814D01*
X176708984Y-84765479D01*
X176728535Y-84535053D01*
X176743144Y-84201068D01*
X176753339Y-83749055D01*
X176759651Y-83164543D01*
X176762610Y-82433064D01*
X176763000Y-81967862D01*
X176763000Y-79072334D01*
X176551333Y-78789664D01*
X176367866Y-78604514D01*
X176091929Y-78392801D01*
X175789333Y-78203912D01*
X175501170Y-78042665D01*
X175115979Y-77823576D01*
X174682698Y-77574641D01*
X174250264Y-77323852D01*
X174223000Y-77307948D01*
X173373300Y-76803403D01*
X172661351Y-76358734D01*
X172072219Y-75960591D01*
X171590976Y-75595622D01*
X171202689Y-75250476D01*
X170892427Y-74911802D01*
X170645259Y-74566249D01*
X170446255Y-74200464D01*
X170280483Y-73801098D01*
X170270498Y-73773646D01*
X170223317Y-73639435D01*
X170184381Y-73511079D01*
X170152897Y-73371526D01*
X170128074Y-73203722D01*
X170109121Y-72990616D01*
X170095246Y-72715153D01*
X170085657Y-72360282D01*
X170079564Y-71908949D01*
X170076174Y-71344102D01*
X170074697Y-70648687D01*
X170074340Y-69805652D01*
X170074333Y-69547334D01*
X170074884Y-68646458D01*
X170076970Y-67897339D01*
X170081244Y-67282402D01*
X170088357Y-66784071D01*
X170098962Y-66384773D01*
X170113709Y-66066933D01*
X170133251Y-65812976D01*
X170158240Y-65605327D01*
X170189327Y-65426411D01*
X170227164Y-65258655D01*
X170234478Y-65229334D01*
X170414930Y-64632832D01*
X170639506Y-64135868D01*
X170924650Y-63727953D01*
X171286803Y-63398597D01*
X171742407Y-63137309D01*
X172307904Y-62933602D01*
X172999736Y-62776984D01*
X173834344Y-62656966D01*
X174350000Y-62603699D01*
X174741172Y-62580037D01*
X175242982Y-62568600D01*
X175823581Y-62568297D01*
X176451119Y-62578035D01*
X176451119Y-62578035D01*
G37*
X176451119Y-62578035D02*
X177093746Y-62596725D01*
X177719613Y-62623273D01*
X178296869Y-62656590D01*
X178793665Y-62695584D01*
X179178151Y-62739163D01*
X179381494Y-62776102D01*
X179989004Y-62944887D01*
X180462223Y-63126737D01*
X180835955Y-63343685D01*
X181145005Y-63617763D01*
X181424176Y-63971004D01*
X181535398Y-64139596D01*
X181708205Y-64447342D01*
X181851360Y-64788114D01*
X181967247Y-65179576D01*
X182058251Y-65639389D01*
X182126757Y-66185217D01*
X182175149Y-66834721D01*
X182205811Y-67605565D01*
X182221130Y-68515412D01*
X182224000Y-69239937D01*
X182224000Y-71664000D01*
X176829319Y-71664000D01*
X176786775Y-69672004D01*
X176772888Y-69108277D01*
X176756901Y-68602507D01*
X176739865Y-68178787D01*
X176722831Y-67861213D01*
X176706848Y-67673879D01*
X176697906Y-67633684D01*
X176583209Y-67600318D01*
X176361890Y-67581741D01*
X176095921Y-67578046D01*
X175847269Y-67589323D01*
X175677904Y-67615663D01*
X175644385Y-67632132D01*
X175625236Y-67732617D01*
X175608233Y-67977548D01*
X175594212Y-68342046D01*
X175584005Y-68801229D01*
X175578445Y-69330215D01*
X175577667Y-69624236D01*
X175577667Y-71549549D01*
X175809597Y-71899929D01*
X176036209Y-72160089D01*
X176367085Y-72441374D01*
X176748349Y-72704363D01*
X177126128Y-72909637D01*
X177271000Y-72969232D01*
X177486207Y-73066114D01*
X177632455Y-73162407D01*
X177742909Y-73242580D01*
X177967881Y-73389120D01*
X178276139Y-73582190D01*
X178636454Y-73801953D01*
X178690788Y-73834629D01*
X179479258Y-74320384D01*
X180129327Y-74750520D01*
X180657144Y-75138621D01*
X181078854Y-75498272D01*
X181410605Y-75843056D01*
X181668543Y-76186556D01*
X181839892Y-76483868D01*
X181946772Y-76703790D01*
X182036947Y-76917692D01*
X182111805Y-77141703D01*
X182172732Y-77391955D01*
X182221116Y-77684579D01*
X182258342Y-78035705D01*
X182285797Y-78461465D01*
X182304868Y-78977989D01*
X182316941Y-79601409D01*
X182323403Y-80347855D01*
X182325642Y-81233459D01*
X182325231Y-82129908D01*
X182321724Y-83193846D01*
X182314080Y-84133049D01*
X182302469Y-84939813D01*
X182287062Y-85606434D01*
X182268027Y-86125208D01*
X182245533Y-86488430D01*
X182225562Y-86659575D01*
X182050300Y-87462646D01*
X181823506Y-88118990D01*
X181529640Y-88647344D01*
X181153164Y-89066443D01*
X180678537Y-89395026D01*
X180090220Y-89651828D01*
X179627337Y-89792361D01*
X179403625Y-89846781D01*
X179174820Y-89889604D01*
X178915767Y-89922563D01*
X178601311Y-89947390D01*
X178206296Y-89965820D01*
X177705567Y-89979585D01*
X177073968Y-89990420D01*
X176678333Y-89995557D01*
X176036500Y-90000535D01*
X175418032Y-90000205D01*
X174852949Y-89994973D01*
X174371268Y-89985245D01*
X174003009Y-89971428D01*
X173799667Y-89956558D01*
X172939955Y-89817002D01*
X172223194Y-89601744D01*
X171636147Y-89300503D01*
X171165578Y-88902999D01*
X170798252Y-88398949D01*
X170520934Y-87778073D01*
X170381256Y-87301237D01*
X170308105Y-86913800D01*
X170247344Y-86393049D01*
X170198668Y-85732762D01*
X170161774Y-84926713D01*
X170136356Y-83968678D01*
X170122110Y-82852432D01*
X170118588Y-81929834D01*
X170116667Y-79030000D01*
X175535333Y-79030000D01*
X175535333Y-81892485D01*
X175535492Y-82711000D01*
X175538043Y-83376096D01*
X175546097Y-83903686D01*
X175562766Y-84309683D01*
X175591161Y-84609998D01*
X175634393Y-84820545D01*
X175695573Y-84957237D01*
X175777812Y-85035985D01*
X175884223Y-85072704D01*
X176017916Y-85083306D01*
X176159275Y-85083667D01*
X176416736Y-85060565D01*
X176610483Y-85002472D01*
X176652933Y-84973528D01*
X176683960Y-84906814D01*
X176708984Y-84765479D01*
X176728535Y-84535053D01*
X176743144Y-84201068D01*
X176753339Y-83749055D01*
X176759651Y-83164543D01*
X176762610Y-82433064D01*
X176763000Y-81967862D01*
X176763000Y-79072334D01*
X176551333Y-78789664D01*
X176367866Y-78604514D01*
X176091929Y-78392801D01*
X175789333Y-78203912D01*
X175501170Y-78042665D01*
X175115979Y-77823576D01*
X174682698Y-77574641D01*
X174250264Y-77323852D01*
X174223000Y-77307948D01*
X173373300Y-76803403D01*
X172661351Y-76358734D01*
X172072219Y-75960591D01*
X171590976Y-75595622D01*
X171202689Y-75250476D01*
X170892427Y-74911802D01*
X170645259Y-74566249D01*
X170446255Y-74200464D01*
X170280483Y-73801098D01*
X170270498Y-73773646D01*
X170223317Y-73639435D01*
X170184381Y-73511079D01*
X170152897Y-73371526D01*
X170128074Y-73203722D01*
X170109121Y-72990616D01*
X170095246Y-72715153D01*
X170085657Y-72360282D01*
X170079564Y-71908949D01*
X170076174Y-71344102D01*
X170074697Y-70648687D01*
X170074340Y-69805652D01*
X170074333Y-69547334D01*
X170074884Y-68646458D01*
X170076970Y-67897339D01*
X170081244Y-67282402D01*
X170088357Y-66784071D01*
X170098962Y-66384773D01*
X170113709Y-66066933D01*
X170133251Y-65812976D01*
X170158240Y-65605327D01*
X170189327Y-65426411D01*
X170227164Y-65258655D01*
X170234478Y-65229334D01*
X170414930Y-64632832D01*
X170639506Y-64135868D01*
X170924650Y-63727953D01*
X171286803Y-63398597D01*
X171742407Y-63137309D01*
X172307904Y-62933602D01*
X172999736Y-62776984D01*
X173834344Y-62656966D01*
X174350000Y-62603699D01*
X174741172Y-62580037D01*
X175242982Y-62568600D01*
X175823581Y-62568297D01*
X176451119Y-62578035D01*
G36*
X188743333Y-62924680D02*
X194119667Y-62948359D01*
X194127973Y-64914346D01*
X194128839Y-65495863D01*
X194126679Y-66039347D01*
X194121842Y-66515562D01*
X194114676Y-66895271D01*
X194105532Y-67149238D01*
X194100427Y-67219000D01*
X194064575Y-67557667D01*
X192906788Y-67533365D01*
X192474560Y-67529553D01*
X192099194Y-67536088D01*
X191815227Y-67551647D01*
X191657198Y-67574907D01*
X191641277Y-67581863D01*
X191625010Y-67623123D01*
X191610007Y-67728936D01*
X191596159Y-67906680D01*
X191583358Y-68163737D01*
X191571497Y-68507485D01*
X191560468Y-68945306D01*
X191550163Y-69484578D01*
X191540474Y-70132683D01*
X191531294Y-70896999D01*
X191522514Y-71784908D01*
X191514027Y-72803789D01*
X191505725Y-73961022D01*
X191497500Y-75263987D01*
X191489244Y-76720064D01*
X191480849Y-78336634D01*
X191479161Y-78676331D01*
X191424768Y-89698000D01*
X185949333Y-89698000D01*
X185949333Y-67618357D01*
X185727616Y-67562710D01*
X185559171Y-67542341D01*
X185262757Y-67527650D01*
X184879683Y-67519978D01*
X184451257Y-67520663D01*
X184436449Y-67520848D01*
X183367000Y-67534634D01*
X183367000Y-62901000D01*
X188743333Y-62924680D01*
X188743333Y-62924680D01*
G37*
X188743333Y-62924680D02*
X194119667Y-62948359D01*
X194127973Y-64914346D01*
X194128839Y-65495863D01*
X194126679Y-66039347D01*
X194121842Y-66515562D01*
X194114676Y-66895271D01*
X194105532Y-67149238D01*
X194100427Y-67219000D01*
X194064575Y-67557667D01*
X192906788Y-67533365D01*
X192474560Y-67529553D01*
X192099194Y-67536088D01*
X191815227Y-67551647D01*
X191657198Y-67574907D01*
X191641277Y-67581863D01*
X191625010Y-67623123D01*
X191610007Y-67728936D01*
X191596159Y-67906680D01*
X191583358Y-68163737D01*
X191571497Y-68507485D01*
X191560468Y-68945306D01*
X191550163Y-69484578D01*
X191540474Y-70132683D01*
X191531294Y-70896999D01*
X191522514Y-71784908D01*
X191514027Y-72803789D01*
X191505725Y-73961022D01*
X191497500Y-75263987D01*
X191489244Y-76720064D01*
X191480849Y-78336634D01*
X191479161Y-78676331D01*
X191424768Y-89698000D01*
X185949333Y-89698000D01*
X185949333Y-67618357D01*
X185727616Y-67562710D01*
X185559171Y-67542341D01*
X185262757Y-67527650D01*
X184879683Y-67519978D01*
X184451257Y-67520663D01*
X184436449Y-67520848D01*
X183367000Y-67534634D01*
X183367000Y-62901000D01*
X188743333Y-62924680D01*
D12*
X214300000Y-84600000D02*
X215700000Y-84600000D01*
X215000000Y-84600000D02*
X214300000Y-83700000D01*
X215700000Y-83700000D02*
X215000000Y-84600000D01*
X214300000Y-83700000D02*
X215700000Y-83700000D01*
X215000000Y-87800000D02*
X215000000Y-86900000D01*
X215000000Y-81300000D02*
X215000000Y-80300000D01*
X213800000Y-122600000D02*
X215200000Y-122600000D01*
X214500000Y-122600000D02*
X213800000Y-121700000D01*
X215200000Y-121700000D02*
X214500000Y-122600000D01*
X213800000Y-121700000D02*
X215200000Y-121700000D01*
X214500000Y-125800000D02*
X214500000Y-124900000D01*
X214500000Y-119300000D02*
X214500000Y-118300000D01*
X224000000Y-92800000D02*
X224000000Y-94200000D01*
X224000000Y-93500000D02*
X224900000Y-92800000D01*
X224900000Y-94200000D02*
X224000000Y-93500000D01*
X224900000Y-92800000D02*
X224900000Y-94200000D01*
X220800000Y-93500000D02*
X221700000Y-93500000D01*
X227300000Y-93500000D02*
X228300000Y-93500000D01*
X224000000Y-73800000D02*
X224000000Y-75200000D01*
X224000000Y-74500000D02*
X224900000Y-73800000D01*
X224900000Y-75200000D02*
X224000000Y-74500000D01*
X224900000Y-73800000D02*
X224900000Y-75200000D01*
X220800000Y-74500000D02*
X221700000Y-74500000D01*
X227300000Y-74500000D02*
X228300000Y-74500000D01*
X224100000Y-55500000D02*
X224100000Y-56900000D01*
X224100000Y-56200000D02*
X225000000Y-55500000D01*
X225000000Y-56900000D02*
X224100000Y-56200000D01*
X225000000Y-55500000D02*
X225000000Y-56900000D01*
X220900000Y-56200000D02*
X221800000Y-56200000D01*
X227400000Y-56200000D02*
X228400000Y-56200000D01*
X194800000Y-122600000D02*
X196200000Y-122600000D01*
X195500000Y-122600000D02*
X194800000Y-121700000D01*
X196200000Y-121700000D02*
X195500000Y-122600000D01*
X194800000Y-121700000D02*
X196200000Y-121700000D01*
X195500000Y-125800000D02*
X195500000Y-124900000D01*
X195500000Y-119300000D02*
X195500000Y-118300000D01*
X214300000Y-103600000D02*
X215700000Y-103600000D01*
X215000000Y-103600000D02*
X214300000Y-102700000D01*
X215700000Y-102700000D02*
X215000000Y-103600000D01*
X214300000Y-102700000D02*
X215700000Y-102700000D01*
X215000000Y-106800000D02*
X215000000Y-105900000D01*
X215000000Y-100300000D02*
X215000000Y-99300000D01*
X175800000Y-122600000D02*
X177200000Y-122600000D01*
X176500000Y-122600000D02*
X175800000Y-121700000D01*
X177200000Y-121700000D02*
X176500000Y-122600000D01*
X175800000Y-121700000D02*
X177200000Y-121700000D01*
X176500000Y-125800000D02*
X176500000Y-124900000D01*
X176500000Y-119300000D02*
X176500000Y-118300000D01*
X195300000Y-103600000D02*
X196700000Y-103600000D01*
X196000000Y-103600000D02*
X195300000Y-102700000D01*
X196700000Y-102700000D02*
X196000000Y-103600000D01*
X195300000Y-102700000D02*
X196700000Y-102700000D01*
X196000000Y-106800000D02*
X196000000Y-105900000D01*
X196000000Y-100300000D02*
X196000000Y-99300000D01*
X195300000Y-84600000D02*
X196700000Y-84600000D01*
X196000000Y-84600000D02*
X195300000Y-83700000D01*
X196700000Y-83700000D02*
X196000000Y-84600000D01*
X195300000Y-83700000D02*
X196700000Y-83700000D01*
X196000000Y-87800000D02*
X196000000Y-86900000D01*
X196000000Y-81300000D02*
X196000000Y-80300000D01*
X195300000Y-65600000D02*
X196700000Y-65600000D01*
X196000000Y-65600000D02*
X195300000Y-64700000D01*
X196700000Y-64700000D02*
X196000000Y-65600000D01*
X195300000Y-64700000D02*
X196700000Y-64700000D01*
X196000000Y-68800000D02*
X196000000Y-67900000D01*
X196000000Y-62300000D02*
X196000000Y-61300000D01*
X157600000Y-122500000D02*
X159000000Y-122500000D01*
X158300000Y-122500000D02*
X157600000Y-121600000D01*
X159000000Y-121600000D02*
X158300000Y-122500000D01*
X157600000Y-121600000D02*
X159000000Y-121600000D01*
X158300000Y-125700000D02*
X158300000Y-124800000D01*
X158300000Y-119200000D02*
X158300000Y-118200000D01*
X176300000Y-103600000D02*
X177700000Y-103600000D01*
X177000000Y-103600000D02*
X176300000Y-102700000D01*
X177700000Y-102700000D02*
X177000000Y-103600000D01*
X176300000Y-102700000D02*
X177700000Y-102700000D01*
X177000000Y-106800000D02*
X177000000Y-105900000D01*
X177000000Y-100300000D02*
X177000000Y-99300000D01*
X176300000Y-84600000D02*
X177700000Y-84600000D01*
X177000000Y-84600000D02*
X176300000Y-83700000D01*
X177700000Y-83700000D02*
X177000000Y-84600000D01*
X176300000Y-83700000D02*
X177700000Y-83700000D01*
X177000000Y-87800000D02*
X177000000Y-86900000D01*
X177000000Y-81300000D02*
X177000000Y-80300000D01*
X176300000Y-65600000D02*
X177700000Y-65600000D01*
X177000000Y-65600000D02*
X176300000Y-64700000D01*
X177700000Y-64700000D02*
X177000000Y-65600000D01*
X176300000Y-64700000D02*
X177700000Y-64700000D01*
X177000000Y-68800000D02*
X177000000Y-67900000D01*
X177000000Y-62300000D02*
X177000000Y-61300000D01*
X138300000Y-122600000D02*
X139700000Y-122600000D01*
X139000000Y-122600000D02*
X138300000Y-121700000D01*
X139700000Y-121700000D02*
X139000000Y-122600000D01*
X138300000Y-121700000D02*
X139700000Y-121700000D01*
X139000000Y-125800000D02*
X139000000Y-124900000D01*
X139000000Y-119300000D02*
X139000000Y-118300000D01*
X157300000Y-103600000D02*
X158700000Y-103600000D01*
X158000000Y-103600000D02*
X157300000Y-102700000D01*
X158700000Y-102700000D02*
X158000000Y-103600000D01*
X157300000Y-102700000D02*
X158700000Y-102700000D01*
X158000000Y-106800000D02*
X158000000Y-105900000D01*
X158000000Y-100300000D02*
X158000000Y-99300000D01*
X157300000Y-84600000D02*
X158700000Y-84600000D01*
X158000000Y-84600000D02*
X157300000Y-83700000D01*
X158700000Y-83700000D02*
X158000000Y-84600000D01*
X157300000Y-83700000D02*
X158700000Y-83700000D01*
X158000000Y-87800000D02*
X158000000Y-86900000D01*
X158000000Y-81300000D02*
X158000000Y-80300000D01*
X157300000Y-65600000D02*
X158700000Y-65600000D01*
X158000000Y-65600000D02*
X157300000Y-64700000D01*
X158700000Y-64700000D02*
X158000000Y-65600000D01*
X157300000Y-64700000D02*
X158700000Y-64700000D01*
X158000000Y-68800000D02*
X158000000Y-67900000D01*
X158000000Y-62300000D02*
X158000000Y-61300000D01*
X129000000Y-111800000D02*
X129000000Y-113200000D01*
X129000000Y-112500000D02*
X129900000Y-111800000D01*
X129900000Y-113200000D02*
X129000000Y-112500000D01*
X129900000Y-111800000D02*
X129900000Y-113200000D01*
X125800000Y-112500000D02*
X126700000Y-112500000D01*
X132300000Y-112500000D02*
X133300000Y-112500000D01*
X138300000Y-103600000D02*
X139700000Y-103600000D01*
X139000000Y-103600000D02*
X138300000Y-102700000D01*
X139700000Y-102700000D02*
X139000000Y-103600000D01*
X138300000Y-102700000D02*
X139700000Y-102700000D01*
X139000000Y-106800000D02*
X139000000Y-105900000D01*
X139000000Y-100300000D02*
X139000000Y-99300000D01*
X138300000Y-84600000D02*
X139700000Y-84600000D01*
X139000000Y-84600000D02*
X138300000Y-83700000D01*
X139700000Y-83700000D02*
X139000000Y-84600000D01*
X138300000Y-83700000D02*
X139700000Y-83700000D01*
X139000000Y-87800000D02*
X139000000Y-86900000D01*
X139000000Y-81300000D02*
X139000000Y-80300000D01*
X120700000Y-121500000D02*
X119300000Y-121500000D01*
X120000000Y-121500000D02*
X120700000Y-122400000D01*
X119300000Y-122400000D02*
X120000000Y-121500000D01*
X120700000Y-122400000D02*
X119300000Y-122400000D01*
X120000000Y-118300000D02*
X120000000Y-119200000D01*
X120000000Y-124800000D02*
X120000000Y-125800000D01*
X138300000Y-65600000D02*
X139700000Y-65600000D01*
X139000000Y-65600000D02*
X138300000Y-64700000D01*
X139700000Y-64700000D02*
X139000000Y-65600000D01*
X138300000Y-64700000D02*
X139700000Y-64700000D01*
X139000000Y-68800000D02*
X139000000Y-67900000D01*
X139000000Y-62300000D02*
X139000000Y-61300000D01*
X214300000Y-65600000D02*
X215700000Y-65600000D01*
X215000000Y-65600000D02*
X214300000Y-64700000D01*
X215700000Y-64700000D02*
X215000000Y-65600000D01*
X214300000Y-64700000D02*
X215700000Y-64700000D01*
X215000000Y-68800000D02*
X215000000Y-67900000D01*
X215000000Y-62300000D02*
X215000000Y-61300000D01*
D13*
G36*
X118235194Y-91248323D02*
X118285677Y-91248790D01*
X118333193Y-91249598D01*
X118376102Y-91250746D01*
X118412763Y-91252233D01*
X118441535Y-91254060D01*
X118449580Y-91254794D01*
X118616469Y-91275972D01*
X118779076Y-91305181D01*
X118937977Y-91342647D01*
X119093750Y-91388598D01*
X119246973Y-91443261D01*
X119398223Y-91506862D01*
X119548078Y-91579630D01*
X119697116Y-91661791D01*
X119845914Y-91753573D01*
X119995049Y-91855203D01*
X120018171Y-91871806D01*
X120078002Y-91915063D01*
X120109611Y-91905405D01*
X120170540Y-91889340D01*
X120230431Y-91879124D01*
X120293195Y-91874202D01*
X120334260Y-91873561D01*
X120379776Y-91874638D01*
X120417784Y-91877773D01*
X120450814Y-91883481D01*
X120481400Y-91892279D01*
X120512074Y-91904680D01*
X120530420Y-91913484D01*
X120579624Y-91942274D01*
X120622649Y-91976562D01*
X120660599Y-92017513D01*
X120694581Y-92066291D01*
X120720938Y-92114311D01*
X120743200Y-92159112D01*
X120743200Y-93246131D01*
X120726690Y-93326595D01*
X120720453Y-93357773D01*
X120716056Y-93382691D01*
X120713213Y-93404427D01*
X120711643Y-93426059D01*
X120711061Y-93450664D01*
X120711184Y-93481319D01*
X120711333Y-93493420D01*
X120711813Y-93515395D01*
X120712762Y-93546184D01*
X120714125Y-93584453D01*
X120715848Y-93628870D01*
X120717878Y-93678100D01*
X120720159Y-93730812D01*
X120722640Y-93785672D01*
X120725264Y-93841346D01*
X120726129Y-93859180D01*
X120728674Y-93912143D01*
X120730892Y-93960573D01*
X120732809Y-94005651D01*
X120734448Y-94048561D01*
X120735836Y-94090483D01*
X120736995Y-94132602D01*
X120737952Y-94176099D01*
X120738730Y-94222156D01*
X120739354Y-94271956D01*
X120739850Y-94326682D01*
X120740240Y-94387515D01*
X120740551Y-94455638D01*
X120740807Y-94532234D01*
X120740906Y-94567840D01*
X120741056Y-94632548D01*
X120741157Y-94694003D01*
X120741211Y-94751495D01*
X120741219Y-94804313D01*
X120741182Y-94851745D01*
X120741102Y-94893081D01*
X120740979Y-94927609D01*
X120740816Y-94954619D01*
X120740612Y-94973400D01*
X120740370Y-94983241D01*
X120740174Y-94984400D01*
X120738901Y-94972269D01*
X120737213Y-94950694D01*
X120735146Y-94920381D01*
X120732738Y-94882035D01*
X120730023Y-94836363D01*
X120727040Y-94784070D01*
X120723823Y-94725862D01*
X120720410Y-94662446D01*
X120716836Y-94594526D01*
X120713138Y-94522808D01*
X120709353Y-94447999D01*
X120705516Y-94370805D01*
X120701665Y-94291930D01*
X120697835Y-94212082D01*
X120694062Y-94131965D01*
X120690384Y-94052286D01*
X120686836Y-93973751D01*
X120683455Y-93897065D01*
X120680277Y-93822935D01*
X120679878Y-93813460D01*
X120677477Y-93757242D01*
X120675097Y-93703236D01*
X120672786Y-93652437D01*
X120670593Y-93605843D01*
X120668566Y-93564448D01*
X120666755Y-93529249D01*
X120665207Y-93501242D01*
X120663973Y-93481423D01*
X120663119Y-93470955D01*
X120659380Y-93438330D01*
X120588260Y-93402157D01*
X120559304Y-93387083D01*
X120529432Y-93370941D01*
X120501713Y-93355426D01*
X120479215Y-93342232D01*
X120474416Y-93339276D01*
X120386920Y-93279212D01*
X120308075Y-93213827D01*
X120237889Y-93143141D01*
X120176370Y-93067173D01*
X120123525Y-92985943D01*
X120079363Y-92899471D01*
X120043891Y-92807778D01*
X120017118Y-92710883D01*
X119999051Y-92608806D01*
X119989699Y-92501567D01*
X119989069Y-92389186D01*
X119997169Y-92271682D01*
X120009365Y-92177700D01*
X120014824Y-92144345D01*
X120021087Y-92109091D01*
X120027480Y-92075563D01*
X120033330Y-92047386D01*
X120034873Y-92040540D01*
X120042173Y-92009615D01*
X120047311Y-91986864D01*
X120049846Y-91970451D01*
X120049343Y-91958536D01*
X120045362Y-91949282D01*
X120037465Y-91940851D01*
X120025214Y-91931406D01*
X120008172Y-91919108D01*
X120005452Y-91917108D01*
X119853302Y-91810422D01*
X119699083Y-91713569D01*
X119542858Y-91626573D01*
X119384686Y-91549461D01*
X119224628Y-91482257D01*
X119062745Y-91424987D01*
X118899097Y-91377676D01*
X118733745Y-91340349D01*
X118566750Y-91313032D01*
X118557717Y-91311847D01*
X118498777Y-91304666D01*
X118444328Y-91299113D01*
X118391630Y-91295024D01*
X118337946Y-91292233D01*
X118280535Y-91290575D01*
X118216660Y-91289883D01*
X118193040Y-91289839D01*
X118048141Y-91292874D01*
X117909253Y-91302101D01*
X117774195Y-91317707D01*
X117672340Y-91334023D01*
X117599900Y-91349502D01*
X117521339Y-91370787D01*
X117438358Y-91397203D01*
X117352662Y-91428077D01*
X117265954Y-91462735D01*
X117179939Y-91500504D01*
X117096319Y-91540710D01*
X117016797Y-91582679D01*
X116958600Y-91616274D01*
X116928064Y-91634713D01*
X116905746Y-91648546D01*
X116891172Y-91658428D01*
X116883868Y-91665014D01*
X116883359Y-91668960D01*
X116889173Y-91670920D01*
X116900835Y-91671550D01*
X116917872Y-91671506D01*
X116918654Y-91671499D01*
X116944421Y-91672042D01*
X116964031Y-91674582D01*
X116981397Y-91679740D01*
X116988184Y-91682499D01*
X117012285Y-91696871D01*
X117037131Y-91718681D01*
X117060523Y-91745643D01*
X117080260Y-91775470D01*
X117083617Y-91781656D01*
X117091403Y-91797220D01*
X117095817Y-91809253D01*
X117097468Y-91821408D01*
X117096964Y-91837339D01*
X117095581Y-91853488D01*
X117089563Y-91893264D01*
X117078582Y-91932520D01*
X117062081Y-91972253D01*
X117039499Y-92013456D01*
X117010279Y-92057125D01*
X116973861Y-92104255D01*
X116929686Y-92155841D01*
X116919185Y-92167540D01*
X116845136Y-92244121D01*
X116770643Y-92310554D01*
X116695707Y-92366840D01*
X116680663Y-92376881D01*
X116634675Y-92404468D01*
X116592385Y-92424259D01*
X116551818Y-92436886D01*
X116511000Y-92442985D01*
X116473282Y-92443453D01*
X116448735Y-92441883D01*
X116429937Y-92438939D01*
X116412483Y-92433551D01*
X116391966Y-92424652D01*
X116387964Y-92422765D01*
X116351671Y-92401481D01*
X116316626Y-92373585D01*
X116286430Y-92342128D01*
X116275084Y-92327191D01*
X116265704Y-92315167D01*
X116259109Y-92311036D01*
X116254508Y-92312744D01*
X116249392Y-92319170D01*
X116240536Y-92332442D01*
X116229220Y-92350573D01*
X116217686Y-92369925D01*
X116145279Y-92503075D01*
X116079693Y-92642693D01*
X116020876Y-92788961D01*
X115968776Y-92942062D01*
X115923339Y-93102175D01*
X115884512Y-93269485D01*
X115852245Y-93444171D01*
X115826482Y-93626415D01*
X115810972Y-93772820D01*
X115806657Y-93823987D01*
X115802731Y-93878290D01*
X115799209Y-93934841D01*
X115796108Y-93992757D01*
X115793446Y-94051151D01*
X115791238Y-94109139D01*
X115789502Y-94165837D01*
X115788253Y-94220357D01*
X115787510Y-94271816D01*
X115787287Y-94319329D01*
X115787602Y-94362010D01*
X115788472Y-94398973D01*
X115789913Y-94429335D01*
X115791942Y-94452210D01*
X115794575Y-94466712D01*
X115797820Y-94471956D01*
X115801437Y-94467721D01*
X115805052Y-94456361D01*
X115806705Y-94447757D01*
X115836523Y-94287427D01*
X115876134Y-94129593D01*
X115925408Y-93974562D01*
X115959187Y-93887298D01*
X116176524Y-93887298D01*
X116176547Y-93896797D01*
X116177357Y-93928595D01*
X116179367Y-93959699D01*
X116182335Y-93988226D01*
X116186023Y-94012297D01*
X116190191Y-94030030D01*
X116194600Y-94039546D01*
X116194745Y-94039697D01*
X116202340Y-94044267D01*
X116215554Y-94050083D01*
X116230256Y-94055535D01*
X116242314Y-94059008D01*
X116245444Y-94059482D01*
X116253016Y-94056822D01*
X116263765Y-94049875D01*
X116264636Y-94049199D01*
X116278566Y-94034805D01*
X116289095Y-94015463D01*
X116296843Y-93989561D01*
X116302425Y-93955491D01*
X116303219Y-93948628D01*
X116305701Y-93923491D01*
X116306549Y-93905465D01*
X116305663Y-93891615D01*
X116302943Y-93879010D01*
X116300572Y-93871375D01*
X116287408Y-93842720D01*
X116270060Y-93822286D01*
X116249269Y-93810594D01*
X116225773Y-93808166D01*
X116214035Y-93810366D01*
X116199430Y-93814975D01*
X116189171Y-93820554D01*
X116182503Y-93828840D01*
X116178675Y-93841569D01*
X116176933Y-93860476D01*
X116176524Y-93887298D01*
X115959187Y-93887298D01*
X115984218Y-93822637D01*
X116013729Y-93758387D01*
X116498018Y-93758387D01*
X116500105Y-93794366D01*
X116506524Y-93826280D01*
X116516930Y-93851618D01*
X116519025Y-93855022D01*
X116530566Y-93872314D01*
X116538722Y-93881815D01*
X116545835Y-93884121D01*
X116554251Y-93879832D01*
X116566313Y-93869545D01*
X116568453Y-93867636D01*
X116578903Y-93854742D01*
X116585890Y-93837051D01*
X116589609Y-93813316D01*
X116590254Y-93782290D01*
X116588019Y-93742725D01*
X116587980Y-93742246D01*
X116584261Y-93705090D01*
X116579699Y-93677249D01*
X116573831Y-93657883D01*
X116566191Y-93646154D01*
X116556313Y-93641222D01*
X116543735Y-93642249D01*
X116534363Y-93645516D01*
X116523534Y-93651414D01*
X116515605Y-93659863D01*
X116509738Y-93672739D01*
X116505090Y-93691920D01*
X116500821Y-93719279D01*
X116500608Y-93720856D01*
X116498018Y-93758387D01*
X116013729Y-93758387D01*
X116052434Y-93674121D01*
X116129930Y-93529320D01*
X116216577Y-93388538D01*
X116228403Y-93371639D01*
X117589541Y-93371639D01*
X117594948Y-93402167D01*
X117606061Y-93425391D01*
X117617288Y-93439384D01*
X117627819Y-93444658D01*
X117640015Y-93442182D01*
X117643198Y-93440672D01*
X117654589Y-93435091D01*
X117665104Y-93430128D01*
X117682446Y-93416840D01*
X117696153Y-93395834D01*
X117705479Y-93369131D01*
X117709681Y-93338753D01*
X117708697Y-93311815D01*
X117705090Y-93293586D01*
X117698043Y-93280698D01*
X117688997Y-93271587D01*
X117670381Y-93260397D01*
X117651833Y-93259364D01*
X117633384Y-93268482D01*
X117620342Y-93281139D01*
X117602468Y-93308797D01*
X117592124Y-93339740D01*
X117589541Y-93371639D01*
X116228403Y-93371639D01*
X116309469Y-93255805D01*
X116322061Y-93239828D01*
X117851178Y-93239828D01*
X117851321Y-93265427D01*
X117851560Y-93283120D01*
X117852298Y-93316470D01*
X117853556Y-93341819D01*
X117855560Y-93361323D01*
X117858533Y-93377136D01*
X117862701Y-93391414D01*
X117862925Y-93392068D01*
X117872298Y-93416646D01*
X117881017Y-93432829D01*
X117890235Y-93442221D01*
X117901103Y-93446427D01*
X117902099Y-93446590D01*
X117913467Y-93448401D01*
X117919304Y-93449478D01*
X117925058Y-93447190D01*
X117934671Y-93440609D01*
X117935100Y-93440273D01*
X117943924Y-93430863D01*
X117950586Y-93417636D01*
X117955149Y-93399675D01*
X117956985Y-93382510D01*
X119393869Y-93382510D01*
X119399965Y-93410528D01*
X119412124Y-93430901D01*
X119428532Y-93442574D01*
X119442905Y-93448113D01*
X119454004Y-93449436D01*
X119466504Y-93446505D01*
X119477940Y-93442162D01*
X119496512Y-93429823D01*
X119513996Y-93409140D01*
X119529769Y-93381920D01*
X119543210Y-93349969D01*
X119553698Y-93315093D01*
X119560611Y-93279098D01*
X119563327Y-93243790D01*
X119561224Y-93210974D01*
X119559972Y-93203860D01*
X119556452Y-93185703D01*
X119553692Y-93170323D01*
X119552551Y-93162963D01*
X119547302Y-93148109D01*
X119536027Y-93140901D01*
X119518440Y-93141277D01*
X119494253Y-93149175D01*
X119492671Y-93149849D01*
X119469630Y-93162861D01*
X119450331Y-93181188D01*
X119432929Y-93206784D01*
X119425005Y-93221636D01*
X119413102Y-93248401D01*
X119404518Y-93275678D01*
X119398480Y-93306598D01*
X119394215Y-93344290D01*
X119393968Y-93347205D01*
X119393869Y-93382510D01*
X117956985Y-93382510D01*
X117957676Y-93376061D01*
X117958230Y-93345877D01*
X117956874Y-93308205D01*
X117953671Y-93262127D01*
X117950108Y-93221640D01*
X117946384Y-93195872D01*
X117940621Y-93172405D01*
X117933539Y-93153187D01*
X117925858Y-93140168D01*
X117918299Y-93135300D01*
X117918208Y-93135299D01*
X117896875Y-93138995D01*
X117879779Y-93150798D01*
X117865698Y-93171605D01*
X117863909Y-93175263D01*
X117858785Y-93186581D01*
X117855186Y-93196638D01*
X117852875Y-93207493D01*
X117851618Y-93221203D01*
X117851178Y-93239828D01*
X116322061Y-93239828D01*
X116416417Y-93120112D01*
X116532815Y-92987936D01*
X116658526Y-92859417D01*
X116793417Y-92734697D01*
X116859608Y-92677717D01*
X116928438Y-92623165D01*
X117004315Y-92569082D01*
X117085102Y-92516726D01*
X117168662Y-92467352D01*
X117252855Y-92422216D01*
X117335545Y-92382574D01*
X117414593Y-92349682D01*
X117424159Y-92346090D01*
X117549649Y-92304775D01*
X117676518Y-92273358D01*
X117804846Y-92251845D01*
X117934714Y-92240237D01*
X118066200Y-92238540D01*
X118199385Y-92246756D01*
X118334348Y-92264889D01*
X118471170Y-92292941D01*
X118609931Y-92330918D01*
X118750710Y-92378821D01*
X118822584Y-92406781D01*
X118856889Y-92421213D01*
X118896251Y-92438662D01*
X118938732Y-92458193D01*
X118982396Y-92478870D01*
X119025307Y-92499757D01*
X119065527Y-92519920D01*
X119101122Y-92538423D01*
X119130153Y-92554331D01*
X119140460Y-92560333D01*
X119235516Y-92622862D01*
X119327340Y-92694719D01*
X119415524Y-92775473D01*
X119499660Y-92864691D01*
X119579341Y-92961944D01*
X119654159Y-93066800D01*
X119722023Y-93175920D01*
X119790399Y-93302328D01*
X119853979Y-93437666D01*
X119912755Y-93581897D01*
X119966718Y-93734991D01*
X120015861Y-93896912D01*
X120060176Y-94067628D01*
X120099653Y-94247105D01*
X120134284Y-94435311D01*
X120164061Y-94632211D01*
X120188977Y-94837773D01*
X120209022Y-95051963D01*
X120217209Y-95162200D01*
X120220230Y-95208167D01*
X120223177Y-95256013D01*
X120225974Y-95304211D01*
X120228540Y-95351233D01*
X120230799Y-95395554D01*
X120232672Y-95435646D01*
X120234081Y-95469983D01*
X120234948Y-95497038D01*
X120235200Y-95513464D01*
X120235200Y-95543200D01*
X119391833Y-95543200D01*
X119406881Y-95516530D01*
X119417537Y-95494017D01*
X119426681Y-95466577D01*
X119434389Y-95433545D01*
X119440735Y-95394257D01*
X119445796Y-95348050D01*
X119449647Y-95294258D01*
X119452363Y-95232220D01*
X119454019Y-95161270D01*
X119454639Y-95096160D01*
X119454823Y-95009331D01*
X119454546Y-94931633D01*
X119453791Y-94862047D01*
X119452542Y-94799552D01*
X119450782Y-94743130D01*
X119448493Y-94691761D01*
X119447694Y-94677060D01*
X119443947Y-94611020D01*
X119369537Y-94484020D01*
X119352955Y-94455603D01*
X119332087Y-94419658D01*
X119307682Y-94377480D01*
X119280485Y-94330366D01*
X119251244Y-94279613D01*
X119220707Y-94226517D01*
X119189621Y-94172375D01*
X119158734Y-94118485D01*
X119139053Y-94084093D01*
X119111518Y-94036062D01*
X119085481Y-93990874D01*
X119061373Y-93949265D01*
X119039627Y-93911969D01*
X119020675Y-93879721D01*
X119004949Y-93853257D01*
X118992882Y-93833309D01*
X118984905Y-93820615D01*
X118981450Y-93815907D01*
X118981348Y-93815937D01*
X118981124Y-93822223D01*
X118981421Y-93837094D01*
X118982182Y-93858993D01*
X118983351Y-93886360D01*
X118984872Y-93917638D01*
X118985457Y-93928843D01*
X118986725Y-93956936D01*
X118988029Y-93993541D01*
X118989330Y-94037008D01*
X118990586Y-94085689D01*
X118991757Y-94137936D01*
X118992803Y-94192101D01*
X118993682Y-94246533D01*
X118994152Y-94281891D01*
X118994812Y-94338445D01*
X118995295Y-94385726D01*
X118995580Y-94424619D01*
X118995649Y-94456010D01*
X118995482Y-94480784D01*
X118995059Y-94499826D01*
X118994360Y-94514022D01*
X118993367Y-94524258D01*
X118992060Y-94531418D01*
X118990419Y-94536388D01*
X118988456Y-94540008D01*
X118978662Y-94549938D01*
X118966312Y-94551636D01*
X118960525Y-94550672D01*
X118955722Y-94548400D01*
X118951100Y-94543455D01*
X118945856Y-94534476D01*
X118939186Y-94520096D01*
X118930288Y-94498954D01*
X118919022Y-94471320D01*
X118904450Y-94436942D01*
X118885366Y-94394390D01*
X118862138Y-94344402D01*
X118835131Y-94287714D01*
X118804711Y-94225066D01*
X118771246Y-94157195D01*
X118735101Y-94084839D01*
X118696643Y-94008736D01*
X118656238Y-93929623D01*
X118614253Y-93848240D01*
X118571053Y-93765323D01*
X118527006Y-93681612D01*
X118526456Y-93680571D01*
X118474980Y-93583243D01*
X118473868Y-93606911D01*
X118473533Y-93616725D01*
X118473008Y-93635579D01*
X118472319Y-93662357D01*
X118471494Y-93695941D01*
X118470560Y-93735215D01*
X118469544Y-93779061D01*
X118468472Y-93826361D01*
X118467443Y-93872766D01*
X118465565Y-93952686D01*
X118463627Y-94023347D01*
X118461582Y-94085646D01*
X118459386Y-94140485D01*
X118456995Y-94188763D01*
X118454363Y-94231379D01*
X118451446Y-94269233D01*
X118448199Y-94303225D01*
X118444578Y-94334255D01*
X118444417Y-94335509D01*
X118439883Y-94366915D01*
X118435266Y-94389490D01*
X118429997Y-94404549D01*
X118423509Y-94413409D01*
X118415235Y-94417387D01*
X118408888Y-94417980D01*
X118401330Y-94417598D01*
X118396449Y-94415088D01*
X118393168Y-94408405D01*
X118390405Y-94395503D01*
X118387578Y-94377579D01*
X118382941Y-94353785D01*
X118375930Y-94325452D01*
X118367807Y-94297531D01*
X118364904Y-94288679D01*
X118358396Y-94271484D01*
X118348880Y-94248886D01*
X118336996Y-94222189D01*
X118323385Y-94192695D01*
X118308688Y-94161704D01*
X118293547Y-94130519D01*
X118278603Y-94100441D01*
X118264497Y-94072773D01*
X118251870Y-94048816D01*
X118241363Y-94029871D01*
X118233617Y-94017242D01*
X118229274Y-94012229D01*
X118228790Y-94012323D01*
X118227360Y-94018412D01*
X118225436Y-94033191D01*
X118223161Y-94055208D01*
X118220677Y-94083014D01*
X118218126Y-94115158D01*
X118216437Y-94138580D01*
X118213395Y-94182463D01*
X118209960Y-94231946D01*
X118206403Y-94283149D01*
X118202992Y-94332193D01*
X118199997Y-94375197D01*
X118199848Y-94377340D01*
X118197774Y-94412249D01*
X118195815Y-94454923D01*
X118194048Y-94502967D01*
X118192548Y-94553986D01*
X118191391Y-94605583D01*
X118190653Y-94655365D01*
X118190498Y-94673195D01*
X118190122Y-94722750D01*
X118189651Y-94763090D01*
X118188975Y-94795161D01*
X118187982Y-94819908D01*
X118186562Y-94838277D01*
X118184602Y-94851214D01*
X118181993Y-94859663D01*
X118178622Y-94864570D01*
X118174379Y-94866881D01*
X118169153Y-94867542D01*
X118167640Y-94867560D01*
X118159763Y-94865950D01*
X118153869Y-94860179D01*
X118149460Y-94848832D01*
X118146039Y-94830494D01*
X118143107Y-94803750D01*
X118142421Y-94795929D01*
X118138193Y-94763346D01*
X118130467Y-94722476D01*
X118119541Y-94674456D01*
X118105712Y-94620424D01*
X118089275Y-94561519D01*
X118070529Y-94498877D01*
X118049769Y-94433638D01*
X118041219Y-94407820D01*
X118031014Y-94377340D01*
X118034557Y-94443380D01*
X118035272Y-94462095D01*
X118035922Y-94489616D01*
X118036493Y-94524589D01*
X118036971Y-94565660D01*
X118037343Y-94611474D01*
X118037596Y-94660677D01*
X118037714Y-94711915D01*
X118037700Y-94756633D01*
X118037581Y-94813629D01*
X118037407Y-94861341D01*
X118037146Y-94900646D01*
X118036767Y-94932419D01*
X118036242Y-94957538D01*
X118035539Y-94976878D01*
X118034628Y-94991315D01*
X118033479Y-95001726D01*
X118032062Y-95008987D01*
X118030345Y-95013974D01*
X118028692Y-95016983D01*
X118017704Y-95027792D01*
X118005678Y-95028547D01*
X117992883Y-95019272D01*
X117988235Y-95013610D01*
X117983233Y-95006367D01*
X117973231Y-94991430D01*
X117958772Y-94969623D01*
X117940395Y-94941768D01*
X117918644Y-94908689D01*
X117894058Y-94871207D01*
X117867180Y-94830146D01*
X117838550Y-94786329D01*
X117816976Y-94753260D01*
X117787623Y-94708290D01*
X117759790Y-94665748D01*
X117733994Y-94626418D01*
X117710752Y-94591084D01*
X117690583Y-94560531D01*
X117674005Y-94535544D01*
X117661534Y-94516908D01*
X117653690Y-94505408D01*
X117651139Y-94501921D01*
X117647328Y-94498920D01*
X117646115Y-94502295D01*
X117647243Y-94513570D01*
X117648149Y-94519701D01*
X117649352Y-94532694D01*
X117650391Y-94553779D01*
X117651204Y-94580887D01*
X117651731Y-94611950D01*
X117651910Y-94644900D01*
X117651909Y-94646580D01*
X117651749Y-94682879D01*
X117651247Y-94711063D01*
X117650236Y-94733177D01*
X117648547Y-94751263D01*
X117646015Y-94767366D01*
X117642470Y-94783528D01*
X117639842Y-94793900D01*
X117632954Y-94818133D01*
X117625190Y-94842224D01*
X117617943Y-94861926D01*
X117616102Y-94866290D01*
X117608643Y-94881678D01*
X117602288Y-94889724D01*
X117594806Y-94892683D01*
X117589740Y-94892960D01*
X117578523Y-94890793D01*
X117570575Y-94882541D01*
X117566870Y-94875572D01*
X117564926Y-94868620D01*
X117561165Y-94852359D01*
X117555721Y-94827451D01*
X117548726Y-94794559D01*
X117540314Y-94754345D01*
X117530620Y-94707471D01*
X117519775Y-94654599D01*
X117507915Y-94596391D01*
X117495172Y-94533511D01*
X117481680Y-94466619D01*
X117467572Y-94396377D01*
X117452982Y-94323450D01*
X117438044Y-94248497D01*
X117422890Y-94172182D01*
X117407655Y-94095167D01*
X117392472Y-94018114D01*
X117377474Y-93941686D01*
X117362796Y-93866543D01*
X117348570Y-93793349D01*
X117346126Y-93780736D01*
X117341740Y-93759988D01*
X117338300Y-93748467D01*
X117335483Y-93745319D01*
X117333679Y-93747716D01*
X117331111Y-93755910D01*
X117326510Y-93772767D01*
X117320177Y-93797061D01*
X117312411Y-93827568D01*
X117303513Y-93863063D01*
X117293784Y-93902320D01*
X117283523Y-93944113D01*
X117273032Y-93987218D01*
X117262610Y-94030409D01*
X117252558Y-94072462D01*
X117243176Y-94112150D01*
X117234766Y-94148249D01*
X117227626Y-94179533D01*
X117225686Y-94188204D01*
X117196414Y-94325123D01*
X117170082Y-94459159D01*
X117146991Y-94588641D01*
X117127442Y-94711896D01*
X117114011Y-94809140D01*
X117109352Y-94845074D01*
X117105560Y-94872460D01*
X117102305Y-94892840D01*
X117099261Y-94907755D01*
X117096098Y-94918747D01*
X117092490Y-94927357D01*
X117088108Y-94935127D01*
X117086749Y-94937281D01*
X117080941Y-94944674D01*
X117074646Y-94945429D01*
X117065019Y-94941085D01*
X117061184Y-94938946D01*
X117057419Y-94936214D01*
X117053315Y-94932199D01*
X117048458Y-94926211D01*
X117042436Y-94917561D01*
X117034839Y-94905556D01*
X117025255Y-94889509D01*
X117013271Y-94868728D01*
X116998475Y-94842524D01*
X116980457Y-94810206D01*
X116958804Y-94771084D01*
X116933105Y-94724468D01*
X116902947Y-94669669D01*
X116901424Y-94666900D01*
X116870993Y-94611599D01*
X116845074Y-94564574D01*
X116823289Y-94525193D01*
X116805260Y-94492824D01*
X116790608Y-94466837D01*
X116778957Y-94446600D01*
X116769928Y-94431483D01*
X116763143Y-94420854D01*
X116758223Y-94414082D01*
X116754793Y-94410537D01*
X116752472Y-94409587D01*
X116750883Y-94410601D01*
X116749649Y-94412948D01*
X116749518Y-94413263D01*
X116747249Y-94422054D01*
X116743805Y-94439818D01*
X116739348Y-94465456D01*
X116734041Y-94497868D01*
X116728046Y-94535956D01*
X116721527Y-94578621D01*
X116714645Y-94624764D01*
X116707564Y-94673287D01*
X116700447Y-94723089D01*
X116693456Y-94773073D01*
X116686754Y-94822140D01*
X116680504Y-94869189D01*
X116674868Y-94913124D01*
X116671709Y-94938680D01*
X116662554Y-95019317D01*
X116654985Y-95097004D01*
X116649035Y-95170884D01*
X116644736Y-95240102D01*
X116642123Y-95303803D01*
X116641226Y-95361129D01*
X116642081Y-95411226D01*
X116644718Y-95453237D01*
X116649172Y-95486307D01*
X116650422Y-95492400D01*
X116654483Y-95511497D01*
X116657478Y-95527073D01*
X116658845Y-95536180D01*
X116658875Y-95536850D01*
X116656877Y-95538328D01*
X116650424Y-95539574D01*
X116638835Y-95540604D01*
X116621429Y-95541436D01*
X116597523Y-95542085D01*
X116566436Y-95542568D01*
X116527486Y-95542903D01*
X116479991Y-95543106D01*
X116423269Y-95543193D01*
X116399912Y-95543200D01*
X116140945Y-95543200D01*
X116114392Y-95459330D01*
X116104388Y-95427853D01*
X116096842Y-95405524D01*
X116091054Y-95391837D01*
X116086319Y-95386284D01*
X116081938Y-95388357D01*
X116077207Y-95397550D01*
X116071425Y-95413356D01*
X116067324Y-95425318D01*
X116059618Y-95447108D01*
X116050061Y-95473155D01*
X116040561Y-95498275D01*
X116039395Y-95501290D01*
X116023141Y-95543200D01*
X115932249Y-95543200D01*
X115899486Y-95543111D01*
X115875443Y-95542756D01*
X115858684Y-95542002D01*
X115847770Y-95540714D01*
X115841262Y-95538758D01*
X115837724Y-95536002D01*
X115836633Y-95534310D01*
X115833907Y-95525518D01*
X115830131Y-95508116D01*
X115825536Y-95483571D01*
X115820353Y-95453353D01*
X115814813Y-95418929D01*
X115809147Y-95381768D01*
X115803586Y-95343338D01*
X115798360Y-95305107D01*
X115793702Y-95268545D01*
X115790479Y-95240940D01*
X115785262Y-95188364D01*
X115780325Y-95127868D01*
X115775818Y-95061692D01*
X115771888Y-94992075D01*
X115768684Y-94921256D01*
X115767904Y-94900580D01*
X115766684Y-94874328D01*
X115764789Y-94842353D01*
X115762496Y-94809047D01*
X115760506Y-94783740D01*
X115756031Y-94722296D01*
X115752203Y-94652428D01*
X115749079Y-94575852D01*
X115746716Y-94494288D01*
X115745172Y-94409453D01*
X115744503Y-94323065D01*
X115744480Y-94303595D01*
X115744480Y-94128107D01*
X115705110Y-94108664D01*
X115627228Y-94064804D01*
X115555609Y-94013464D01*
X115490755Y-93955219D01*
X115433168Y-93890648D01*
X115383352Y-93820325D01*
X115341810Y-93744828D01*
X115309043Y-93664733D01*
X115303634Y-93648360D01*
X115280825Y-93560966D01*
X115266060Y-93468632D01*
X115259279Y-93372545D01*
X115260424Y-93273895D01*
X115269437Y-93173871D01*
X115286258Y-93073662D01*
X115310830Y-92974458D01*
X115341445Y-92881832D01*
X115377718Y-92797604D01*
X115420774Y-92720717D01*
X115470412Y-92651349D01*
X115526431Y-92589674D01*
X115588627Y-92535870D01*
X115656800Y-92490112D01*
X115730746Y-92452576D01*
X115810265Y-92423440D01*
X115889135Y-92404017D01*
X115920414Y-92398810D01*
X115956424Y-92394161D01*
X115994734Y-92390257D01*
X116032912Y-92387286D01*
X116068525Y-92385434D01*
X116099144Y-92384890D01*
X116122334Y-92385840D01*
X116123531Y-92385958D01*
X116154602Y-92389183D01*
X116200604Y-92313921D01*
X116259817Y-92221440D01*
X116320415Y-92135992D01*
X116384448Y-92054983D01*
X116453967Y-91975822D01*
X116531021Y-91895914D01*
X116531318Y-91895618D01*
X116633986Y-91799663D01*
X116741642Y-91711348D01*
X116854788Y-91630378D01*
X116973930Y-91556461D01*
X117099572Y-91489305D01*
X117232219Y-91428615D01*
X117372374Y-91374100D01*
X117504700Y-91330273D01*
X117550409Y-91317076D01*
X117597111Y-91305297D01*
X117646209Y-91294688D01*
X117699109Y-91285004D01*
X117757216Y-91275998D01*
X117821935Y-91267426D01*
X117894670Y-91259039D01*
X117936500Y-91254632D01*
X117961829Y-91252701D01*
X117995673Y-91251114D01*
X118036390Y-91249870D01*
X118082341Y-91248970D01*
X118131886Y-91248412D01*
X118183383Y-91248196D01*
X118235194Y-91248323D01*
X118235194Y-91248323D01*
G37*
X118235194Y-91248323D02*
X118285677Y-91248790D01*
X118333193Y-91249598D01*
X118376102Y-91250746D01*
X118412763Y-91252233D01*
X118441535Y-91254060D01*
X118449580Y-91254794D01*
X118616469Y-91275972D01*
X118779076Y-91305181D01*
X118937977Y-91342647D01*
X119093750Y-91388598D01*
X119246973Y-91443261D01*
X119398223Y-91506862D01*
X119548078Y-91579630D01*
X119697116Y-91661791D01*
X119845914Y-91753573D01*
X119995049Y-91855203D01*
X120018171Y-91871806D01*
X120078002Y-91915063D01*
X120109611Y-91905405D01*
X120170540Y-91889340D01*
X120230431Y-91879124D01*
X120293195Y-91874202D01*
X120334260Y-91873561D01*
X120379776Y-91874638D01*
X120417784Y-91877773D01*
X120450814Y-91883481D01*
X120481400Y-91892279D01*
X120512074Y-91904680D01*
X120530420Y-91913484D01*
X120579624Y-91942274D01*
X120622649Y-91976562D01*
X120660599Y-92017513D01*
X120694581Y-92066291D01*
X120720938Y-92114311D01*
X120743200Y-92159112D01*
X120743200Y-93246131D01*
X120726690Y-93326595D01*
X120720453Y-93357773D01*
X120716056Y-93382691D01*
X120713213Y-93404427D01*
X120711643Y-93426059D01*
X120711061Y-93450664D01*
X120711184Y-93481319D01*
X120711333Y-93493420D01*
X120711813Y-93515395D01*
X120712762Y-93546184D01*
X120714125Y-93584453D01*
X120715848Y-93628870D01*
X120717878Y-93678100D01*
X120720159Y-93730812D01*
X120722640Y-93785672D01*
X120725264Y-93841346D01*
X120726129Y-93859180D01*
X120728674Y-93912143D01*
X120730892Y-93960573D01*
X120732809Y-94005651D01*
X120734448Y-94048561D01*
X120735836Y-94090483D01*
X120736995Y-94132602D01*
X120737952Y-94176099D01*
X120738730Y-94222156D01*
X120739354Y-94271956D01*
X120739850Y-94326682D01*
X120740240Y-94387515D01*
X120740551Y-94455638D01*
X120740807Y-94532234D01*
X120740906Y-94567840D01*
X120741056Y-94632548D01*
X120741157Y-94694003D01*
X120741211Y-94751495D01*
X120741219Y-94804313D01*
X120741182Y-94851745D01*
X120741102Y-94893081D01*
X120740979Y-94927609D01*
X120740816Y-94954619D01*
X120740612Y-94973400D01*
X120740370Y-94983241D01*
X120740174Y-94984400D01*
X120738901Y-94972269D01*
X120737213Y-94950694D01*
X120735146Y-94920381D01*
X120732738Y-94882035D01*
X120730023Y-94836363D01*
X120727040Y-94784070D01*
X120723823Y-94725862D01*
X120720410Y-94662446D01*
X120716836Y-94594526D01*
X120713138Y-94522808D01*
X120709353Y-94447999D01*
X120705516Y-94370805D01*
X120701665Y-94291930D01*
X120697835Y-94212082D01*
X120694062Y-94131965D01*
X120690384Y-94052286D01*
X120686836Y-93973751D01*
X120683455Y-93897065D01*
X120680277Y-93822935D01*
X120679878Y-93813460D01*
X120677477Y-93757242D01*
X120675097Y-93703236D01*
X120672786Y-93652437D01*
X120670593Y-93605843D01*
X120668566Y-93564448D01*
X120666755Y-93529249D01*
X120665207Y-93501242D01*
X120663973Y-93481423D01*
X120663119Y-93470955D01*
X120659380Y-93438330D01*
X120588260Y-93402157D01*
X120559304Y-93387083D01*
X120529432Y-93370941D01*
X120501713Y-93355426D01*
X120479215Y-93342232D01*
X120474416Y-93339276D01*
X120386920Y-93279212D01*
X120308075Y-93213827D01*
X120237889Y-93143141D01*
X120176370Y-93067173D01*
X120123525Y-92985943D01*
X120079363Y-92899471D01*
X120043891Y-92807778D01*
X120017118Y-92710883D01*
X119999051Y-92608806D01*
X119989699Y-92501567D01*
X119989069Y-92389186D01*
X119997169Y-92271682D01*
X120009365Y-92177700D01*
X120014824Y-92144345D01*
X120021087Y-92109091D01*
X120027480Y-92075563D01*
X120033330Y-92047386D01*
X120034873Y-92040540D01*
X120042173Y-92009615D01*
X120047311Y-91986864D01*
X120049846Y-91970451D01*
X120049343Y-91958536D01*
X120045362Y-91949282D01*
X120037465Y-91940851D01*
X120025214Y-91931406D01*
X120008172Y-91919108D01*
X120005452Y-91917108D01*
X119853302Y-91810422D01*
X119699083Y-91713569D01*
X119542858Y-91626573D01*
X119384686Y-91549461D01*
X119224628Y-91482257D01*
X119062745Y-91424987D01*
X118899097Y-91377676D01*
X118733745Y-91340349D01*
X118566750Y-91313032D01*
X118557717Y-91311847D01*
X118498777Y-91304666D01*
X118444328Y-91299113D01*
X118391630Y-91295024D01*
X118337946Y-91292233D01*
X118280535Y-91290575D01*
X118216660Y-91289883D01*
X118193040Y-91289839D01*
X118048141Y-91292874D01*
X117909253Y-91302101D01*
X117774195Y-91317707D01*
X117672340Y-91334023D01*
X117599900Y-91349502D01*
X117521339Y-91370787D01*
X117438358Y-91397203D01*
X117352662Y-91428077D01*
X117265954Y-91462735D01*
X117179939Y-91500504D01*
X117096319Y-91540710D01*
X117016797Y-91582679D01*
X116958600Y-91616274D01*
X116928064Y-91634713D01*
X116905746Y-91648546D01*
X116891172Y-91658428D01*
X116883868Y-91665014D01*
X116883359Y-91668960D01*
X116889173Y-91670920D01*
X116900835Y-91671550D01*
X116917872Y-91671506D01*
X116918654Y-91671499D01*
X116944421Y-91672042D01*
X116964031Y-91674582D01*
X116981397Y-91679740D01*
X116988184Y-91682499D01*
X117012285Y-91696871D01*
X117037131Y-91718681D01*
X117060523Y-91745643D01*
X117080260Y-91775470D01*
X117083617Y-91781656D01*
X117091403Y-91797220D01*
X117095817Y-91809253D01*
X117097468Y-91821408D01*
X117096964Y-91837339D01*
X117095581Y-91853488D01*
X117089563Y-91893264D01*
X117078582Y-91932520D01*
X117062081Y-91972253D01*
X117039499Y-92013456D01*
X117010279Y-92057125D01*
X116973861Y-92104255D01*
X116929686Y-92155841D01*
X116919185Y-92167540D01*
X116845136Y-92244121D01*
X116770643Y-92310554D01*
X116695707Y-92366840D01*
X116680663Y-92376881D01*
X116634675Y-92404468D01*
X116592385Y-92424259D01*
X116551818Y-92436886D01*
X116511000Y-92442985D01*
X116473282Y-92443453D01*
X116448735Y-92441883D01*
X116429937Y-92438939D01*
X116412483Y-92433551D01*
X116391966Y-92424652D01*
X116387964Y-92422765D01*
X116351671Y-92401481D01*
X116316626Y-92373585D01*
X116286430Y-92342128D01*
X116275084Y-92327191D01*
X116265704Y-92315167D01*
X116259109Y-92311036D01*
X116254508Y-92312744D01*
X116249392Y-92319170D01*
X116240536Y-92332442D01*
X116229220Y-92350573D01*
X116217686Y-92369925D01*
X116145279Y-92503075D01*
X116079693Y-92642693D01*
X116020876Y-92788961D01*
X115968776Y-92942062D01*
X115923339Y-93102175D01*
X115884512Y-93269485D01*
X115852245Y-93444171D01*
X115826482Y-93626415D01*
X115810972Y-93772820D01*
X115806657Y-93823987D01*
X115802731Y-93878290D01*
X115799209Y-93934841D01*
X115796108Y-93992757D01*
X115793446Y-94051151D01*
X115791238Y-94109139D01*
X115789502Y-94165837D01*
X115788253Y-94220357D01*
X115787510Y-94271816D01*
X115787287Y-94319329D01*
X115787602Y-94362010D01*
X115788472Y-94398973D01*
X115789913Y-94429335D01*
X115791942Y-94452210D01*
X115794575Y-94466712D01*
X115797820Y-94471956D01*
X115801437Y-94467721D01*
X115805052Y-94456361D01*
X115806705Y-94447757D01*
X115836523Y-94287427D01*
X115876134Y-94129593D01*
X115925408Y-93974562D01*
X115959187Y-93887298D01*
X116176524Y-93887298D01*
X116176547Y-93896797D01*
X116177357Y-93928595D01*
X116179367Y-93959699D01*
X116182335Y-93988226D01*
X116186023Y-94012297D01*
X116190191Y-94030030D01*
X116194600Y-94039546D01*
X116194745Y-94039697D01*
X116202340Y-94044267D01*
X116215554Y-94050083D01*
X116230256Y-94055535D01*
X116242314Y-94059008D01*
X116245444Y-94059482D01*
X116253016Y-94056822D01*
X116263765Y-94049875D01*
X116264636Y-94049199D01*
X116278566Y-94034805D01*
X116289095Y-94015463D01*
X116296843Y-93989561D01*
X116302425Y-93955491D01*
X116303219Y-93948628D01*
X116305701Y-93923491D01*
X116306549Y-93905465D01*
X116305663Y-93891615D01*
X116302943Y-93879010D01*
X116300572Y-93871375D01*
X116287408Y-93842720D01*
X116270060Y-93822286D01*
X116249269Y-93810594D01*
X116225773Y-93808166D01*
X116214035Y-93810366D01*
X116199430Y-93814975D01*
X116189171Y-93820554D01*
X116182503Y-93828840D01*
X116178675Y-93841569D01*
X116176933Y-93860476D01*
X116176524Y-93887298D01*
X115959187Y-93887298D01*
X115984218Y-93822637D01*
X116013729Y-93758387D01*
X116498018Y-93758387D01*
X116500105Y-93794366D01*
X116506524Y-93826280D01*
X116516930Y-93851618D01*
X116519025Y-93855022D01*
X116530566Y-93872314D01*
X116538722Y-93881815D01*
X116545835Y-93884121D01*
X116554251Y-93879832D01*
X116566313Y-93869545D01*
X116568453Y-93867636D01*
X116578903Y-93854742D01*
X116585890Y-93837051D01*
X116589609Y-93813316D01*
X116590254Y-93782290D01*
X116588019Y-93742725D01*
X116587980Y-93742246D01*
X116584261Y-93705090D01*
X116579699Y-93677249D01*
X116573831Y-93657883D01*
X116566191Y-93646154D01*
X116556313Y-93641222D01*
X116543735Y-93642249D01*
X116534363Y-93645516D01*
X116523534Y-93651414D01*
X116515605Y-93659863D01*
X116509738Y-93672739D01*
X116505090Y-93691920D01*
X116500821Y-93719279D01*
X116500608Y-93720856D01*
X116498018Y-93758387D01*
X116013729Y-93758387D01*
X116052434Y-93674121D01*
X116129930Y-93529320D01*
X116216577Y-93388538D01*
X116228403Y-93371639D01*
X117589541Y-93371639D01*
X117594948Y-93402167D01*
X117606061Y-93425391D01*
X117617288Y-93439384D01*
X117627819Y-93444658D01*
X117640015Y-93442182D01*
X117643198Y-93440672D01*
X117654589Y-93435091D01*
X117665104Y-93430128D01*
X117682446Y-93416840D01*
X117696153Y-93395834D01*
X117705479Y-93369131D01*
X117709681Y-93338753D01*
X117708697Y-93311815D01*
X117705090Y-93293586D01*
X117698043Y-93280698D01*
X117688997Y-93271587D01*
X117670381Y-93260397D01*
X117651833Y-93259364D01*
X117633384Y-93268482D01*
X117620342Y-93281139D01*
X117602468Y-93308797D01*
X117592124Y-93339740D01*
X117589541Y-93371639D01*
X116228403Y-93371639D01*
X116309469Y-93255805D01*
X116322061Y-93239828D01*
X117851178Y-93239828D01*
X117851321Y-93265427D01*
X117851560Y-93283120D01*
X117852298Y-93316470D01*
X117853556Y-93341819D01*
X117855560Y-93361323D01*
X117858533Y-93377136D01*
X117862701Y-93391414D01*
X117862925Y-93392068D01*
X117872298Y-93416646D01*
X117881017Y-93432829D01*
X117890235Y-93442221D01*
X117901103Y-93446427D01*
X117902099Y-93446590D01*
X117913467Y-93448401D01*
X117919304Y-93449478D01*
X117925058Y-93447190D01*
X117934671Y-93440609D01*
X117935100Y-93440273D01*
X117943924Y-93430863D01*
X117950586Y-93417636D01*
X117955149Y-93399675D01*
X117956985Y-93382510D01*
X119393869Y-93382510D01*
X119399965Y-93410528D01*
X119412124Y-93430901D01*
X119428532Y-93442574D01*
X119442905Y-93448113D01*
X119454004Y-93449436D01*
X119466504Y-93446505D01*
X119477940Y-93442162D01*
X119496512Y-93429823D01*
X119513996Y-93409140D01*
X119529769Y-93381920D01*
X119543210Y-93349969D01*
X119553698Y-93315093D01*
X119560611Y-93279098D01*
X119563327Y-93243790D01*
X119561224Y-93210974D01*
X119559972Y-93203860D01*
X119556452Y-93185703D01*
X119553692Y-93170323D01*
X119552551Y-93162963D01*
X119547302Y-93148109D01*
X119536027Y-93140901D01*
X119518440Y-93141277D01*
X119494253Y-93149175D01*
X119492671Y-93149849D01*
X119469630Y-93162861D01*
X119450331Y-93181188D01*
X119432929Y-93206784D01*
X119425005Y-93221636D01*
X119413102Y-93248401D01*
X119404518Y-93275678D01*
X119398480Y-93306598D01*
X119394215Y-93344290D01*
X119393968Y-93347205D01*
X119393869Y-93382510D01*
X117956985Y-93382510D01*
X117957676Y-93376061D01*
X117958230Y-93345877D01*
X117956874Y-93308205D01*
X117953671Y-93262127D01*
X117950108Y-93221640D01*
X117946384Y-93195872D01*
X117940621Y-93172405D01*
X117933539Y-93153187D01*
X117925858Y-93140168D01*
X117918299Y-93135300D01*
X117918208Y-93135299D01*
X117896875Y-93138995D01*
X117879779Y-93150798D01*
X117865698Y-93171605D01*
X117863909Y-93175263D01*
X117858785Y-93186581D01*
X117855186Y-93196638D01*
X117852875Y-93207493D01*
X117851618Y-93221203D01*
X117851178Y-93239828D01*
X116322061Y-93239828D01*
X116416417Y-93120112D01*
X116532815Y-92987936D01*
X116658526Y-92859417D01*
X116793417Y-92734697D01*
X116859608Y-92677717D01*
X116928438Y-92623165D01*
X117004315Y-92569082D01*
X117085102Y-92516726D01*
X117168662Y-92467352D01*
X117252855Y-92422216D01*
X117335545Y-92382574D01*
X117414593Y-92349682D01*
X117424159Y-92346090D01*
X117549649Y-92304775D01*
X117676518Y-92273358D01*
X117804846Y-92251845D01*
X117934714Y-92240237D01*
X118066200Y-92238540D01*
X118199385Y-92246756D01*
X118334348Y-92264889D01*
X118471170Y-92292941D01*
X118609931Y-92330918D01*
X118750710Y-92378821D01*
X118822584Y-92406781D01*
X118856889Y-92421213D01*
X118896251Y-92438662D01*
X118938732Y-92458193D01*
X118982396Y-92478870D01*
X119025307Y-92499757D01*
X119065527Y-92519920D01*
X119101122Y-92538423D01*
X119130153Y-92554331D01*
X119140460Y-92560333D01*
X119235516Y-92622862D01*
X119327340Y-92694719D01*
X119415524Y-92775473D01*
X119499660Y-92864691D01*
X119579341Y-92961944D01*
X119654159Y-93066800D01*
X119722023Y-93175920D01*
X119790399Y-93302328D01*
X119853979Y-93437666D01*
X119912755Y-93581897D01*
X119966718Y-93734991D01*
X120015861Y-93896912D01*
X120060176Y-94067628D01*
X120099653Y-94247105D01*
X120134284Y-94435311D01*
X120164061Y-94632211D01*
X120188977Y-94837773D01*
X120209022Y-95051963D01*
X120217209Y-95162200D01*
X120220230Y-95208167D01*
X120223177Y-95256013D01*
X120225974Y-95304211D01*
X120228540Y-95351233D01*
X120230799Y-95395554D01*
X120232672Y-95435646D01*
X120234081Y-95469983D01*
X120234948Y-95497038D01*
X120235200Y-95513464D01*
X120235200Y-95543200D01*
X119391833Y-95543200D01*
X119406881Y-95516530D01*
X119417537Y-95494017D01*
X119426681Y-95466577D01*
X119434389Y-95433545D01*
X119440735Y-95394257D01*
X119445796Y-95348050D01*
X119449647Y-95294258D01*
X119452363Y-95232220D01*
X119454019Y-95161270D01*
X119454639Y-95096160D01*
X119454823Y-95009331D01*
X119454546Y-94931633D01*
X119453791Y-94862047D01*
X119452542Y-94799552D01*
X119450782Y-94743130D01*
X119448493Y-94691761D01*
X119447694Y-94677060D01*
X119443947Y-94611020D01*
X119369537Y-94484020D01*
X119352955Y-94455603D01*
X119332087Y-94419658D01*
X119307682Y-94377480D01*
X119280485Y-94330366D01*
X119251244Y-94279613D01*
X119220707Y-94226517D01*
X119189621Y-94172375D01*
X119158734Y-94118485D01*
X119139053Y-94084093D01*
X119111518Y-94036062D01*
X119085481Y-93990874D01*
X119061373Y-93949265D01*
X119039627Y-93911969D01*
X119020675Y-93879721D01*
X119004949Y-93853257D01*
X118992882Y-93833309D01*
X118984905Y-93820615D01*
X118981450Y-93815907D01*
X118981348Y-93815937D01*
X118981124Y-93822223D01*
X118981421Y-93837094D01*
X118982182Y-93858993D01*
X118983351Y-93886360D01*
X118984872Y-93917638D01*
X118985457Y-93928843D01*
X118986725Y-93956936D01*
X118988029Y-93993541D01*
X118989330Y-94037008D01*
X118990586Y-94085689D01*
X118991757Y-94137936D01*
X118992803Y-94192101D01*
X118993682Y-94246533D01*
X118994152Y-94281891D01*
X118994812Y-94338445D01*
X118995295Y-94385726D01*
X118995580Y-94424619D01*
X118995649Y-94456010D01*
X118995482Y-94480784D01*
X118995059Y-94499826D01*
X118994360Y-94514022D01*
X118993367Y-94524258D01*
X118992060Y-94531418D01*
X118990419Y-94536388D01*
X118988456Y-94540008D01*
X118978662Y-94549938D01*
X118966312Y-94551636D01*
X118960525Y-94550672D01*
X118955722Y-94548400D01*
X118951100Y-94543455D01*
X118945856Y-94534476D01*
X118939186Y-94520096D01*
X118930288Y-94498954D01*
X118919022Y-94471320D01*
X118904450Y-94436942D01*
X118885366Y-94394390D01*
X118862138Y-94344402D01*
X118835131Y-94287714D01*
X118804711Y-94225066D01*
X118771246Y-94157195D01*
X118735101Y-94084839D01*
X118696643Y-94008736D01*
X118656238Y-93929623D01*
X118614253Y-93848240D01*
X118571053Y-93765323D01*
X118527006Y-93681612D01*
X118526456Y-93680571D01*
X118474980Y-93583243D01*
X118473868Y-93606911D01*
X118473533Y-93616725D01*
X118473008Y-93635579D01*
X118472319Y-93662357D01*
X118471494Y-93695941D01*
X118470560Y-93735215D01*
X118469544Y-93779061D01*
X118468472Y-93826361D01*
X118467443Y-93872766D01*
X118465565Y-93952686D01*
X118463627Y-94023347D01*
X118461582Y-94085646D01*
X118459386Y-94140485D01*
X118456995Y-94188763D01*
X118454363Y-94231379D01*
X118451446Y-94269233D01*
X118448199Y-94303225D01*
X118444578Y-94334255D01*
X118444417Y-94335509D01*
X118439883Y-94366915D01*
X118435266Y-94389490D01*
X118429997Y-94404549D01*
X118423509Y-94413409D01*
X118415235Y-94417387D01*
X118408888Y-94417980D01*
X118401330Y-94417598D01*
X118396449Y-94415088D01*
X118393168Y-94408405D01*
X118390405Y-94395503D01*
X118387578Y-94377579D01*
X118382941Y-94353785D01*
X118375930Y-94325452D01*
X118367807Y-94297531D01*
X118364904Y-94288679D01*
X118358396Y-94271484D01*
X118348880Y-94248886D01*
X118336996Y-94222189D01*
X118323385Y-94192695D01*
X118308688Y-94161704D01*
X118293547Y-94130519D01*
X118278603Y-94100441D01*
X118264497Y-94072773D01*
X118251870Y-94048816D01*
X118241363Y-94029871D01*
X118233617Y-94017242D01*
X118229274Y-94012229D01*
X118228790Y-94012323D01*
X118227360Y-94018412D01*
X118225436Y-94033191D01*
X118223161Y-94055208D01*
X118220677Y-94083014D01*
X118218126Y-94115158D01*
X118216437Y-94138580D01*
X118213395Y-94182463D01*
X118209960Y-94231946D01*
X118206403Y-94283149D01*
X118202992Y-94332193D01*
X118199997Y-94375197D01*
X118199848Y-94377340D01*
X118197774Y-94412249D01*
X118195815Y-94454923D01*
X118194048Y-94502967D01*
X118192548Y-94553986D01*
X118191391Y-94605583D01*
X118190653Y-94655365D01*
X118190498Y-94673195D01*
X118190122Y-94722750D01*
X118189651Y-94763090D01*
X118188975Y-94795161D01*
X118187982Y-94819908D01*
X118186562Y-94838277D01*
X118184602Y-94851214D01*
X118181993Y-94859663D01*
X118178622Y-94864570D01*
X118174379Y-94866881D01*
X118169153Y-94867542D01*
X118167640Y-94867560D01*
X118159763Y-94865950D01*
X118153869Y-94860179D01*
X118149460Y-94848832D01*
X118146039Y-94830494D01*
X118143107Y-94803750D01*
X118142421Y-94795929D01*
X118138193Y-94763346D01*
X118130467Y-94722476D01*
X118119541Y-94674456D01*
X118105712Y-94620424D01*
X118089275Y-94561519D01*
X118070529Y-94498877D01*
X118049769Y-94433638D01*
X118041219Y-94407820D01*
X118031014Y-94377340D01*
X118034557Y-94443380D01*
X118035272Y-94462095D01*
X118035922Y-94489616D01*
X118036493Y-94524589D01*
X118036971Y-94565660D01*
X118037343Y-94611474D01*
X118037596Y-94660677D01*
X118037714Y-94711915D01*
X118037700Y-94756633D01*
X118037581Y-94813629D01*
X118037407Y-94861341D01*
X118037146Y-94900646D01*
X118036767Y-94932419D01*
X118036242Y-94957538D01*
X118035539Y-94976878D01*
X118034628Y-94991315D01*
X118033479Y-95001726D01*
X118032062Y-95008987D01*
X118030345Y-95013974D01*
X118028692Y-95016983D01*
X118017704Y-95027792D01*
X118005678Y-95028547D01*
X117992883Y-95019272D01*
X117988235Y-95013610D01*
X117983233Y-95006367D01*
X117973231Y-94991430D01*
X117958772Y-94969623D01*
X117940395Y-94941768D01*
X117918644Y-94908689D01*
X117894058Y-94871207D01*
X117867180Y-94830146D01*
X117838550Y-94786329D01*
X117816976Y-94753260D01*
X117787623Y-94708290D01*
X117759790Y-94665748D01*
X117733994Y-94626418D01*
X117710752Y-94591084D01*
X117690583Y-94560531D01*
X117674005Y-94535544D01*
X117661534Y-94516908D01*
X117653690Y-94505408D01*
X117651139Y-94501921D01*
X117647328Y-94498920D01*
X117646115Y-94502295D01*
X117647243Y-94513570D01*
X117648149Y-94519701D01*
X117649352Y-94532694D01*
X117650391Y-94553779D01*
X117651204Y-94580887D01*
X117651731Y-94611950D01*
X117651910Y-94644900D01*
X117651909Y-94646580D01*
X117651749Y-94682879D01*
X117651247Y-94711063D01*
X117650236Y-94733177D01*
X117648547Y-94751263D01*
X117646015Y-94767366D01*
X117642470Y-94783528D01*
X117639842Y-94793900D01*
X117632954Y-94818133D01*
X117625190Y-94842224D01*
X117617943Y-94861926D01*
X117616102Y-94866290D01*
X117608643Y-94881678D01*
X117602288Y-94889724D01*
X117594806Y-94892683D01*
X117589740Y-94892960D01*
X117578523Y-94890793D01*
X117570575Y-94882541D01*
X117566870Y-94875572D01*
X117564926Y-94868620D01*
X117561165Y-94852359D01*
X117555721Y-94827451D01*
X117548726Y-94794559D01*
X117540314Y-94754345D01*
X117530620Y-94707471D01*
X117519775Y-94654599D01*
X117507915Y-94596391D01*
X117495172Y-94533511D01*
X117481680Y-94466619D01*
X117467572Y-94396377D01*
X117452982Y-94323450D01*
X117438044Y-94248497D01*
X117422890Y-94172182D01*
X117407655Y-94095167D01*
X117392472Y-94018114D01*
X117377474Y-93941686D01*
X117362796Y-93866543D01*
X117348570Y-93793349D01*
X117346126Y-93780736D01*
X117341740Y-93759988D01*
X117338300Y-93748467D01*
X117335483Y-93745319D01*
X117333679Y-93747716D01*
X117331111Y-93755910D01*
X117326510Y-93772767D01*
X117320177Y-93797061D01*
X117312411Y-93827568D01*
X117303513Y-93863063D01*
X117293784Y-93902320D01*
X117283523Y-93944113D01*
X117273032Y-93987218D01*
X117262610Y-94030409D01*
X117252558Y-94072462D01*
X117243176Y-94112150D01*
X117234766Y-94148249D01*
X117227626Y-94179533D01*
X117225686Y-94188204D01*
X117196414Y-94325123D01*
X117170082Y-94459159D01*
X117146991Y-94588641D01*
X117127442Y-94711896D01*
X117114011Y-94809140D01*
X117109352Y-94845074D01*
X117105560Y-94872460D01*
X117102305Y-94892840D01*
X117099261Y-94907755D01*
X117096098Y-94918747D01*
X117092490Y-94927357D01*
X117088108Y-94935127D01*
X117086749Y-94937281D01*
X117080941Y-94944674D01*
X117074646Y-94945429D01*
X117065019Y-94941085D01*
X117061184Y-94938946D01*
X117057419Y-94936214D01*
X117053315Y-94932199D01*
X117048458Y-94926211D01*
X117042436Y-94917561D01*
X117034839Y-94905556D01*
X117025255Y-94889509D01*
X117013271Y-94868728D01*
X116998475Y-94842524D01*
X116980457Y-94810206D01*
X116958804Y-94771084D01*
X116933105Y-94724468D01*
X116902947Y-94669669D01*
X116901424Y-94666900D01*
X116870993Y-94611599D01*
X116845074Y-94564574D01*
X116823289Y-94525193D01*
X116805260Y-94492824D01*
X116790608Y-94466837D01*
X116778957Y-94446600D01*
X116769928Y-94431483D01*
X116763143Y-94420854D01*
X116758223Y-94414082D01*
X116754793Y-94410537D01*
X116752472Y-94409587D01*
X116750883Y-94410601D01*
X116749649Y-94412948D01*
X116749518Y-94413263D01*
X116747249Y-94422054D01*
X116743805Y-94439818D01*
X116739348Y-94465456D01*
X116734041Y-94497868D01*
X116728046Y-94535956D01*
X116721527Y-94578621D01*
X116714645Y-94624764D01*
X116707564Y-94673287D01*
X116700447Y-94723089D01*
X116693456Y-94773073D01*
X116686754Y-94822140D01*
X116680504Y-94869189D01*
X116674868Y-94913124D01*
X116671709Y-94938680D01*
X116662554Y-95019317D01*
X116654985Y-95097004D01*
X116649035Y-95170884D01*
X116644736Y-95240102D01*
X116642123Y-95303803D01*
X116641226Y-95361129D01*
X116642081Y-95411226D01*
X116644718Y-95453237D01*
X116649172Y-95486307D01*
X116650422Y-95492400D01*
X116654483Y-95511497D01*
X116657478Y-95527073D01*
X116658845Y-95536180D01*
X116658875Y-95536850D01*
X116656877Y-95538328D01*
X116650424Y-95539574D01*
X116638835Y-95540604D01*
X116621429Y-95541436D01*
X116597523Y-95542085D01*
X116566436Y-95542568D01*
X116527486Y-95542903D01*
X116479991Y-95543106D01*
X116423269Y-95543193D01*
X116399912Y-95543200D01*
X116140945Y-95543200D01*
X116114392Y-95459330D01*
X116104388Y-95427853D01*
X116096842Y-95405524D01*
X116091054Y-95391837D01*
X116086319Y-95386284D01*
X116081938Y-95388357D01*
X116077207Y-95397550D01*
X116071425Y-95413356D01*
X116067324Y-95425318D01*
X116059618Y-95447108D01*
X116050061Y-95473155D01*
X116040561Y-95498275D01*
X116039395Y-95501290D01*
X116023141Y-95543200D01*
X115932249Y-95543200D01*
X115899486Y-95543111D01*
X115875443Y-95542756D01*
X115858684Y-95542002D01*
X115847770Y-95540714D01*
X115841262Y-95538758D01*
X115837724Y-95536002D01*
X115836633Y-95534310D01*
X115833907Y-95525518D01*
X115830131Y-95508116D01*
X115825536Y-95483571D01*
X115820353Y-95453353D01*
X115814813Y-95418929D01*
X115809147Y-95381768D01*
X115803586Y-95343338D01*
X115798360Y-95305107D01*
X115793702Y-95268545D01*
X115790479Y-95240940D01*
X115785262Y-95188364D01*
X115780325Y-95127868D01*
X115775818Y-95061692D01*
X115771888Y-94992075D01*
X115768684Y-94921256D01*
X115767904Y-94900580D01*
X115766684Y-94874328D01*
X115764789Y-94842353D01*
X115762496Y-94809047D01*
X115760506Y-94783740D01*
X115756031Y-94722296D01*
X115752203Y-94652428D01*
X115749079Y-94575852D01*
X115746716Y-94494288D01*
X115745172Y-94409453D01*
X115744503Y-94323065D01*
X115744480Y-94303595D01*
X115744480Y-94128107D01*
X115705110Y-94108664D01*
X115627228Y-94064804D01*
X115555609Y-94013464D01*
X115490755Y-93955219D01*
X115433168Y-93890648D01*
X115383352Y-93820325D01*
X115341810Y-93744828D01*
X115309043Y-93664733D01*
X115303634Y-93648360D01*
X115280825Y-93560966D01*
X115266060Y-93468632D01*
X115259279Y-93372545D01*
X115260424Y-93273895D01*
X115269437Y-93173871D01*
X115286258Y-93073662D01*
X115310830Y-92974458D01*
X115341445Y-92881832D01*
X115377718Y-92797604D01*
X115420774Y-92720717D01*
X115470412Y-92651349D01*
X115526431Y-92589674D01*
X115588627Y-92535870D01*
X115656800Y-92490112D01*
X115730746Y-92452576D01*
X115810265Y-92423440D01*
X115889135Y-92404017D01*
X115920414Y-92398810D01*
X115956424Y-92394161D01*
X115994734Y-92390257D01*
X116032912Y-92387286D01*
X116068525Y-92385434D01*
X116099144Y-92384890D01*
X116122334Y-92385840D01*
X116123531Y-92385958D01*
X116154602Y-92389183D01*
X116200604Y-92313921D01*
X116259817Y-92221440D01*
X116320415Y-92135992D01*
X116384448Y-92054983D01*
X116453967Y-91975822D01*
X116531021Y-91895914D01*
X116531318Y-91895618D01*
X116633986Y-91799663D01*
X116741642Y-91711348D01*
X116854788Y-91630378D01*
X116973930Y-91556461D01*
X117099572Y-91489305D01*
X117232219Y-91428615D01*
X117372374Y-91374100D01*
X117504700Y-91330273D01*
X117550409Y-91317076D01*
X117597111Y-91305297D01*
X117646209Y-91294688D01*
X117699109Y-91285004D01*
X117757216Y-91275998D01*
X117821935Y-91267426D01*
X117894670Y-91259039D01*
X117936500Y-91254632D01*
X117961829Y-91252701D01*
X117995673Y-91251114D01*
X118036390Y-91249870D01*
X118082341Y-91248970D01*
X118131886Y-91248412D01*
X118183383Y-91248196D01*
X118235194Y-91248323D01*
G36*
X119076629Y-91482898D02*
X119122145Y-91486494D01*
X119162624Y-91493214D01*
X119200521Y-91503594D01*
X119238295Y-91518172D01*
X119278402Y-91537483D01*
X119278581Y-91537577D01*
X119351074Y-91578136D01*
X119413483Y-91619280D01*
X119465872Y-91661092D01*
X119508303Y-91703655D01*
X119540841Y-91747054D01*
X119563550Y-91791372D01*
X119576493Y-91836692D01*
X119579733Y-91883098D01*
X119574330Y-91926215D01*
X119568629Y-91944280D01*
X119558491Y-91968333D01*
X119545187Y-91995959D01*
X119529988Y-92024741D01*
X119514163Y-92052261D01*
X119498985Y-92076104D01*
X119486955Y-92092387D01*
X119447659Y-92132511D01*
X119403458Y-92163744D01*
X119354300Y-92186117D01*
X119333180Y-92192609D01*
X119299822Y-92199027D01*
X119260505Y-92202557D01*
X119219048Y-92203073D01*
X119179270Y-92200448D01*
X119163047Y-92198227D01*
X119118196Y-92188650D01*
X119067199Y-92173851D01*
X119012166Y-92154534D01*
X118955205Y-92131402D01*
X118932882Y-92121480D01*
X118898244Y-92105379D01*
X118871030Y-92091778D01*
X118849237Y-92079397D01*
X118830860Y-92066954D01*
X118813894Y-92053168D01*
X118796335Y-92036758D01*
X118789124Y-92029602D01*
X118756543Y-91989848D01*
X118731067Y-91943564D01*
X118713117Y-91891875D01*
X118703115Y-91835903D01*
X118701069Y-91794983D01*
X118702731Y-91753694D01*
X118708252Y-91718079D01*
X118718540Y-91684088D01*
X118733729Y-91649256D01*
X118760969Y-91601810D01*
X118792728Y-91562968D01*
X118830039Y-91531792D01*
X118873938Y-91507340D01*
X118902574Y-91495957D01*
X118918468Y-91490644D01*
X118932389Y-91486877D01*
X118946643Y-91484388D01*
X118963535Y-91482910D01*
X118985368Y-91482174D01*
X119014448Y-91481914D01*
X119023620Y-91481890D01*
X119076629Y-91482898D01*
X119076629Y-91482898D01*
G37*
X119076629Y-91482898D02*
X119122145Y-91486494D01*
X119162624Y-91493214D01*
X119200521Y-91503594D01*
X119238295Y-91518172D01*
X119278402Y-91537483D01*
X119278581Y-91537577D01*
X119351074Y-91578136D01*
X119413483Y-91619280D01*
X119465872Y-91661092D01*
X119508303Y-91703655D01*
X119540841Y-91747054D01*
X119563550Y-91791372D01*
X119576493Y-91836692D01*
X119579733Y-91883098D01*
X119574330Y-91926215D01*
X119568629Y-91944280D01*
X119558491Y-91968333D01*
X119545187Y-91995959D01*
X119529988Y-92024741D01*
X119514163Y-92052261D01*
X119498985Y-92076104D01*
X119486955Y-92092387D01*
X119447659Y-92132511D01*
X119403458Y-92163744D01*
X119354300Y-92186117D01*
X119333180Y-92192609D01*
X119299822Y-92199027D01*
X119260505Y-92202557D01*
X119219048Y-92203073D01*
X119179270Y-92200448D01*
X119163047Y-92198227D01*
X119118196Y-92188650D01*
X119067199Y-92173851D01*
X119012166Y-92154534D01*
X118955205Y-92131402D01*
X118932882Y-92121480D01*
X118898244Y-92105379D01*
X118871030Y-92091778D01*
X118849237Y-92079397D01*
X118830860Y-92066954D01*
X118813894Y-92053168D01*
X118796335Y-92036758D01*
X118789124Y-92029602D01*
X118756543Y-91989848D01*
X118731067Y-91943564D01*
X118713117Y-91891875D01*
X118703115Y-91835903D01*
X118701069Y-91794983D01*
X118702731Y-91753694D01*
X118708252Y-91718079D01*
X118718540Y-91684088D01*
X118733729Y-91649256D01*
X118760969Y-91601810D01*
X118792728Y-91562968D01*
X118830039Y-91531792D01*
X118873938Y-91507340D01*
X118902574Y-91495957D01*
X118918468Y-91490644D01*
X118932389Y-91486877D01*
X118946643Y-91484388D01*
X118963535Y-91482910D01*
X118985368Y-91482174D01*
X119014448Y-91481914D01*
X119023620Y-91481890D01*
X119076629Y-91482898D01*
G36*
X117800945Y-91682945D02*
X117827059Y-91683793D01*
X117847474Y-91685384D01*
X117849799Y-91685680D01*
X117861712Y-91687635D01*
X117871009Y-91690624D01*
X117878031Y-91695819D01*
X117883115Y-91704392D01*
X117886600Y-91717516D01*
X117888825Y-91736361D01*
X117890130Y-91762100D01*
X117890853Y-91795904D01*
X117891234Y-91828966D01*
X117892383Y-91944020D01*
X117914441Y-91955305D01*
X117962011Y-91974378D01*
X118010574Y-91983745D01*
X118059139Y-91983364D01*
X118106713Y-91973197D01*
X118130597Y-91964087D01*
X118149842Y-91953787D01*
X118172562Y-91938986D01*
X118195612Y-91921999D01*
X118215848Y-91905139D01*
X118229820Y-91891086D01*
X118241543Y-91881816D01*
X118252651Y-91882641D01*
X118259304Y-91888410D01*
X118263158Y-91900185D01*
X118262162Y-91918484D01*
X118257043Y-91941335D01*
X118248527Y-91966769D01*
X118237341Y-91992816D01*
X118224212Y-92017506D01*
X118209866Y-92038869D01*
X118199364Y-92050912D01*
X118165506Y-92077487D01*
X118124794Y-92096938D01*
X118077709Y-92109169D01*
X118024735Y-92114084D01*
X117966353Y-92111589D01*
X117923800Y-92105607D01*
X117900480Y-92100791D01*
X117872207Y-92093908D01*
X117841538Y-92085694D01*
X117811028Y-92076881D01*
X117783237Y-92068204D01*
X117760719Y-92060395D01*
X117748028Y-92055176D01*
X117739274Y-92051685D01*
X117730792Y-92050721D01*
X117719713Y-92052573D01*
X117703171Y-92057528D01*
X117693925Y-92060596D01*
X117631305Y-92078753D01*
X117575038Y-92089026D01*
X117525054Y-92091401D01*
X117481281Y-92085865D01*
X117443650Y-92072405D01*
X117412089Y-92051009D01*
X117386528Y-92021663D01*
X117374813Y-92001760D01*
X117364972Y-91976772D01*
X117356990Y-91945571D01*
X117351680Y-91912046D01*
X117349848Y-91881968D01*
X117350332Y-91863776D01*
X117352404Y-91853008D01*
X117356797Y-91846963D01*
X117359920Y-91844960D01*
X117371636Y-91842721D01*
X117382959Y-91846216D01*
X117389812Y-91853813D01*
X117390400Y-91857156D01*
X117393232Y-91868401D01*
X117400758Y-91885212D01*
X117411520Y-91905069D01*
X117424058Y-91925454D01*
X117436915Y-91943845D01*
X117448554Y-91957644D01*
X117470861Y-91977798D01*
X117491548Y-91990146D01*
X117513628Y-91995921D01*
X117540119Y-91996359D01*
X117542729Y-91996185D01*
X117574620Y-91990069D01*
X117609102Y-91976858D01*
X117643132Y-91957914D01*
X117666172Y-91941052D01*
X117676599Y-91931815D01*
X117682233Y-91923619D01*
X117684529Y-91912823D01*
X117684944Y-91895791D01*
X117684939Y-91894120D01*
X117684369Y-91877253D01*
X117682880Y-91853239D01*
X117680685Y-91825027D01*
X117677995Y-91795566D01*
X117677399Y-91789605D01*
X117674269Y-91755833D01*
X117672954Y-91730717D01*
X117673801Y-91712861D01*
X117677154Y-91700868D01*
X117683357Y-91693342D01*
X117692757Y-91688885D01*
X117702849Y-91686584D01*
X117720083Y-91684658D01*
X117744289Y-91683397D01*
X117772299Y-91682819D01*
X117800945Y-91682945D01*
X117800945Y-91682945D01*
G37*
X117800945Y-91682945D02*
X117827059Y-91683793D01*
X117847474Y-91685384D01*
X117849799Y-91685680D01*
X117861712Y-91687635D01*
X117871009Y-91690624D01*
X117878031Y-91695819D01*
X117883115Y-91704392D01*
X117886600Y-91717516D01*
X117888825Y-91736361D01*
X117890130Y-91762100D01*
X117890853Y-91795904D01*
X117891234Y-91828966D01*
X117892383Y-91944020D01*
X117914441Y-91955305D01*
X117962011Y-91974378D01*
X118010574Y-91983745D01*
X118059139Y-91983364D01*
X118106713Y-91973197D01*
X118130597Y-91964087D01*
X118149842Y-91953787D01*
X118172562Y-91938986D01*
X118195612Y-91921999D01*
X118215848Y-91905139D01*
X118229820Y-91891086D01*
X118241543Y-91881816D01*
X118252651Y-91882641D01*
X118259304Y-91888410D01*
X118263158Y-91900185D01*
X118262162Y-91918484D01*
X118257043Y-91941335D01*
X118248527Y-91966769D01*
X118237341Y-91992816D01*
X118224212Y-92017506D01*
X118209866Y-92038869D01*
X118199364Y-92050912D01*
X118165506Y-92077487D01*
X118124794Y-92096938D01*
X118077709Y-92109169D01*
X118024735Y-92114084D01*
X117966353Y-92111589D01*
X117923800Y-92105607D01*
X117900480Y-92100791D01*
X117872207Y-92093908D01*
X117841538Y-92085694D01*
X117811028Y-92076881D01*
X117783237Y-92068204D01*
X117760719Y-92060395D01*
X117748028Y-92055176D01*
X117739274Y-92051685D01*
X117730792Y-92050721D01*
X117719713Y-92052573D01*
X117703171Y-92057528D01*
X117693925Y-92060596D01*
X117631305Y-92078753D01*
X117575038Y-92089026D01*
X117525054Y-92091401D01*
X117481281Y-92085865D01*
X117443650Y-92072405D01*
X117412089Y-92051009D01*
X117386528Y-92021663D01*
X117374813Y-92001760D01*
X117364972Y-91976772D01*
X117356990Y-91945571D01*
X117351680Y-91912046D01*
X117349848Y-91881968D01*
X117350332Y-91863776D01*
X117352404Y-91853008D01*
X117356797Y-91846963D01*
X117359920Y-91844960D01*
X117371636Y-91842721D01*
X117382959Y-91846216D01*
X117389812Y-91853813D01*
X117390400Y-91857156D01*
X117393232Y-91868401D01*
X117400758Y-91885212D01*
X117411520Y-91905069D01*
X117424058Y-91925454D01*
X117436915Y-91943845D01*
X117448554Y-91957644D01*
X117470861Y-91977798D01*
X117491548Y-91990146D01*
X117513628Y-91995921D01*
X117540119Y-91996359D01*
X117542729Y-91996185D01*
X117574620Y-91990069D01*
X117609102Y-91976858D01*
X117643132Y-91957914D01*
X117666172Y-91941052D01*
X117676599Y-91931815D01*
X117682233Y-91923619D01*
X117684529Y-91912823D01*
X117684944Y-91895791D01*
X117684939Y-91894120D01*
X117684369Y-91877253D01*
X117682880Y-91853239D01*
X117680685Y-91825027D01*
X117677995Y-91795566D01*
X117677399Y-91789605D01*
X117674269Y-91755833D01*
X117672954Y-91730717D01*
X117673801Y-91712861D01*
X117677154Y-91700868D01*
X117683357Y-91693342D01*
X117692757Y-91688885D01*
X117702849Y-91686584D01*
X117720083Y-91684658D01*
X117744289Y-91683397D01*
X117772299Y-91682819D01*
X117800945Y-91682945D01*
D12*
X102061905Y-103795238D02*
X101680952Y-104061905D01*
X102061905Y-104252381D02*
X101261905Y-104252381D01*
X101261905Y-103947619D01*
X101300000Y-103871428D01*
X101338095Y-103833333D01*
X101414286Y-103795238D01*
X101528571Y-103795238D01*
X101604762Y-103833333D01*
X101642857Y-103871428D01*
X101680952Y-103947619D01*
X101680952Y-104252381D01*
X101642857Y-103452381D02*
X101642857Y-103185714D01*
X102061905Y-103071428D02*
X102061905Y-103452381D01*
X101261905Y-103452381D01*
X101261905Y-103071428D01*
X102023810Y-102766666D02*
X102061905Y-102652380D01*
X102061905Y-102461904D01*
X102023810Y-102385714D01*
X101985714Y-102347618D01*
X101909524Y-102309523D01*
X101833333Y-102309523D01*
X101757143Y-102347618D01*
X101719048Y-102385714D01*
X101680952Y-102461904D01*
X101642857Y-102614285D01*
X101604762Y-102690476D01*
X101566667Y-102728571D01*
X101490476Y-102766666D01*
X101414286Y-102766666D01*
X101338095Y-102728571D01*
X101300000Y-102690476D01*
X101261905Y-102614285D01*
X101261905Y-102423809D01*
X101300000Y-102309523D01*
X109830667Y-104774524D02*
X109492001Y-104169762D01*
X109250096Y-104774524D02*
X109250096Y-103504524D01*
X109637143Y-103504524D01*
X109733905Y-103565000D01*
X109782286Y-103625476D01*
X109830667Y-103746429D01*
X109830667Y-103927857D01*
X109782286Y-104048810D01*
X109733905Y-104109286D01*
X109637143Y-104169762D01*
X109250096Y-104169762D01*
X110798286Y-104774524D02*
X110217715Y-104774524D01*
X110508001Y-104774524D02*
X110508001Y-103504524D01*
X110411239Y-103685952D01*
X110314477Y-103806905D01*
X110217715Y-103867381D01*
X109830667Y-101774524D02*
X109492001Y-101169762D01*
X109250096Y-101774524D02*
X109250096Y-100504524D01*
X109637143Y-100504524D01*
X109733905Y-100565000D01*
X109782286Y-100625476D01*
X109830667Y-100746429D01*
X109830667Y-100927857D01*
X109782286Y-101048810D01*
X109733905Y-101109286D01*
X109637143Y-101169762D01*
X109250096Y-101169762D01*
X110217715Y-100625476D02*
X110266096Y-100565000D01*
X110362858Y-100504524D01*
X110604762Y-100504524D01*
X110701524Y-100565000D01*
X110749905Y-100625476D01*
X110798286Y-100746429D01*
X110798286Y-100867381D01*
X110749905Y-101048810D01*
X110169334Y-101774524D01*
X110798286Y-101774524D01*
X216852381Y-85314286D02*
X215852381Y-85314286D01*
X215852381Y-85076191D01*
X215900000Y-84933333D01*
X215995238Y-84838095D01*
X216090476Y-84790476D01*
X216280952Y-84742857D01*
X216423810Y-84742857D01*
X216614286Y-84790476D01*
X216709524Y-84838095D01*
X216804762Y-84933333D01*
X216852381Y-85076191D01*
X216852381Y-85314286D01*
X216852381Y-83790476D02*
X216852381Y-84361905D01*
X216852381Y-84076191D02*
X215852381Y-84076191D01*
X215995238Y-84171429D01*
X216090476Y-84266667D01*
X216138095Y-84361905D01*
X216852381Y-83314286D02*
X216852381Y-83123810D01*
X216804762Y-83028571D01*
X216757143Y-82980952D01*
X216614286Y-82885714D01*
X216423810Y-82838095D01*
X216042857Y-82838095D01*
X215947619Y-82885714D01*
X215900000Y-82933333D01*
X215852381Y-83028571D01*
X215852381Y-83219048D01*
X215900000Y-83314286D01*
X215947619Y-83361905D01*
X216042857Y-83409524D01*
X216280952Y-83409524D01*
X216376190Y-83361905D01*
X216423810Y-83314286D01*
X216471429Y-83219048D01*
X216471429Y-83028571D01*
X216423810Y-82933333D01*
X216376190Y-82885714D01*
X216280952Y-82838095D01*
X216352381Y-123314286D02*
X215352381Y-123314286D01*
X215352381Y-123076191D01*
X215400000Y-122933333D01*
X215495238Y-122838095D01*
X215590476Y-122790476D01*
X215780952Y-122742857D01*
X215923810Y-122742857D01*
X216114286Y-122790476D01*
X216209524Y-122838095D01*
X216304762Y-122933333D01*
X216352381Y-123076191D01*
X216352381Y-123314286D01*
X215447619Y-122361905D02*
X215400000Y-122314286D01*
X215352381Y-122219048D01*
X215352381Y-121980952D01*
X215400000Y-121885714D01*
X215447619Y-121838095D01*
X215542857Y-121790476D01*
X215638095Y-121790476D01*
X215780952Y-121838095D01*
X216352381Y-122409524D01*
X216352381Y-121790476D01*
X215352381Y-120885714D02*
X215352381Y-121361905D01*
X215828571Y-121409524D01*
X215780952Y-121361905D01*
X215733333Y-121266667D01*
X215733333Y-121028571D01*
X215780952Y-120933333D01*
X215828571Y-120885714D01*
X215923810Y-120838095D01*
X216161905Y-120838095D01*
X216257143Y-120885714D01*
X216304762Y-120933333D01*
X216352381Y-121028571D01*
X216352381Y-121266667D01*
X216304762Y-121361905D01*
X216257143Y-121409524D01*
X223285714Y-95352381D02*
X223285714Y-94352381D01*
X223523809Y-94352381D01*
X223666667Y-94400000D01*
X223761905Y-94495238D01*
X223809524Y-94590476D01*
X223857143Y-94780952D01*
X223857143Y-94923810D01*
X223809524Y-95114286D01*
X223761905Y-95209524D01*
X223666667Y-95304762D01*
X223523809Y-95352381D01*
X223285714Y-95352381D01*
X224238095Y-94447619D02*
X224285714Y-94400000D01*
X224380952Y-94352381D01*
X224619048Y-94352381D01*
X224714286Y-94400000D01*
X224761905Y-94447619D01*
X224809524Y-94542857D01*
X224809524Y-94638095D01*
X224761905Y-94780952D01*
X224190476Y-95352381D01*
X224809524Y-95352381D01*
X225666667Y-94685714D02*
X225666667Y-95352381D01*
X225428571Y-94304762D02*
X225190476Y-95019048D01*
X225809524Y-95019048D01*
X223285714Y-76352381D02*
X223285714Y-75352381D01*
X223523809Y-75352381D01*
X223666667Y-75400000D01*
X223761905Y-75495238D01*
X223809524Y-75590476D01*
X223857143Y-75780952D01*
X223857143Y-75923810D01*
X223809524Y-76114286D01*
X223761905Y-76209524D01*
X223666667Y-76304762D01*
X223523809Y-76352381D01*
X223285714Y-76352381D01*
X224238095Y-75447619D02*
X224285714Y-75400000D01*
X224380952Y-75352381D01*
X224619048Y-75352381D01*
X224714286Y-75400000D01*
X224761905Y-75447619D01*
X224809524Y-75542857D01*
X224809524Y-75638095D01*
X224761905Y-75780952D01*
X224190476Y-76352381D01*
X224809524Y-76352381D01*
X225142857Y-75352381D02*
X225761905Y-75352381D01*
X225428571Y-75733333D01*
X225571429Y-75733333D01*
X225666667Y-75780952D01*
X225714286Y-75828571D01*
X225761905Y-75923810D01*
X225761905Y-76161905D01*
X225714286Y-76257143D01*
X225666667Y-76304762D01*
X225571429Y-76352381D01*
X225285714Y-76352381D01*
X225190476Y-76304762D01*
X225142857Y-76257143D01*
X223385714Y-58052381D02*
X223385714Y-57052381D01*
X223623809Y-57052381D01*
X223766667Y-57100000D01*
X223861905Y-57195238D01*
X223909524Y-57290476D01*
X223957143Y-57480952D01*
X223957143Y-57623810D01*
X223909524Y-57814286D01*
X223861905Y-57909524D01*
X223766667Y-58004762D01*
X223623809Y-58052381D01*
X223385714Y-58052381D01*
X224338095Y-57147619D02*
X224385714Y-57100000D01*
X224480952Y-57052381D01*
X224719048Y-57052381D01*
X224814286Y-57100000D01*
X224861905Y-57147619D01*
X224909524Y-57242857D01*
X224909524Y-57338095D01*
X224861905Y-57480952D01*
X224290476Y-58052381D01*
X224909524Y-58052381D01*
X225290476Y-57147619D02*
X225338095Y-57100000D01*
X225433333Y-57052381D01*
X225671429Y-57052381D01*
X225766667Y-57100000D01*
X225814286Y-57147619D01*
X225861905Y-57242857D01*
X225861905Y-57338095D01*
X225814286Y-57480952D01*
X225242857Y-58052381D01*
X225861905Y-58052381D01*
X197352381Y-123314286D02*
X196352381Y-123314286D01*
X196352381Y-123076191D01*
X196400000Y-122933333D01*
X196495238Y-122838095D01*
X196590476Y-122790476D01*
X196780952Y-122742857D01*
X196923810Y-122742857D01*
X197114286Y-122790476D01*
X197209524Y-122838095D01*
X197304762Y-122933333D01*
X197352381Y-123076191D01*
X197352381Y-123314286D01*
X196447619Y-122361905D02*
X196400000Y-122314286D01*
X196352381Y-122219048D01*
X196352381Y-121980952D01*
X196400000Y-121885714D01*
X196447619Y-121838095D01*
X196542857Y-121790476D01*
X196638095Y-121790476D01*
X196780952Y-121838095D01*
X197352381Y-122409524D01*
X197352381Y-121790476D01*
X197352381Y-120838095D02*
X197352381Y-121409524D01*
X197352381Y-121123810D02*
X196352381Y-121123810D01*
X196495238Y-121219048D01*
X196590476Y-121314286D01*
X196638095Y-121409524D01*
X216852381Y-104314286D02*
X215852381Y-104314286D01*
X215852381Y-104076191D01*
X215900000Y-103933333D01*
X215995238Y-103838095D01*
X216090476Y-103790476D01*
X216280952Y-103742857D01*
X216423810Y-103742857D01*
X216614286Y-103790476D01*
X216709524Y-103838095D01*
X216804762Y-103933333D01*
X216852381Y-104076191D01*
X216852381Y-104314286D01*
X215947619Y-103361905D02*
X215900000Y-103314286D01*
X215852381Y-103219048D01*
X215852381Y-102980952D01*
X215900000Y-102885714D01*
X215947619Y-102838095D01*
X216042857Y-102790476D01*
X216138095Y-102790476D01*
X216280952Y-102838095D01*
X216852381Y-103409524D01*
X216852381Y-102790476D01*
X215852381Y-102171429D02*
X215852381Y-102076190D01*
X215900000Y-101980952D01*
X215947619Y-101933333D01*
X216042857Y-101885714D01*
X216233333Y-101838095D01*
X216471429Y-101838095D01*
X216661905Y-101885714D01*
X216757143Y-101933333D01*
X216804762Y-101980952D01*
X216852381Y-102076190D01*
X216852381Y-102171429D01*
X216804762Y-102266667D01*
X216757143Y-102314286D01*
X216661905Y-102361905D01*
X216471429Y-102409524D01*
X216233333Y-102409524D01*
X216042857Y-102361905D01*
X215947619Y-102314286D01*
X215900000Y-102266667D01*
X215852381Y-102171429D01*
X178352381Y-123314286D02*
X177352381Y-123314286D01*
X177352381Y-123076191D01*
X177400000Y-122933333D01*
X177495238Y-122838095D01*
X177590476Y-122790476D01*
X177780952Y-122742857D01*
X177923810Y-122742857D01*
X178114286Y-122790476D01*
X178209524Y-122838095D01*
X178304762Y-122933333D01*
X178352381Y-123076191D01*
X178352381Y-123314286D01*
X178352381Y-121790476D02*
X178352381Y-122361905D01*
X178352381Y-122076191D02*
X177352381Y-122076191D01*
X177495238Y-122171429D01*
X177590476Y-122266667D01*
X177638095Y-122361905D01*
X177352381Y-121457143D02*
X177352381Y-120790476D01*
X178352381Y-121219048D01*
X197852381Y-104314286D02*
X196852381Y-104314286D01*
X196852381Y-104076191D01*
X196900000Y-103933333D01*
X196995238Y-103838095D01*
X197090476Y-103790476D01*
X197280952Y-103742857D01*
X197423810Y-103742857D01*
X197614286Y-103790476D01*
X197709524Y-103838095D01*
X197804762Y-103933333D01*
X197852381Y-104076191D01*
X197852381Y-104314286D01*
X197852381Y-102790476D02*
X197852381Y-103361905D01*
X197852381Y-103076191D02*
X196852381Y-103076191D01*
X196995238Y-103171429D01*
X197090476Y-103266667D01*
X197138095Y-103361905D01*
X196852381Y-101933333D02*
X196852381Y-102123810D01*
X196900000Y-102219048D01*
X196947619Y-102266667D01*
X197090476Y-102361905D01*
X197280952Y-102409524D01*
X197661905Y-102409524D01*
X197757143Y-102361905D01*
X197804762Y-102314286D01*
X197852381Y-102219048D01*
X197852381Y-102028571D01*
X197804762Y-101933333D01*
X197757143Y-101885714D01*
X197661905Y-101838095D01*
X197423810Y-101838095D01*
X197328571Y-101885714D01*
X197280952Y-101933333D01*
X197233333Y-102028571D01*
X197233333Y-102219048D01*
X197280952Y-102314286D01*
X197328571Y-102361905D01*
X197423810Y-102409524D01*
X197852381Y-85314286D02*
X196852381Y-85314286D01*
X196852381Y-85076191D01*
X196900000Y-84933333D01*
X196995238Y-84838095D01*
X197090476Y-84790476D01*
X197280952Y-84742857D01*
X197423810Y-84742857D01*
X197614286Y-84790476D01*
X197709524Y-84838095D01*
X197804762Y-84933333D01*
X197852381Y-85076191D01*
X197852381Y-85314286D01*
X197852381Y-83790476D02*
X197852381Y-84361905D01*
X197852381Y-84076191D02*
X196852381Y-84076191D01*
X196995238Y-84171429D01*
X197090476Y-84266667D01*
X197138095Y-84361905D01*
X196852381Y-82885714D02*
X196852381Y-83361905D01*
X197328571Y-83409524D01*
X197280952Y-83361905D01*
X197233333Y-83266667D01*
X197233333Y-83028571D01*
X197280952Y-82933333D01*
X197328571Y-82885714D01*
X197423810Y-82838095D01*
X197661905Y-82838095D01*
X197757143Y-82885714D01*
X197804762Y-82933333D01*
X197852381Y-83028571D01*
X197852381Y-83266667D01*
X197804762Y-83361905D01*
X197757143Y-83409524D01*
X197852381Y-66314286D02*
X196852381Y-66314286D01*
X196852381Y-66076191D01*
X196900000Y-65933333D01*
X196995238Y-65838095D01*
X197090476Y-65790476D01*
X197280952Y-65742857D01*
X197423810Y-65742857D01*
X197614286Y-65790476D01*
X197709524Y-65838095D01*
X197804762Y-65933333D01*
X197852381Y-66076191D01*
X197852381Y-66314286D01*
X197852381Y-64790476D02*
X197852381Y-65361905D01*
X197852381Y-65076191D02*
X196852381Y-65076191D01*
X196995238Y-65171429D01*
X197090476Y-65266667D01*
X197138095Y-65361905D01*
X197185714Y-63933333D02*
X197852381Y-63933333D01*
X196804762Y-64171429D02*
X197519048Y-64409524D01*
X197519048Y-63790476D01*
X160152381Y-123214286D02*
X159152381Y-123214286D01*
X159152381Y-122976191D01*
X159200000Y-122833333D01*
X159295238Y-122738095D01*
X159390476Y-122690476D01*
X159580952Y-122642857D01*
X159723810Y-122642857D01*
X159914286Y-122690476D01*
X160009524Y-122738095D01*
X160104762Y-122833333D01*
X160152381Y-122976191D01*
X160152381Y-123214286D01*
X160152381Y-121690476D02*
X160152381Y-122261905D01*
X160152381Y-121976191D02*
X159152381Y-121976191D01*
X159295238Y-122071429D01*
X159390476Y-122166667D01*
X159438095Y-122261905D01*
X159152381Y-121357143D02*
X159152381Y-120738095D01*
X159533333Y-121071429D01*
X159533333Y-120928571D01*
X159580952Y-120833333D01*
X159628571Y-120785714D01*
X159723810Y-120738095D01*
X159961905Y-120738095D01*
X160057143Y-120785714D01*
X160104762Y-120833333D01*
X160152381Y-120928571D01*
X160152381Y-121214286D01*
X160104762Y-121309524D01*
X160057143Y-121357143D01*
X178852381Y-104314286D02*
X177852381Y-104314286D01*
X177852381Y-104076191D01*
X177900000Y-103933333D01*
X177995238Y-103838095D01*
X178090476Y-103790476D01*
X178280952Y-103742857D01*
X178423810Y-103742857D01*
X178614286Y-103790476D01*
X178709524Y-103838095D01*
X178804762Y-103933333D01*
X178852381Y-104076191D01*
X178852381Y-104314286D01*
X178852381Y-102790476D02*
X178852381Y-103361905D01*
X178852381Y-103076191D02*
X177852381Y-103076191D01*
X177995238Y-103171429D01*
X178090476Y-103266667D01*
X178138095Y-103361905D01*
X177947619Y-102409524D02*
X177900000Y-102361905D01*
X177852381Y-102266667D01*
X177852381Y-102028571D01*
X177900000Y-101933333D01*
X177947619Y-101885714D01*
X178042857Y-101838095D01*
X178138095Y-101838095D01*
X178280952Y-101885714D01*
X178852381Y-102457143D01*
X178852381Y-101838095D01*
X178852381Y-85314286D02*
X177852381Y-85314286D01*
X177852381Y-85076191D01*
X177900000Y-84933333D01*
X177995238Y-84838095D01*
X178090476Y-84790476D01*
X178280952Y-84742857D01*
X178423810Y-84742857D01*
X178614286Y-84790476D01*
X178709524Y-84838095D01*
X178804762Y-84933333D01*
X178852381Y-85076191D01*
X178852381Y-85314286D01*
X178852381Y-83790476D02*
X178852381Y-84361905D01*
X178852381Y-84076191D02*
X177852381Y-84076191D01*
X177995238Y-84171429D01*
X178090476Y-84266667D01*
X178138095Y-84361905D01*
X178852381Y-82838095D02*
X178852381Y-83409524D01*
X178852381Y-83123810D02*
X177852381Y-83123810D01*
X177995238Y-83219048D01*
X178090476Y-83314286D01*
X178138095Y-83409524D01*
X178852381Y-66314286D02*
X177852381Y-66314286D01*
X177852381Y-66076191D01*
X177900000Y-65933333D01*
X177995238Y-65838095D01*
X178090476Y-65790476D01*
X178280952Y-65742857D01*
X178423810Y-65742857D01*
X178614286Y-65790476D01*
X178709524Y-65838095D01*
X178804762Y-65933333D01*
X178852381Y-66076191D01*
X178852381Y-66314286D01*
X178852381Y-64790476D02*
X178852381Y-65361905D01*
X178852381Y-65076191D02*
X177852381Y-65076191D01*
X177995238Y-65171429D01*
X178090476Y-65266667D01*
X178138095Y-65361905D01*
X177852381Y-64171429D02*
X177852381Y-64076190D01*
X177900000Y-63980952D01*
X177947619Y-63933333D01*
X178042857Y-63885714D01*
X178233333Y-63838095D01*
X178471429Y-63838095D01*
X178661905Y-63885714D01*
X178757143Y-63933333D01*
X178804762Y-63980952D01*
X178852381Y-64076190D01*
X178852381Y-64171429D01*
X178804762Y-64266667D01*
X178757143Y-64314286D01*
X178661905Y-64361905D01*
X178471429Y-64409524D01*
X178233333Y-64409524D01*
X178042857Y-64361905D01*
X177947619Y-64314286D01*
X177900000Y-64266667D01*
X177852381Y-64171429D01*
X140852381Y-122838095D02*
X139852381Y-122838095D01*
X139852381Y-122600000D01*
X139900000Y-122457142D01*
X139995238Y-122361904D01*
X140090476Y-122314285D01*
X140280952Y-122266666D01*
X140423810Y-122266666D01*
X140614286Y-122314285D01*
X140709524Y-122361904D01*
X140804762Y-122457142D01*
X140852381Y-122600000D01*
X140852381Y-122838095D01*
X140852381Y-121790476D02*
X140852381Y-121600000D01*
X140804762Y-121504761D01*
X140757143Y-121457142D01*
X140614286Y-121361904D01*
X140423810Y-121314285D01*
X140042857Y-121314285D01*
X139947619Y-121361904D01*
X139900000Y-121409523D01*
X139852381Y-121504761D01*
X139852381Y-121695238D01*
X139900000Y-121790476D01*
X139947619Y-121838095D01*
X140042857Y-121885714D01*
X140280952Y-121885714D01*
X140376190Y-121838095D01*
X140423810Y-121790476D01*
X140471429Y-121695238D01*
X140471429Y-121504761D01*
X140423810Y-121409523D01*
X140376190Y-121361904D01*
X140280952Y-121314285D01*
X159852381Y-103838095D02*
X158852381Y-103838095D01*
X158852381Y-103600000D01*
X158900000Y-103457142D01*
X158995238Y-103361904D01*
X159090476Y-103314285D01*
X159280952Y-103266666D01*
X159423810Y-103266666D01*
X159614286Y-103314285D01*
X159709524Y-103361904D01*
X159804762Y-103457142D01*
X159852381Y-103600000D01*
X159852381Y-103838095D01*
X159280952Y-102695238D02*
X159233333Y-102790476D01*
X159185714Y-102838095D01*
X159090476Y-102885714D01*
X159042857Y-102885714D01*
X158947619Y-102838095D01*
X158900000Y-102790476D01*
X158852381Y-102695238D01*
X158852381Y-102504761D01*
X158900000Y-102409523D01*
X158947619Y-102361904D01*
X159042857Y-102314285D01*
X159090476Y-102314285D01*
X159185714Y-102361904D01*
X159233333Y-102409523D01*
X159280952Y-102504761D01*
X159280952Y-102695238D01*
X159328571Y-102790476D01*
X159376190Y-102838095D01*
X159471429Y-102885714D01*
X159661905Y-102885714D01*
X159757143Y-102838095D01*
X159804762Y-102790476D01*
X159852381Y-102695238D01*
X159852381Y-102504761D01*
X159804762Y-102409523D01*
X159757143Y-102361904D01*
X159661905Y-102314285D01*
X159471429Y-102314285D01*
X159376190Y-102361904D01*
X159328571Y-102409523D01*
X159280952Y-102504761D01*
X159852381Y-84838095D02*
X158852381Y-84838095D01*
X158852381Y-84600000D01*
X158900000Y-84457142D01*
X158995238Y-84361904D01*
X159090476Y-84314285D01*
X159280952Y-84266666D01*
X159423810Y-84266666D01*
X159614286Y-84314285D01*
X159709524Y-84361904D01*
X159804762Y-84457142D01*
X159852381Y-84600000D01*
X159852381Y-84838095D01*
X158852381Y-83933333D02*
X158852381Y-83266666D01*
X159852381Y-83695238D01*
X159852381Y-65838095D02*
X158852381Y-65838095D01*
X158852381Y-65600000D01*
X158900000Y-65457142D01*
X158995238Y-65361904D01*
X159090476Y-65314285D01*
X159280952Y-65266666D01*
X159423810Y-65266666D01*
X159614286Y-65314285D01*
X159709524Y-65361904D01*
X159804762Y-65457142D01*
X159852381Y-65600000D01*
X159852381Y-65838095D01*
X158852381Y-64409523D02*
X158852381Y-64600000D01*
X158900000Y-64695238D01*
X158947619Y-64742857D01*
X159090476Y-64838095D01*
X159280952Y-64885714D01*
X159661905Y-64885714D01*
X159757143Y-64838095D01*
X159804762Y-64790476D01*
X159852381Y-64695238D01*
X159852381Y-64504761D01*
X159804762Y-64409523D01*
X159757143Y-64361904D01*
X159661905Y-64314285D01*
X159423810Y-64314285D01*
X159328571Y-64361904D01*
X159280952Y-64409523D01*
X159233333Y-64504761D01*
X159233333Y-64695238D01*
X159280952Y-64790476D01*
X159328571Y-64838095D01*
X159423810Y-64885714D01*
X128761905Y-114352381D02*
X128761905Y-113352381D01*
X129000000Y-113352381D01*
X129142858Y-113400000D01*
X129238096Y-113495238D01*
X129285715Y-113590476D01*
X129333334Y-113780952D01*
X129333334Y-113923810D01*
X129285715Y-114114286D01*
X129238096Y-114209524D01*
X129142858Y-114304762D01*
X129000000Y-114352381D01*
X128761905Y-114352381D01*
X130238096Y-113352381D02*
X129761905Y-113352381D01*
X129714286Y-113828571D01*
X129761905Y-113780952D01*
X129857143Y-113733333D01*
X130095239Y-113733333D01*
X130190477Y-113780952D01*
X130238096Y-113828571D01*
X130285715Y-113923810D01*
X130285715Y-114161905D01*
X130238096Y-114257143D01*
X130190477Y-114304762D01*
X130095239Y-114352381D01*
X129857143Y-114352381D01*
X129761905Y-114304762D01*
X129714286Y-114257143D01*
X140852381Y-103838095D02*
X139852381Y-103838095D01*
X139852381Y-103600000D01*
X139900000Y-103457142D01*
X139995238Y-103361904D01*
X140090476Y-103314285D01*
X140280952Y-103266666D01*
X140423810Y-103266666D01*
X140614286Y-103314285D01*
X140709524Y-103361904D01*
X140804762Y-103457142D01*
X140852381Y-103600000D01*
X140852381Y-103838095D01*
X140185714Y-102409523D02*
X140852381Y-102409523D01*
X139804762Y-102647619D02*
X140519048Y-102885714D01*
X140519048Y-102266666D01*
X140852381Y-84838095D02*
X139852381Y-84838095D01*
X139852381Y-84600000D01*
X139900000Y-84457142D01*
X139995238Y-84361904D01*
X140090476Y-84314285D01*
X140280952Y-84266666D01*
X140423810Y-84266666D01*
X140614286Y-84314285D01*
X140709524Y-84361904D01*
X140804762Y-84457142D01*
X140852381Y-84600000D01*
X140852381Y-84838095D01*
X139852381Y-83933333D02*
X139852381Y-83314285D01*
X140233333Y-83647619D01*
X140233333Y-83504761D01*
X140280952Y-83409523D01*
X140328571Y-83361904D01*
X140423810Y-83314285D01*
X140661905Y-83314285D01*
X140757143Y-83361904D01*
X140804762Y-83409523D01*
X140852381Y-83504761D01*
X140852381Y-83790476D01*
X140804762Y-83885714D01*
X140757143Y-83933333D01*
X119052381Y-122738095D02*
X118052381Y-122738095D01*
X118052381Y-122500000D01*
X118100000Y-122357142D01*
X118195238Y-122261904D01*
X118290476Y-122214285D01*
X118480952Y-122166666D01*
X118623810Y-122166666D01*
X118814286Y-122214285D01*
X118909524Y-122261904D01*
X119004762Y-122357142D01*
X119052381Y-122500000D01*
X119052381Y-122738095D01*
X119052381Y-121214285D02*
X119052381Y-121785714D01*
X119052381Y-121500000D02*
X118052381Y-121500000D01*
X118195238Y-121595238D01*
X118290476Y-121690476D01*
X118338095Y-121785714D01*
X140852381Y-65838095D02*
X139852381Y-65838095D01*
X139852381Y-65600000D01*
X139900000Y-65457142D01*
X139995238Y-65361904D01*
X140090476Y-65314285D01*
X140280952Y-65266666D01*
X140423810Y-65266666D01*
X140614286Y-65314285D01*
X140709524Y-65361904D01*
X140804762Y-65457142D01*
X140852381Y-65600000D01*
X140852381Y-65838095D01*
X139947619Y-64885714D02*
X139900000Y-64838095D01*
X139852381Y-64742857D01*
X139852381Y-64504761D01*
X139900000Y-64409523D01*
X139947619Y-64361904D01*
X140042857Y-64314285D01*
X140138095Y-64314285D01*
X140280952Y-64361904D01*
X140852381Y-64933333D01*
X140852381Y-64314285D01*
X216852381Y-66314286D02*
X215852381Y-66314286D01*
X215852381Y-66076191D01*
X215900000Y-65933333D01*
X215995238Y-65838095D01*
X216090476Y-65790476D01*
X216280952Y-65742857D01*
X216423810Y-65742857D01*
X216614286Y-65790476D01*
X216709524Y-65838095D01*
X216804762Y-65933333D01*
X216852381Y-66076191D01*
X216852381Y-66314286D01*
X216852381Y-64790476D02*
X216852381Y-65361905D01*
X216852381Y-65076191D02*
X215852381Y-65076191D01*
X215995238Y-65171429D01*
X216090476Y-65266667D01*
X216138095Y-65361905D01*
X216280952Y-64219048D02*
X216233333Y-64314286D01*
X216185714Y-64361905D01*
X216090476Y-64409524D01*
X216042857Y-64409524D01*
X215947619Y-64361905D01*
X215900000Y-64314286D01*
X215852381Y-64219048D01*
X215852381Y-64028571D01*
X215900000Y-63933333D01*
X215947619Y-63885714D01*
X216042857Y-63838095D01*
X216090476Y-63838095D01*
X216185714Y-63885714D01*
X216233333Y-63933333D01*
X216280952Y-64028571D01*
X216280952Y-64219048D01*
X216328571Y-64314286D01*
X216376190Y-64361905D01*
X216471429Y-64409524D01*
X216661905Y-64409524D01*
X216757143Y-64361905D01*
X216804762Y-64314286D01*
X216852381Y-64219048D01*
X216852381Y-64028571D01*
X216804762Y-63933333D01*
X216757143Y-63885714D01*
X216661905Y-63838095D01*
X216471429Y-63838095D01*
X216376190Y-63885714D01*
X216328571Y-63933333D01*
X216280952Y-64028571D01*
M02*
